<svg width="104" height="77" viewBox="0 0 104 77" fill="none" xmlns="http://www.w3.org/2000/svg">
<path d="M103.184 70.1653C69.1534 50.9866 35.1227 89.3747 1.09204 70.1653V6.18523C35.1227 25.3639 69.1534 -13.0241 103.184 6.18523V70.1653Z" fill="#F42525"/>
<path d="M22.0812 29.7518C23.0018 32.3908 23.9531 34.9685 24.8737 37.5461C22.6643 36.0118 20.4242 34.4774 18.2148 32.4829C16.0868 33.8788 13.873 35.1395 11.5866 36.2573C12.5072 33.8944 13.4278 31.4702 14.379 29.0461C12.0776 27.0822 9.80689 24.9341 7.53613 22.5713C10.1967 23.5533 12.9531 24.2527 15.7599 24.6579C16.5271 22.1417 17.2635 19.5948 18.0307 17.0479C18.8592 19.7482 19.7184 22.4486 20.5776 25.0876C23.3533 25.1693 26.1314 25.0668 28.8935 24.7807C26.6227 26.5605 24.3213 28.2175 22.0199 29.7518H22.0812Z" fill="white"/>
<path d="M40.3701 35.3672L40.8304 33.6182C41.0145 34.1091 41.1987 34.6001 41.3521 35.0911L40.8918 36.7174L40.3701 35.3672Z" fill="white"/>
<path d="M41.3518 35.0917L43.0702 34.6621L41.6587 35.9816L40.063 36.3191L41.3518 35.0917Z" fill="white"/>
<path d="M41.659 35.9805L42.242 37.4535L40.8611 36.7784C40.7077 36.3181 40.5542 35.8577 40.3701 35.3975L41.659 35.9805Z" fill="white"/>
<path d="M40.4005 35.3369L38.6821 35.7358L40.0937 36.3496L41.6587 35.9506L40.4005 35.3369Z" fill="white"/>
<path d="M40.0938 36.3491L39.5107 38.0982L40.8609 36.7787L41.3826 35.1523L40.0938 36.3491Z" fill="white"/>
<path d="M32.6985 44.9717L33.5884 43.376V45.0637L32.6985 46.5366C32.7599 46.015 32.7292 45.4933 32.6985 44.9717Z" fill="white"/>
<path d="M33.6498 45.0635L35.2762 45.2476L33.6805 46.0454L32.1462 45.8306L33.6498 45.0635Z" fill="white"/>
<path d="M33.6806 46.076V47.733L32.668 46.567V45.002L33.6806 46.076Z" fill="white"/>
<path d="M32.7291 44.9413L31.1028 44.7266L32.1768 45.8619H33.6804L32.7291 44.9413Z" fill="white"/>
<path d="M32.146 45.8614C31.8392 46.3831 31.5016 46.8741 31.1641 47.3957L32.7291 46.5672L33.6496 45.125L32.146 45.8614Z" fill="white"/>
<path d="M42.395 24.9027L43.6839 23.4912L43.2235 25.2403L41.9961 26.5291C42.1188 26.0074 42.2416 25.4551 42.395 24.9027Z" fill="white"/>
<path d="M43.2236 25.2402L44.6352 25.8233L42.9474 26.2529L41.6587 25.6698L43.2236 25.2402Z" fill="white"/>
<path d="M42.9475 26.2844C42.794 26.8674 42.6713 27.4504 42.5179 28.0334L41.9656 26.5912C41.9656 26.0388 42.2417 25.4865 42.3644 24.9648C42.5792 25.3944 42.7633 25.8241 42.9475 26.2844Z" fill="white"/>
<path d="M42.426 24.9033L41.0144 24.3203C41.2292 24.7806 41.444 25.2409 41.6282 25.7012L42.9783 26.2228L42.426 24.9033Z" fill="white"/>
<path d="M41.628 25.6396L40.2778 26.959L41.9656 26.4681L43.193 25.21L41.628 25.6396Z" fill="white"/>
<path d="M37.6084 16.6791L38.5597 15.0527V16.7405L37.7005 18.244L37.6084 16.6791Z" fill="white"/>
<path d="M38.5288 16.7412H40.1551L38.5595 17.6004H37.0559L38.5288 16.7412Z" fill="white"/>
<path d="M38.5596 17.7533C38.5596 18.3056 38.5596 18.858 38.5596 19.4103L37.5776 18.275V16.71C37.9152 17.0475 38.2527 17.385 38.5596 17.7533Z" fill="white"/>
<path d="M37.6083 16.6802L35.9819 16.4961L37.056 17.6008H38.5903L37.6083 16.6802Z" fill="white"/>
<path d="M37.0559 17.6006L36.0432 19.1656L37.6389 18.2757C37.9458 17.7847 38.2526 17.2937 38.5288 16.8027L37.0559 17.6006Z" fill="white"/>
<path style="mix-blend-mode:multiply" d="M102.785 27.849V49.3291V70.8092C68.7852 51.6919 34.7852 90.0186 0.815918 70.8092V6.79842C34.7852 26.0078 68.7852 -12.3496 102.785 6.79842V27.849Z" fill="url(#paint0_linear_482_4787)"/>
<path style="mix-blend-mode:overlay" opacity="0.25" d="M102.785 27.849V49.3291V70.8092C68.7852 51.6919 34.7852 90.0186 0.815918 70.8092V6.79842C34.7852 26.0078 68.7852 -12.3496 102.785 6.79842V27.849Z" fill="url(#paint1_linear_482_4787)"/>
<defs>
<linearGradient id="paint0_linear_482_4787" x1="0.785232" y1="38.8038" x2="102.785" y2="38.8038" gradientUnits="userSpaceOnUse">
<stop stop-color="white"/>
<stop offset="0.13" stop-color="#F7F7F7"/>
<stop offset="0.34" stop-color="#E0E0E1"/>
<stop offset="0.54" stop-color="#C4C5C6"/>
<stop offset="0.57" stop-color="#C1C2C3"/>
<stop offset="0.69" stop-color="#BEBFC0"/>
<stop offset="0.91" stop-color="white"/>
</linearGradient>
<linearGradient id="paint1_linear_482_4787" x1="0.785232" y1="38.8038" x2="102.785" y2="38.8038" gradientUnits="userSpaceOnUse">
<stop stop-color="white"/>
<stop offset="0.13" stop-color="#F7F7F7"/>
<stop offset="0.34" stop-color="#E0E0E1"/>
<stop offset="0.54" stop-color="#C4C5C6"/>
<stop offset="0.57" stop-color="#C1C2C3"/>
<stop offset="0.69" stop-color="#BEBFC0"/>
<stop offset="0.91" stop-color="white"/>
</linearGradient>
</defs>
</svg>
