<svg width="52" height="69" viewBox="0 0 52 69" fill="none" xmlns="http://www.w3.org/2000/svg">
<path d="M12.6328 65.7542C15.7953 67.2117 19.1788 68.1315 22.644 68.4759H28.9294C33.2989 68.0444 37.5291 66.6999 41.3459 64.5295C40.4007 59.0127 39.6467 45.4046 29.9004 44.3012C15.0087 42.6131 13.6111 57.1554 12.6328 65.7542Z" fill="#FF7777"/>
<path d="M30.9814 44.7794C35.1411 46.0666 38.0393 53.0288 38.0393 53.0288C38.1386 54.0439 34.56 59.1929 34.56 59.1929C34.56 59.1929 36.4468 61.4769 36.4468 62.0764C36.4468 62.6759 33.1661 66.0522 33.1661 66.0522" stroke="#482725" stroke-width="0.55168" stroke-miterlimit="10"/>
<path d="M24.2217 44.7794C20.0621 46.0666 17.1602 53.0288 17.1602 53.0288C17.0609 54.0439 20.6395 59.1929 20.6395 59.1929C20.6395 59.1929 18.7527 61.4769 18.7527 62.0764C18.7527 62.6759 22.0334 66.0522 22.0334 66.0522" stroke="#482725" stroke-width="0.55168" stroke-miterlimit="10"/>
<path d="M33.0816 46.0703L22.3459 45.1104C21.5677 45.4261 20.8275 45.8283 20.1392 46.3094L20.952 49.3988C20.952 49.3988 22.5555 59.2261 21.8972 68.3803C22.1436 68.4097 22.39 68.4465 22.6328 68.4685H28.9293C30.3137 68.3332 31.6874 68.1047 33.0411 67.7845C32.7653 61.83 32.2651 48.8876 33.0816 46.0703Z" fill="white"/>
<path d="M20.1431 46.3094L20.9559 49.3988C20.9559 49.3988 21.0736 50.1123 21.228 51.326C23.523 52.5544 27.7636 53.9005 32.6588 50.9362C32.7067 48.7037 32.8354 46.9236 33.0818 46.0703L22.3461 45.1104C21.5692 45.4263 20.8302 45.8285 20.1431 46.3094Z" fill="#E86C26"/>
<path d="M20.1431 46.3094C20.1431 46.3094 23.0192 56.6589 21.9011 68.3766" stroke="#482725" stroke-width="0.643627" stroke-miterlimit="10"/>
<path d="M34.8438 9.07465C34.8438 9.07465 43.3838 -1.84861 48.176 0.273515C52.9683 2.39564 51.3316 20.259 45.6015 23.7162" fill="white"/>
<path d="M37.5171 12.0721C37.5171 12.0721 43.7878 3.18273 45.7739 4.64653C47.7599 6.11032 46.9692 17.1108 44.8691 19.8508" fill="#A43B24"/>
<path d="M19.319 10.0787C19.319 10.0787 11.1652 -1.13509 6.30308 0.803142C1.44094 2.74138 2.45235 20.6636 8.06477 24.3415" fill="white"/>
<path d="M3.67292 15.5146C3.67292 15.5146 1.96271 2.84804 5.87963 0.884063C10.0025 -1.17922 16.9132 7.10333 16.9132 7.10333" stroke="#482725" stroke-width="0.735573" stroke-miterlimit="10"/>
<path d="M15.8323 11.5904C15.8323 11.5904 9.36297 3.99557 7.32543 5.38948C5.28789 6.78339 6.92086 17.6883 8.9253 20.5018" fill="#A43B24"/>
<path d="M0.609407 33.3927C0.293111 14.7092 10.1719 8.75102 31.0585 9.66681C56.7557 10.7702 56.5828 44.2719 39.7162 47.4275C27.1084 49.7813 0.907315 52.0542 0.609407 33.3927Z" fill="#E86C26"/>
<path d="M46.1341 30.4835C39.5581 29.9355 46.1746 35.4965 47.7193 42.4182C49.72 39.8437 50.9558 36.5005 51.3493 32.9624C49.9834 31.5112 48.1219 30.6264 46.1341 30.4835Z" fill="white"/>
<path d="M37.6309 19.928C41.7906 20.9321 37.8626 25.5184 34.4532 24.4445C30.7239 23.2639 32.949 18.7916 37.6309 19.928Z" fill="white"/>
<path d="M15.873 19.7294C11.7133 20.7335 15.3177 25.397 19.0544 24.2458C21.982 23.3411 20.5549 18.5966 15.873 19.7294Z" fill="white"/>
<path d="M6.28481 30.4835C5.18281 30.5676 4.11001 30.8782 3.13354 31.3959C2.15706 31.9135 1.29792 32.6271 0.609863 33.492C0.705488 37.7915 2.18031 40.9728 4.54886 43.2935C5.66325 35.9746 13.133 29.9098 6.28481 30.4835Z" fill="white"/>
<path d="M43.203 28.6225C43.2949 29.4647 40.6285 29.6155 37.3956 29.9723C34.1628 30.329 31.5111 30.763 31.4338 29.9208C31.3566 29.0786 33.9311 27.5228 37.1823 27.1661C38.3774 27.0267 39.5867 27.0713 40.7682 27.2985C42.2026 27.589 43.1478 28.1297 43.203 28.6225Z" fill="#482725"/>
<path d="M10.3339 28.6225C10.2419 29.4647 12.9084 29.6155 16.1449 29.9723C19.3814 30.329 22.0295 30.763 22.1067 29.9208C22.1839 29.0786 19.6057 27.5228 16.3582 27.1661C13.1106 26.8093 10.4295 27.784 10.3339 28.6225Z" fill="#482725"/>
<path d="M22.2754 48.5676C22.2754 48.5676 35.0891 49.3032 40.7787 46.8684" stroke="#482725" stroke-width="0.735573" stroke-miterlimit="10"/>
<path d="M43.9019 13.9294C43.9019 13.9294 49.6798 19.0784 50.3896 23.7015" stroke="#482725" stroke-width="0.735573" stroke-miterlimit="10"/>
<path d="M9.34088 13.3079C9.34088 13.3079 3.20988 16.2502 2.14697 22.0134" stroke="#482725" stroke-width="0.735573" stroke-miterlimit="10"/>
<path d="M2.48926 40.3476C2.48926 40.3476 5.45362 47.9019 18.0724 48.4609" stroke="#482725" stroke-width="0.735573" stroke-miterlimit="10"/>
<path d="M26.7595 43.0828C31.1331 42.9025 34.5359 39.2948 34.3599 35.0247C34.1839 30.7546 30.4958 27.4392 26.1222 27.6194C21.7486 27.7997 18.3458 31.4074 18.5218 35.6775C18.6978 39.9476 22.3859 43.263 26.7595 43.0828Z" fill="white"/>
<path d="M23.24 36.129C23.24 36.129 22.9789 41.6458 26.5869 41.712C30.1949 41.7782 30.1728 36.026 30.1728 36.026C30.1728 36.026 27.1533 36.9933 26.7303 35.5111C26.723 35.5111 25.4394 37.7583 23.24 36.129Z" fill="#482725"/>
<path d="M26.7225 35.5111C26.3632 36.1026 25.7838 36.5272 25.1116 36.6917L24.4827 36.6586C24.4818 36.6721 24.4818 36.6856 24.4827 36.6991C24.0238 36.6159 23.5929 36.42 23.2285 36.129C23.2285 36.129 23.2285 36.1732 23.2285 36.243C23.5838 36.7251 24.0594 37.1055 24.6077 37.3464C24.6997 37.6517 24.8541 37.9496 25.1079 37.9827C25.2992 38.0047 25.4279 37.8539 25.5161 37.648C25.8912 37.7348 26.275 37.778 26.66 37.7767C27.0905 37.7767 27.5193 37.7223 27.9362 37.6149C28.0245 37.8024 28.1458 37.9385 28.3297 37.9165C28.5835 37.8834 28.7343 37.5891 28.8262 37.2875C29.3687 37.0339 29.8306 36.6356 30.1613 36.1364C30.1613 36.0665 30.1613 36.026 30.1613 36.026C30.1613 36.026 27.1528 36.9933 26.7225 35.5111Z" fill="white"/>
<path d="M23.9014 39.829C24.09 40.3879 24.4522 40.8719 24.9351 41.2106C25.418 41.5493 25.9965 41.725 26.5862 41.712C28.1787 41.7378 29.0688 40.7374 29.5616 39.612C27.1232 38.9279 25.2511 39.2552 23.9014 39.829Z" fill="#FF7777"/>
<path d="M23.3538 35.7981C23.3538 35.7981 22.9861 41.6532 26.5867 41.7121C30.1873 41.7709 30.2315 35.5774 30.2315 35.5774" stroke="#482725" stroke-width="0.55168" stroke-miterlimit="10"/>
<path d="M30.1503 30.1635C29.5655 28.3834 23.063 28.4644 22.9527 30.5534C22.8424 32.6424 24.7916 33.8635 26.8402 33.9076C28.6534 33.9297 30.7351 31.9436 30.1503 30.1635Z" fill="#482725"/>
<path d="M27.4582 29.5273C26.736 29.4604 26.0077 29.5214 25.3066 29.7075" stroke="white" stroke-width="0.367787" stroke-miterlimit="10"/>
<path d="M28.6792 29.748C28.4524 29.6812 28.2214 29.6296 27.9878 29.5935" stroke="white" stroke-width="0.367787" stroke-miterlimit="10"/>
<path d="M26.8258 31.1308C26.7403 32.7161 26.7403 34.3047 26.8258 35.89" stroke="#482725" stroke-width="0.55168" stroke-miterlimit="10"/>
<path d="M22.9785 34.8565C22.9785 34.8565 23.2985 36.3755 24.4497 36.563C24.824 36.6157 25.2056 36.5714 25.5579 36.4342C25.9102 36.297 26.2213 36.0716 26.4615 35.7797C26.5011 35.735 26.5498 35.6992 26.6044 35.6747C26.6589 35.6502 26.718 35.6375 26.7778 35.6375C26.8375 35.6375 26.8966 35.6502 26.9511 35.6747C27.0057 35.6992 27.0544 35.735 27.094 35.7797C27.3332 36.0788 27.6612 36.2942 28.0308 36.3947C28.4003 36.4952 28.7923 36.4756 29.15 36.3387C30.6211 35.7613 30.4887 34.7609 30.4887 34.7609" stroke="#482725" stroke-width="0.55168" stroke-miterlimit="10"/>
<path d="M22.7134 35.2721C22.721 35.1849 22.7491 35.1008 22.7954 35.0266C22.8418 34.9523 22.905 34.8901 22.9799 34.8449C23.0548 34.7997 23.1394 34.7729 23.2266 34.7666C23.3139 34.7603 23.4014 34.7747 23.4821 34.8087" stroke="#482725" stroke-width="0.367787" stroke-miterlimit="10"/>
<path d="M30.0327 34.8749C30.106 34.8258 30.1885 34.7923 30.2752 34.7765C30.362 34.7607 30.451 34.7628 30.5369 34.7828C30.6228 34.8028 30.7036 34.8402 30.7744 34.8928C30.8452 34.9453 30.9045 35.0118 30.9485 35.0882" stroke="#482725" stroke-width="0.367787" stroke-miterlimit="10"/>
</svg>
