<svg width="92" height="105" viewBox="0 0 92 105" fill="none" xmlns="http://www.w3.org/2000/svg">
<path d="M91.932 0.763672H0.0678711V96.2796H91.932V0.763672Z" fill="#113F7A"/>
<path d="M91.932 72.6438H0.0678711V44.7696L15.2781 34.1325L17.9247 36.2683L38.085 21.2926L39.5172 22.616L43.37 19.9609L52.868 26.7955L64.7782 15.2119L83.6988 35.6485L86.8648 32.9516L91.932 37.6754V72.6438Z" fill="#5F7DA5"/>
<g style="mix-blend-mode:multiply" opacity="0.3">
<path d="M29.3074 72.6188L30.5051 60.8008L36.7784 73.0795" fill="#333E63"/>
</g>
<g style="mix-blend-mode:multiply" opacity="0.3">
<path d="M52.533 77.007L58.0358 61.7801L70.2726 70.742L60.8332 78.4225H71.9226L67.517 70.1557L63.1617 50.7158L84.3688 81.1865" fill="#333E63"/>
</g>
<g style="mix-blend-mode:multiply" opacity="0.3">
<path d="M86.8648 32.9512L83.6988 35.6481L81.1693 41.9047L83.8747 43.9316L79.0503 58.12L84.5363 56.3862L90.4244 36.2679L86.8648 32.9512Z" fill="#333E63"/>
</g>
<g style="mix-blend-mode:multiply" opacity="0.3">
<path d="M2.84033 73.0789L14.449 54.108V61.7801L13.9381 72.2665L17.9249 72.6434L29.0226 48.5215L25.9823 72.0989" fill="#333E63"/>
</g>
<path d="M91.932 96.28H0.0678711V65.9601C36.569 72.6606 58.0358 63.1291 91.932 66.6553V96.28Z" fill="#11285D"/>
<path d="M91.932 83.4482H0.0678711V96.2798H91.932V83.4482Z" fill="#113F7A"/>
<path d="M86.8647 89.8808C86.8647 89.8808 68.5304 72.4678 45.9999 72.4678C23.4694 72.4678 5.12671 89.8808 5.12671 89.8808C5.12671 97.8125 23.4275 104.237 45.9999 104.237C68.5723 104.237 86.8647 97.8125 86.8647 89.8808Z" fill="#113F7A"/>
<g style="mix-blend-mode:multiply" opacity="0.3">
<path d="M17.9249 36.2677L8.51904 46.3854L18.218 41.6867L22.6488 42.5327L36.8539 36.9377L33.4785 30.0446L40.9914 23.2687L38.0851 21.292L17.9249 36.2677Z" fill="#333E63"/>
</g>
<g style="mix-blend-mode:multiply" opacity="0.3">
<path d="M64.7782 15.2119L52.868 26.7955L48.6467 35.6485L56.9973 31.067L67.8772 50.9508L69.3346 26.7703L64.3008 23.6378L64.7782 15.2119Z" fill="#333E63"/>
</g>
<g style="mix-blend-mode:multiply" opacity="0.3">
<path d="M54.5431 77.0069C54.5431 78.079 50.8327 78.9501 46.2596 78.9501C41.6865 78.9501 37.9761 78.1125 37.9761 77.0069C37.9761 75.9013 41.7284 75.0303 46.2596 75.0303C50.7908 75.0303 54.5431 75.9265 54.5431 77.0069Z" fill="#333E63"/>
</g>
<path d="M56.6288 42.1142H55.8582C55.8582 42.1142 56.1932 49.6523 47.9683 49.4178L47.6752 48.4714L48.3201 46.746L47.6752 45.7158L46.7539 47.282L44.861 39.6602H44.1155V48.2285L41.9462 43.4962L41.1087 44.1328L44.0485 50.4061C44.0485 50.4061 43.9564 53.145 43.7554 55.9089C43.1107 55.8079 42.4986 55.5577 41.9678 55.1781C41.437 54.7986 41.0023 54.3002 40.6983 53.7229L41.1087 52.1064L40.7904 51.6708L40.2125 52.9021C39.9277 52.3448 39.6896 51.7649 39.5005 51.1683C39.5005 51.1683 40.2795 51.1683 38.6043 51.1683C38.3279 55.8252 43.4287 58.7064 43.4287 58.7064L43.1691 75.6503V76.6554C45.9833 78.1379 49.6937 76.7559 49.6937 76.7559L49.2163 67.6851L48.3787 51.7127C50.4475 51.5117 56.6455 50.3559 56.6288 42.1142Z" fill="#944E58"/>
<g style="mix-blend-mode:multiply" opacity="0.3">
<path d="M43.9479 66.6549C43.9287 66.9166 43.9658 67.1794 44.0568 67.4255C44.1015 67.548 44.1806 67.6551 44.2846 67.7338C44.3886 67.8125 44.513 67.8596 44.6431 67.8694C45.0368 67.8694 45.2796 67.4339 45.3969 67.0319C45.7075 65.9609 45.7902 64.8367 45.6398 63.7318C45.556 63.0199 44.8944 61.6044 44.2662 62.8524C43.7804 63.8407 43.9563 65.6164 43.9479 66.6549Z" fill="#333E63"/>
</g>
<g style="mix-blend-mode:multiply" opacity="0.3">
<path d="M46.5444 60.8418C46.5442 61.1021 46.6168 61.3574 46.7538 61.5788C46.7882 61.6307 46.8326 61.6751 46.8844 61.7096C46.9361 61.7441 46.9942 61.768 47.0553 61.7798C47.143 61.7774 47.2279 61.749 47.2995 61.6983C47.371 61.6477 47.426 61.5769 47.4573 61.4951C47.5143 61.3283 47.5344 61.1511 47.516 60.9758C47.4546 59.0661 47.354 57.1621 47.2144 55.2636C47.2426 54.445 47.0394 53.6351 46.6282 52.9268C46.2491 53.9483 46.1423 55.0509 46.3183 56.1263C46.3937 57.7009 46.3853 59.2671 46.5444 60.8418Z" fill="#333E63"/>
</g>
<g style="mix-blend-mode:multiply" opacity="0.3">
<path d="M47.826 63.3049C47.3402 62.4673 46.2178 64.4942 47.2564 64.7957C47.3611 64.8161 47.4695 64.8037 47.567 64.7602C47.6644 64.7168 47.746 64.6443 47.8008 64.5528C47.9 64.3646 47.949 64.1541 47.9432 63.9414C47.968 63.7223 47.9272 63.5008 47.826 63.3049Z" fill="#333E63"/>
</g>
<g style="mix-blend-mode:multiply" opacity="0.3">
<path d="M49.6853 76.7056C49.6853 76.7056 45.9749 78.0876 43.1606 76.6051V75.6C43.4544 75.8782 43.8048 76.0897 44.1879 76.2198C44.5711 76.3499 44.9778 76.3956 45.3802 76.3538C45.618 76.3365 45.8454 76.249 46.0335 76.1025C46.1771 75.9522 46.2857 75.772 46.3518 75.5749C46.7609 74.596 47.0125 73.5586 47.0972 72.501C47.0821 71.5894 47.2151 70.6814 47.4909 69.8124C47.7037 69.3556 47.9863 68.9346 48.3284 68.5645C48.6048 68.2378 48.898 67.9279 49.166 67.6348L49.6853 76.7056Z" fill="#333E63"/>
</g>
<path d="M61.5452 81.0615C61.5452 81.0615 58.9069 81.4049 60.1213 84.2861C63.3627 82.9544 61.5452 81.0615 61.5452 81.0615Z" fill="#C4434D"/>
<path d="M63.1617 78.3813C63.1617 78.3813 62.8769 81.0196 65.9592 80.5171C65.4315 77.0831 63.1617 78.3813 63.1617 78.3813Z" fill="#C4434D"/>
<path d="M51.9049 80.2067C51.9049 80.2067 51.6201 82.845 54.7023 82.3425C54.1747 78.8833 51.9049 80.2067 51.9049 80.2067Z" fill="#C4434D"/>
<path d="M36.8538 80.2742C36.8538 80.2742 37.9259 82.7031 40.3464 80.7349C38.1604 77.9876 36.8538 80.2742 36.8538 80.2742Z" fill="#C4434D"/>
<path d="M32.3394 76.7565C32.3394 76.7565 34.3495 79.1352 36.4099 76.1199C33.0513 73.7664 32.3394 76.7565 32.3394 76.7565Z" fill="#C4434D"/>
<path d="M46.8877 85.2568C46.8877 85.2568 48.3618 87.468 50.4055 85.1144C47.7923 82.786 46.8877 85.2568 46.8877 85.2568Z" fill="#C4434D"/>
<path d="M25.5046 78.4394C25.5046 78.4394 26.9787 80.6506 29.0224 78.297C26.4092 75.9686 25.5046 78.4394 25.5046 78.4394Z" fill="#C4434D"/>
<path d="M30.5804 78.4478C30.5804 78.4478 29.8434 81.0023 32.9591 81.0442C33.0429 77.5432 30.5804 78.4478 30.5804 78.4478Z" fill="#C4434D"/>
<path d="M44.7603 82.1497C44.7603 82.1497 46.5109 83.0292 46.9631 80.7761C44.4337 80.2485 44.7603 82.1497 44.7603 82.1497Z" fill="#C4434D"/>
<path d="M35.723 82.8867C35.723 82.8867 34.0478 83.1966 34.8854 84.989C36.9458 84.0426 35.723 82.8867 35.723 82.8867Z" fill="#C4434D"/>
<path d="M57.3406 77.9033C57.3406 77.9033 55.6655 78.2049 56.5031 80.0056C58.5635 79.0592 57.3406 77.9033 57.3406 77.9033Z" fill="#C4434D"/>
<path d="M42.859 83.4058C42.859 83.4058 41.9461 81.982 40.606 83.4645C42.2643 84.9721 42.859 83.4058 42.859 83.4058Z" fill="#C4434D"/>
<path d="M57.0055 75.2907C57.0055 75.2907 56.7207 77.929 59.8029 77.4264C59.3171 73.9673 57.0055 75.2907 57.0055 75.2907Z" fill="#C4434D"/>
<path d="M32.3812 19.7513H5.41992C5.41992 19.7513 5.89735 16.7445 10.3281 17.1716C12.1875 8.3688 23.1428 8.79594 23.2433 17.1297C23.8614 16.8709 24.544 16.8085 25.1988 16.9508C25.8535 17.0932 26.4486 17.4334 26.9035 17.9254C26.9035 17.9254 30.84 15.3038 32.3812 19.7513Z" fill="white"/>
<path d="M63.6223 30.0449H83.6066C83.6066 30.0449 83.6066 25.2875 78.933 25.8068C80.3317 20.2119 73.1454 17.4311 71.3949 25.8822C63.6223 23.3611 63.6223 30.0449 63.6223 30.0449Z" fill="white"/>
<path d="M82.7692 11.7612H50.2549C50.2549 11.7612 52.2148 8.32713 59.4011 9.34896C59.4011 3.56139 74.2763 1.39209 74.4019 9.34896C77.4255 7.97536 78.0621 9.99391 78.0621 9.99391C78.0621 9.99391 81.5882 8.35226 82.7692 11.7612Z" fill="white"/>
</svg>
