<svg width="77" height="50" viewBox="0 0 77 50" fill="none" xmlns="http://www.w3.org/2000/svg">
<path d="M6.26368 23.0886C6.26368 23.0886 4.20221 19.2596 1.4273 21.1167C-1.08231 22.7838 1.85393 32.2594 6.02706 29.273L6.26368 23.0886Z" fill="#FFC999"/>
<path d="M5.44262 23.5367C5.44262 23.5367 3.96195 20.4463 2.00445 21.927C0.244138 23.2535 2.38448 30.1728 5.3279 27.7887L5.44262 23.5367Z" fill="#E6B58C"/>
<path d="M3.40286 25.1859C3.37448 25.4138 3.41694 25.6449 3.52449 25.8479C3.63203 26.0508 3.79944 26.2158 4.00397 26.3202C4.2085 26.4247 4.44024 26.4637 4.66771 26.4319C4.89518 26.4001 5.10734 26.2991 5.27538 26.1425C5.44342 25.986 5.55919 25.7814 5.60697 25.5568C5.65474 25.3321 5.6322 25.0982 5.5424 24.8868C5.45261 24.6754 5.29992 24.4968 5.10507 24.3752C4.91022 24.2536 4.68267 24.1949 4.45332 24.2072C4.18469 24.1994 3.92382 24.2977 3.72721 24.4809C3.5306 24.6641 3.41407 24.9174 3.40286 25.1859Z" fill="#FFC999"/>
<path d="M2.40236 22.1605C1.32681 22.9744 1.57777 25.9357 2.68917 27.5383C1.36983 26.054 0.853569 22.7987 2.00441 21.9311C2.30296 21.6723 2.68483 21.5298 3.07995 21.5298C3.47507 21.5298 3.85695 21.6723 4.1555 21.9311C3.87288 21.7936 3.55614 21.7421 3.24452 21.7829C2.93289 21.8236 2.64008 21.955 2.40236 22.1605Z" fill="#D1A57F"/>
<path d="M35.913 21.1309C33.1345 19.2738 31.0767 23.1027 31.0767 23.1027L31.3097 29.2871C35.4828 32.2736 38.4047 22.798 35.913 21.1309Z" fill="#E6B58C"/>
<path d="M31.4316 13.8316C32.2957 16.3232 32.8406 19.7435 33.4644 22.9701C34.0667 26.0964 35.8844 36.4754 26.1041 40.2793C16.3238 44.0831 7.35728 38.5046 5.48941 31.743C3.35624 24.1281 4.38876 19.4208 6.17059 14.4841C8.51529 7.99132 13.9217 5.7972 19.6078 5.73625C25.0823 5.67889 29.596 8.35342 31.4316 13.8316Z" fill="#FFC999"/>
<path d="M28.2837 11.5408C28.2837 11.5408 30.3487 13.1469 31.0765 17.1552C31.8043 21.1634 32.4102 22.4253 33.3603 22.4182C34.3103 22.411 34.6975 13.8891 30.0046 9.74463L28.2837 11.5408Z" fill="#AD6A21"/>
<path d="M3.40278 21.2674C3.40278 21.2674 4.67192 23.3145 6.62942 22.472C8.58692 21.6295 8.97412 11.3078 8.97412 11.3078C8.97412 11.3078 17.557 13.2438 24.7847 12.7957L22.7913 10.9171C22.7913 10.9171 29.7752 13.8856 34.7012 8.88427C32.685 6.91509 30.1881 5.50843 27.4592 4.80436L30.0836 4.3347C30.0836 4.3347 29.5565 2.77157 23.7199 1.05069C17.8832 -0.670185 9.43302 0.835583 7.17078 7.20642C7.17078 7.20642 1.95437 9.30732 3.40278 21.2674Z" fill="#C97B27"/>
<path d="M12.2041 31.3843C12.5626 32.8183 13.4051 37.013 19.0518 37.583C25.3079 38.214 27.8713 32.6319 27.8713 32.6319C18.4244 33.4852 12.2041 31.3843 12.2041 31.3843Z" fill="#FCFFFF"/>
<path d="M20.9057 24.9023C20.9057 24.9023 21.2176 27.9569 24.7812 29.036C24.7812 29.036 23.5049 31.2373 20.9057 30.8286C20.9057 30.8286 21.5295 30.549 22.2465 29.3623C22.2465 29.3444 20.3285 27.9139 20.9057 24.9023Z" fill="#DBB08A"/>
<path d="M17.4819 16.6963C16.2643 16.6503 15.045 16.6862 13.8322 16.8038C13.2478 16.8782 12.67 16.9981 12.1042 17.1624C11.528 17.3623 10.9712 17.6143 10.4407 17.9152C10.8085 17.382 11.3007 16.9464 11.8747 16.6461C12.4598 16.3596 13.0888 16.173 13.7354 16.094C14.3748 16.0215 15.0209 16.0336 15.6571 16.1298C16.2923 16.2176 16.9087 16.4089 17.4819 16.6963Z" fill="#AD6A22"/>
<path d="M24.2971 17.331C24.7626 16.9926 25.29 16.7489 25.8495 16.6139C26.4127 16.4724 26.9948 16.4216 27.574 16.4634C28.1565 16.5023 28.7267 16.6494 29.2554 16.8972C29.7825 17.1359 30.2493 17.49 30.6213 17.9333C30.1127 17.7345 29.5932 17.5645 29.0654 17.4242C28.5588 17.2956 28.0416 17.2128 27.5202 17.1768C26.9925 17.1427 26.4632 17.1427 25.9355 17.1768C25.4013 17.2091 24.8492 17.2629 24.2971 17.331Z" fill="#AD6A22"/>
<path d="M18.3959 24.9816C18.3959 24.9816 17.9155 19.7329 14.1546 19.7329C10.3938 19.7329 10.2576 24.9816 10.2576 24.9816C10.2576 24.9816 14.1941 26.9032 18.3959 24.9816Z" fill="#FCFFFF"/>
<path d="M18.3958 24.9818C18.2739 24.3862 18.1012 23.802 17.8796 23.2358C17.6706 22.6784 17.3962 22.1476 17.0621 21.6548C16.7419 21.1729 16.3227 20.7647 15.8324 20.4573C15.5894 20.3164 15.3307 20.2045 15.0616 20.1239C14.7872 20.0548 14.5057 20.0175 14.2227 20.0128C13.6569 19.9871 13.0953 20.1213 12.6022 20.4C12.1077 20.6917 11.6937 21.102 11.3976 21.5938C11.0894 22.1007 10.8483 22.6454 10.6805 23.2143C10.4931 23.7988 10.3576 24.3987 10.2754 25.0069C10.2151 23.7562 10.4833 22.5115 11.0534 21.3967C11.3577 20.8179 11.8091 20.3295 12.362 19.9805C12.9324 19.6412 13.588 19.472 14.2514 19.4929C14.5801 19.5009 14.9066 19.5503 15.2229 19.6399C15.5388 19.7334 15.8404 19.8697 16.1192 20.0451C16.6585 20.4054 17.1074 20.885 17.4314 21.4469C18.0391 22.5278 18.3704 23.7421 18.3958 24.9818Z" fill="#AD6A22"/>
<path d="M13.9611 21.5288C14.2658 21.5288 14.5347 21.8228 14.696 22.2674L14.3375 22.7836L14.8609 23.0238C14.8609 23.0955 14.8609 23.1708 14.8609 23.2461C14.8609 24.1926 14.4594 24.9598 13.9646 24.9598C13.4699 24.9598 13.0684 24.1926 13.0684 23.2461C13.0684 22.2996 13.4663 21.5288 13.9611 21.5288Z" fill="#633424"/>
<path d="M31.0624 24.4438C31.0624 24.4438 30.7039 19.6289 27.2729 19.6289C23.8419 19.6289 23.72 24.433 23.72 24.433C23.72 24.433 27.2514 26.1718 31.0624 24.4438Z" fill="#FCFFFF"/>
<path d="M31.0622 24.4437C30.9575 23.8999 30.8064 23.3662 30.6105 22.8483C30.4304 22.3429 30.1897 21.8614 29.8934 21.4142C29.6032 20.9835 29.2273 20.6174 28.7892 20.3386C28.3454 20.0852 27.8446 19.9483 27.3336 19.9407C26.8228 19.9278 26.3178 20.0515 25.8709 20.2992C25.4345 20.5704 25.0665 20.9384 24.7953 21.3748C24.507 21.8342 24.2803 22.3296 24.1213 22.8483C23.9488 23.3754 23.8217 23.9164 23.7413 24.4652C23.6776 23.3228 23.9163 22.1839 24.4332 21.1632C24.7144 20.6345 25.1237 20.1846 25.6235 19.8546C26.1482 19.5473 26.7471 19.3898 27.3551 19.3993C27.9628 19.4164 28.5556 19.5906 29.076 19.9048C29.548 20.2384 29.9409 20.6717 30.2268 21.174C30.7761 22.1762 31.0635 23.3008 31.0622 24.4437Z" fill="#AD6A22"/>
<path d="M27.0543 21.2676C27.3304 21.2676 27.5778 21.5329 27.7247 21.9416L27.5706 22.4148L27.8646 22.6335C27.8646 22.6981 27.8646 22.7662 27.8646 22.8343C27.8646 23.7019 27.5061 24.4046 27.0472 24.4046C26.5883 24.4046 26.2297 23.6876 26.2297 22.8343C26.2297 21.981 26.6026 21.2676 27.0543 21.2676Z" fill="#633424"/>
<path d="M40.4649 49.2385C37.4372 48.5261 39.1095 39.7521 40.3888 35.2002C40.2493 35.5731 40.5657 33.3799 42.7357 21.9895C45.8072 5.86712 62.9454 10.1815 67.2598 13.5877C71.5743 16.9938 79.2948 46.9678 76.1158 48.1031C72.9367 49.2385 44.3252 50.1468 40.4649 49.2385Z" fill="#363636"/>
<path d="M43.5039 30.1545C43.5039 30.1545 41.4424 26.3255 38.6675 28.1826C36.1579 29.8497 39.0942 39.3253 43.2673 36.3389L43.5039 30.1545Z" fill="#FFC999"/>
<path d="M42.6829 30.6031C42.6829 30.6031 41.2022 27.5127 39.2447 28.9934C37.4844 30.3199 39.6247 37.2393 42.5681 34.8551L42.6829 30.6031Z" fill="#E6B58C"/>
<path d="M40.6431 32.2523C40.6147 32.4802 40.6572 32.7114 40.7647 32.9143C40.8723 33.1172 41.0397 33.2822 41.2442 33.3867C41.4487 33.4911 41.6805 33.5301 41.9079 33.4983C42.1354 33.4665 42.3476 33.3655 42.5156 33.2089C42.6837 33.0524 42.7994 32.8479 42.8472 32.6232C42.895 32.3985 42.8724 32.1646 42.7826 31.9532C42.6928 31.7418 42.5402 31.5632 42.3453 31.4416C42.1505 31.32 41.9229 31.2613 41.6935 31.2736C41.4249 31.2658 41.1641 31.3641 40.9674 31.5473C40.7708 31.7305 40.6543 31.9838 40.6431 32.2523Z" fill="#FFC999"/>
<path d="M39.6426 29.226C38.567 30.0398 38.818 33.0011 39.9294 34.6037C38.6101 33.1194 38.0938 29.8641 39.2446 28.9965C39.5432 28.7377 39.9251 28.5952 40.3202 28.5952C40.7153 28.5952 41.0972 28.7377 41.3957 28.9965C41.1131 28.859 40.7964 28.8075 40.4847 28.8483C40.1731 28.8891 39.8803 29.0204 39.6426 29.226Z" fill="#D1A57F"/>
<path d="M73.1533 28.1973C70.3748 26.3402 68.3169 30.1691 68.3169 30.1691L68.5499 36.3535C72.7231 39.34 75.645 29.8644 73.1533 28.1973Z" fill="#E6B58C"/>
<path d="M68.6719 20.898C69.5359 23.3896 70.0808 26.8099 70.7047 30.0365C71.307 33.1628 73.1246 43.5418 63.3443 47.3457C53.564 51.1496 44.5975 45.571 42.7296 38.8094C40.5965 31.1945 41.629 26.4872 43.4108 21.5505C45.7555 15.0577 51.1619 12.8636 56.848 12.8027C62.3225 12.7453 66.8363 15.4198 68.6719 20.898Z" fill="#FFC999"/>
<path d="M49.1755 39.2354C49.6732 40.6273 50.9236 44.7189 56.5989 44.7315C62.8868 44.745 64.8895 38.9381 64.8895 38.9381C55.5721 40.7151 49.1755 39.2354 49.1755 39.2354Z" fill="#FCFFFF"/>
<path d="M58.4195 31.981C58.4195 31.981 58.1076 35.0355 54.544 36.1146C54.544 36.1146 55.8203 38.3159 58.4195 37.9072C58.4195 37.9072 57.7957 37.6276 57.0787 36.4409C57.0787 36.423 58.9967 34.9925 58.4195 31.981Z" fill="#DBB08A"/>
<path d="M54.7217 23.7627C53.5041 23.7167 52.2848 23.7526 51.072 23.8703C50.4875 23.9446 49.9097 24.0645 49.3439 24.2288C48.7677 24.4287 48.2109 24.6807 47.6804 24.9817C48.0482 24.4484 48.5404 24.0128 49.1145 23.7125C49.6996 23.426 50.3285 23.2394 50.9752 23.1604C51.6145 23.0879 52.2606 23.1 52.8968 23.1962C53.532 23.284 54.1485 23.4753 54.7217 23.7627Z" fill="#363636"/>
<path d="M61.5374 24.3974C62.0028 24.059 62.5303 23.8153 63.0897 23.6804C63.6529 23.5388 64.235 23.488 64.8142 23.5298C65.3968 23.5687 65.967 23.7158 66.4956 23.9636C67.0228 24.2023 67.4896 24.5564 67.8616 24.9997C67.3529 24.8009 66.8334 24.6309 66.3056 24.4906C65.799 24.362 65.2818 24.2792 64.7604 24.2432C64.2327 24.2091 63.7034 24.2091 63.1758 24.2432C62.6416 24.2755 62.0895 24.3293 61.5374 24.3974Z" fill="#363636"/>
<path d="M55.6361 32.0475C55.6361 32.0475 55.1557 26.7988 51.3949 26.7988C47.634 26.7988 47.4978 32.0475 47.4978 32.0475C47.4978 32.0475 51.4343 33.9692 55.6361 32.0475Z" fill="#FCFFFF"/>
<path d="M55.6361 32.0477C55.5141 31.4521 55.3414 30.8679 55.1198 30.3018C54.9108 29.7443 54.6364 29.2136 54.3024 28.7207C53.9821 28.2388 53.5629 27.8306 53.0727 27.5233C52.8297 27.3823 52.571 27.2704 52.3018 27.1898C52.0274 27.1207 51.7459 27.0834 51.4629 27.0787C50.8971 27.053 50.3355 27.1872 49.8424 27.4659C49.348 27.7576 48.934 28.1679 48.6378 28.6598C48.3296 29.1666 48.0886 29.7113 47.9208 30.2803C47.7334 30.8647 47.5978 31.4646 47.5157 32.0728C47.4553 30.8221 47.7235 29.5774 48.2936 28.4626C48.598 27.8839 49.0493 27.3955 49.6022 27.0464C50.1727 26.7071 50.8282 26.5379 51.4916 26.5589C51.8204 26.5668 52.1468 26.6162 52.4632 26.7058C52.7791 26.7993 53.0806 26.9356 53.3595 27.111C53.8987 27.4713 54.3477 27.951 54.6716 28.5128C55.2793 29.5937 55.6106 30.808 55.6361 32.0477Z" fill="#363636"/>
<path d="M51.2013 28.5952C51.506 28.5952 51.7749 28.8892 51.9363 29.3338L51.5777 29.85L52.1012 30.0902C52.1012 30.1619 52.1012 30.2372 52.1012 30.3125C52.1012 31.259 51.6996 32.0262 51.2049 32.0262C50.7101 32.0262 50.3086 31.259 50.3086 30.3125C50.3086 29.366 50.7065 28.5952 51.2013 28.5952Z" fill="#243663"/>
<path d="M68.3026 31.5102C68.3026 31.5102 67.9441 26.6953 64.5131 26.6953C61.0821 26.6953 60.9602 31.4994 60.9602 31.4994C60.9602 31.4994 64.4916 33.2382 68.3026 31.5102Z" fill="#FCFFFF"/>
<path d="M68.3024 31.5101C68.1977 30.9663 68.0466 30.4326 67.8507 29.9147C67.6707 29.4094 67.4299 28.9278 67.1337 28.4806C66.8435 28.05 66.4676 27.6838 66.0294 27.4051C65.5856 27.1516 65.0849 27.0147 64.5738 27.0071C64.063 26.9942 63.558 27.1179 63.1111 27.3656C62.6747 27.6368 62.3067 28.0048 62.0356 28.4412C61.7472 28.9006 61.5206 29.396 61.3615 29.9147C61.189 30.4418 61.0619 30.9828 60.9815 31.5316C60.9179 30.3892 61.1565 29.2503 61.6734 28.2296C61.9547 27.7009 62.3639 27.251 62.8637 26.9211C63.3884 26.6137 63.9874 26.4562 64.5954 26.4657C65.203 26.4828 65.7959 26.657 66.3162 26.9712C66.7882 27.3049 67.1811 27.7381 67.4671 28.2404C68.0164 29.2426 68.3037 30.3672 68.3024 31.5101Z" fill="#363636"/>
<path d="M64.2941 28.3335C64.5701 28.3335 64.8175 28.5988 64.9645 29.0075L64.8103 29.4807L65.1043 29.6994C65.1043 29.764 65.1043 29.8321 65.1043 29.9002C65.1043 30.7678 64.7458 31.4705 64.2869 31.4705C63.828 31.4705 63.4695 30.7535 63.4695 29.9002C63.4695 29.0469 63.8423 28.3335 64.2941 28.3335Z" fill="#243663"/>
<path d="M62.9456 17.4476C64.5805 17.4476 68.7738 22.4433 70.6661 24.9411V21.3079C69.7578 20.0211 66.9421 16.4939 62.9456 12.679C57.9499 7.91044 46.5961 14.7227 46.142 14.9498C45.7787 15.1314 43.7198 20.1725 42.7358 22.6703C44.6281 22.3676 48.8669 21.6712 50.6835 21.3079C52.9542 20.8537 60.9019 17.4476 62.9456 17.4476Z" fill="#363636"/>
<path d="M42.2818 38.5663C42.2818 37.113 44.0984 26.4556 45.0068 21.3085L46.1422 17.4482C44.8554 18.735 42.1456 21.6264 41.6006 22.8981C40.9194 24.4876 41.6006 31.2998 41.6006 32.4352C41.6006 33.5706 41.8277 36.7497 41.6006 38.5663C41.3735 40.3829 42.2818 40.3829 42.2818 38.5663Z" fill="#363636"/>
</svg>
