<svg width="104" height="77" viewBox="0 0 104 77" fill="none" xmlns="http://www.w3.org/2000/svg">
<path d="M103.384 70.7456C69.353 51.5362 35.3223 89.9243 1.32227 70.7456V6.73473C35.3223 25.9441 69.353 -12.4747 103.384 6.73473V70.7456Z" fill="white"/>
<path d="M1.32227 38.6474C35.353 57.8568 69.353 19.438 103.384 38.6474V6.73406C69.353 -12.4753 35.353 25.9128 1.32227 6.73406V38.6474Z" fill="#E22B2B"/>
<path style="mix-blend-mode:multiply" d="M102.586 27.3854V48.8655V70.3456C68.5857 51.2283 34.5858 89.555 0.616455 70.3456V6.24276C34.5858 25.4521 68.5857 -12.9053 102.586 6.24276V27.3854Z" fill="url(#paint0_linear_482_5563)"/>
<path style="mix-blend-mode:overlay" opacity="0.25" d="M102.586 27.3854V48.8655V70.3456C68.5857 51.2283 34.5858 89.555 0.616455 70.3456V6.24276C34.5858 25.4521 68.5857 -12.9053 102.586 6.24276V27.3854Z" fill="url(#paint1_linear_482_5563)"/>
<defs>
<linearGradient id="paint0_linear_482_5563" x1="0.585769" y1="38.2482" x2="102.586" y2="38.2482" gradientUnits="userSpaceOnUse">
<stop stop-color="white"/>
<stop offset="0.13" stop-color="#F7F7F7"/>
<stop offset="0.34" stop-color="#E0E0E1"/>
<stop offset="0.54" stop-color="#C4C5C6"/>
<stop offset="0.57" stop-color="#C1C2C3"/>
<stop offset="0.69" stop-color="#BEBFC0"/>
<stop offset="0.91" stop-color="white"/>
</linearGradient>
<linearGradient id="paint1_linear_482_5563" x1="0.585769" y1="38.2482" x2="102.586" y2="38.2482" gradientUnits="userSpaceOnUse">
<stop stop-color="white"/>
<stop offset="0.13" stop-color="#F7F7F7"/>
<stop offset="0.34" stop-color="#E0E0E1"/>
<stop offset="0.54" stop-color="#C4C5C6"/>
<stop offset="0.57" stop-color="#C1C2C3"/>
<stop offset="0.69" stop-color="#BEBFC0"/>
<stop offset="0.91" stop-color="white"/>
</linearGradient>
</defs>
</svg>
