<svg width="104" height="77" viewBox="0 0 104 77" fill="none" xmlns="http://www.w3.org/2000/svg">
<path d="M103.077 6.58797V70.5988C69.0458 51.4201 35.0151 89.8081 1.01514 70.5988V6.68002C35.0151 25.7974 69.0458 -12.5907 103.077 6.58797Z" fill="#2E4593"/>
<path d="M103.077 63.9089V70.5984C99.7501 68.7034 96.177 67.2783 92.4594 66.3637C83.2228 58.4573 72.5562 52.3949 61.037 48.5046L57.9684 47.3692L54.2554 46.0497L52.9972 45.6201L49.2536 44.3313L47.842 43.8403L46.676 43.4414L44.2825 42.5822L43.5153 42.306L42.3799 41.8764C38.6669 40.4956 34.9539 38.9613 31.2409 37.1508C29.5839 36.3529 27.9269 35.4938 26.2391 34.5732C16.5782 29.1205 8.01471 21.92 0.984619 13.3385V6.67969L1.19942 6.92513C4.45106 8.73636 7.92838 10.1088 11.5406 11.0064C20.9234 19.011 31.7579 25.1366 43.4539 29.0497L46.5225 30.1851L47.351 30.4919L52.3528 32.2104L52.8438 32.3945L54.777 33.0696L57.8456 34.1129L58.3366 34.297L60.9756 35.2483L63.5225 36.2302C65.824 37.1201 68.0947 38.0714 70.3962 39.1147C72.0839 39.8512 73.7409 40.6796 75.398 41.5388C86.0194 47.0817 95.429 54.6866 103.077 63.9089Z" fill="#FCF5FF"/>
<path d="M103.077 70.415V70.814C100.881 69.6098 98.5929 68.5836 96.2336 67.7454C86.251 58.0641 74.2384 50.7266 61.0675 46.2652L57.9989 45.1912L54.9303 44.1479L53.0891 43.5035L49.7751 42.3374L46.7065 41.2634L46.2462 41.11L44.313 40.4042L43.5458 40.128C40.7534 39.1154 37.9303 38.0107 35.1072 36.7833C33.4501 36.0468 31.7931 35.249 30.1361 34.4205C18.8906 28.8183 8.96425 20.8897 1.01514 11.1605V6.77246L1.22994 7.01791C10.8147 18.6066 23.1612 27.5974 37.1325 33.1624C38.7895 33.8375 40.4772 34.5125 42.1343 35.1262L43.4845 35.6172L46.553 36.7526L47.7191 37.1822L49.6523 37.8573L53.1812 39.0847L57.8455 40.6804L58.3364 40.8645L60.0548 41.4782L60.9754 41.8464L65.0566 43.4115C79.8789 48.9225 92.9908 58.2352 103.077 70.415Z" fill="#F42525"/>
<path d="M103.077 7.84603V14.5048C94.6496 15.5153 86.6267 18.6864 79.7861 23.7106C78.129 24.8153 76.4413 25.9813 74.7843 27.2395C71.0713 29.9705 67.3583 33.0391 63.6453 36.2611L61.0983 38.4705L58.4593 40.8027L57.9684 41.2937L56.7716 42.337L54.9305 44.0247L52.9972 45.7431L51.7698 46.8785L46.676 51.512L43.6074 54.3045C33.6344 63.142 23.6615 71.1817 13.6886 75.4777C9.23026 74.6177 4.94028 73.0427 0.984619 70.8135V65.3821C10.8041 64.7377 20.6543 59.2449 30.5045 51.8189C32.1615 50.5608 33.8492 49.2106 35.5063 47.8604C37.8077 45.9886 40.0785 44.0247 42.3799 41.9994L43.5153 40.9868L44.2825 40.281L46.676 38.1636L47.842 37.1203L52.9972 32.4254L53.5189 31.9651C54.9918 30.6149 56.5875 29.2648 57.9684 27.9453L58.5207 27.4543L61.0983 25.1528C72.2066 15.3333 83.3149 6.74132 94.4232 3.02832C97.1386 3.8347 99.7613 4.92495 102.248 6.28102L103.077 7.84603Z" fill="#FCF5FF"/>
<path d="M102.801 8.03026C91.6922 8.8281 80.5532 15.7631 69.4449 24.7847C67.7572 26.1349 66.1001 27.5157 64.4431 28.958C63.3077 29.9093 62.203 30.8912 61.0983 31.8732L58.4593 34.2053L57.9684 34.6656L53.3041 38.9003C52.1074 39.9436 50.9413 41.0176 49.7752 41.9689L47.842 43.718L46.676 44.7613L46.4305 44.976L43.5153 47.5844L41.4287 49.4255C28.694 60.5338 15.99 69.9851 3.25538 71.7649C2.48823 71.3967 1.72108 70.9978 0.984619 70.5682V67.4996C12.0929 66.7631 23.2319 59.8895 34.3402 50.8985C36.0279 49.5483 37.685 48.1674 39.342 46.7252C40.9991 45.2829 42.1344 44.301 43.5153 43.0735L44.2825 42.3984L46.2157 40.68L46.676 40.2811L49.7445 37.4888L54.8998 32.9779L57.324 30.7685L57.9377 30.2468L61.0063 27.4237L62.2644 26.319C74.2319 15.8551 86.1994 6.83348 98.1669 4.25586C99.333 4.74683 100.53 5.29921 101.726 5.91293L102.985 6.58802V7.99955L102.801 8.03026Z" fill="#F42525"/>
<path d="M103.107 46.6948C69.046 27.424 34.9539 65.9655 0.892578 46.6948V29.1424C34.9539 48.3825 69.046 9.87165 103.107 29.1424V46.6948Z" fill="white"/>
<path d="M103.107 43.5647C69.046 24.2939 34.9539 62.8048 0.892578 43.5647V32.2723C34.9539 51.5124 69.046 13.0015 103.107 32.2723V43.5647Z" fill="#F42525"/>
<path d="M57.9682 4.96191V68.9727C54.1938 69.9853 50.4195 71.09 46.6758 72.0413V8.12256C50.4195 7.07924 54.1938 5.97455 57.9682 4.96191Z" fill="#CD002A"/>
<path d="M57.9681 45.0372L61.0367 44.2086V68.1437C55.1757 69.6473 49.3147 71.4578 43.4844 72.9614V49.0263L46.553 48.1978V30.6148L43.4844 31.474V8.95052C49.3147 7.44691 55.1757 5.63642 61.0367 4.13281V26.6563L57.9681 27.4848V45.0372Z" fill="white"/>
<path d="M57.9684 4.96191V68.9727C54.1633 69.9853 50.3583 71.09 46.5532 72.0413V8.12256C50.389 7.07924 54.194 5.97455 57.9684 4.96191Z" fill="#F42525"/>
<path style="mix-blend-mode:multiply" d="M102.923 27.5163V48.9964V70.4765C68.9232 51.3592 34.9232 89.6859 0.984619 70.4765V6.37362C34.9232 25.583 68.9232 -12.7744 102.923 6.37362V27.4241V27.5163Z" fill="url(#paint0_linear_482_6158)"/>
<path style="mix-blend-mode:overlay" opacity="0.25" d="M102.923 27.5163V48.9964V70.4765C68.9232 51.3592 34.9232 89.6859 0.984619 70.4765V6.37362C34.9232 25.583 68.9232 -12.7744 102.923 6.37362V27.4241V27.5163Z" fill="url(#paint1_linear_482_6158)"/>
<defs>
<linearGradient id="paint0_linear_482_6158" x1="0.953933" y1="38.4711" x2="102.923" y2="38.4711" gradientUnits="userSpaceOnUse">
<stop stop-color="white"/>
<stop offset="0.13" stop-color="#F7F7F7"/>
<stop offset="0.34" stop-color="#E0E0E1"/>
<stop offset="0.54" stop-color="#C4C5C6"/>
<stop offset="0.57" stop-color="#C1C2C3"/>
<stop offset="0.69" stop-color="#BEBFC0"/>
<stop offset="0.91" stop-color="white"/>
</linearGradient>
<linearGradient id="paint1_linear_482_6158" x1="0.953933" y1="38.4711" x2="102.923" y2="38.4711" gradientUnits="userSpaceOnUse">
<stop stop-color="white"/>
<stop offset="0.13" stop-color="#F7F7F7"/>
<stop offset="0.34" stop-color="#E0E0E1"/>
<stop offset="0.54" stop-color="#C4C5C6"/>
<stop offset="0.57" stop-color="#C1C2C3"/>
<stop offset="0.69" stop-color="#BEBFC0"/>
<stop offset="0.91" stop-color="white"/>
</linearGradient>
</defs>
</svg>
