<svg width="102" height="77" viewBox="0 0 102 77" fill="none" xmlns="http://www.w3.org/2000/svg">
<path d="M101.969 70.7367C67.9693 51.558 33.9693 89.9461 0 70.7367V6.75652C33.9693 25.9352 67.9693 -12.4529 101.969 6.75652V70.7367Z" fill="white"/>
<path d="M74.6283 33.5154C74.6283 46.4035 64.0417 58.371 50.9695 62.3909C37.8973 66.4108 27.3413 57.205 27.3413 43.9793C27.3413 30.7537 37.928 19.1237 50.9695 15.1039C64.011 11.084 74.6283 20.2898 74.6283 33.5154Z" fill="#DB2E2E"/>
<path style="mix-blend-mode:multiply" d="M102 27.3775V48.8577V70.3378C68.0001 51.2205 34.0001 89.5472 0.0307617 70.3378V6.23494C34.0001 25.4443 68.0001 -12.9131 102 6.23494V27.3775Z" fill="url(#paint0_linear_482_2899)"/>
<path style="mix-blend-mode:overlay" opacity="0.25" d="M102 27.3775V48.8577V70.3378C68.0001 51.2205 34.0001 89.5472 0.0307617 70.3378V6.23494C34.0001 25.4443 68.0001 -12.9131 102 6.23494V27.3775Z" fill="url(#paint1_linear_482_2899)"/>
<defs>
<linearGradient id="paint0_linear_482_2899" x1="7.57955e-05" y1="38.2404" x2="102" y2="38.2404" gradientUnits="userSpaceOnUse">
<stop stop-color="white"/>
<stop offset="0.13" stop-color="#F7F7F7"/>
<stop offset="0.34" stop-color="#E0E0E1"/>
<stop offset="0.54" stop-color="#C4C5C6"/>
<stop offset="0.57" stop-color="#C1C2C3"/>
<stop offset="0.69" stop-color="#BEBFC0"/>
<stop offset="0.91" stop-color="white"/>
</linearGradient>
<linearGradient id="paint1_linear_482_2899" x1="7.57955e-05" y1="38.2404" x2="102" y2="38.2404" gradientUnits="userSpaceOnUse">
<stop stop-color="white"/>
<stop offset="0.13" stop-color="#F7F7F7"/>
<stop offset="0.34" stop-color="#E0E0E1"/>
<stop offset="0.54" stop-color="#C4C5C6"/>
<stop offset="0.57" stop-color="#C1C2C3"/>
<stop offset="0.69" stop-color="#BEBFC0"/>
<stop offset="0.91" stop-color="white"/>
</linearGradient>
</defs>
</svg>
