<svg width="104" height="77" viewBox="0 0 104 77" fill="none" xmlns="http://www.w3.org/2000/svg">
<path d="M103.337 70.7367C69.3375 51.558 35.3375 89.9461 1.36816 70.7367V6.75652C35.3375 25.9352 69.3375 -12.4529 103.337 6.75652V70.7367Z" fill="white"/>
<path d="M14.8391 26.4877C18.5949 23.3254 22.1607 19.944 25.5178 16.3613C26.285 17.1285 27.0828 17.8342 27.8806 18.5707C24.518 22.2922 20.9638 25.8361 17.2326 29.188C16.4348 28.3288 15.6369 27.3776 14.8391 26.4877Z" fill="#28292B"/>
<path d="M18.2761 30.4468C21.8357 27.1941 25.3646 23.5425 28.9241 19.584L31.3176 21.6706C27.7581 25.7519 24.1985 29.5569 20.6389 32.963C19.8411 32.1345 19.0433 31.306 18.2761 30.4468Z" fill="#28292B"/>
<path d="M21.5901 33.9756C25.1497 30.4774 28.7092 26.6109 32.2688 22.499L34.6623 24.4936C31.1027 28.6976 27.5432 32.7174 23.9836 36.369L21.5901 33.9756Z" fill="#28292B"/>
<path d="M75.9043 46.4347C77.2852 44.9004 78.6967 43.3661 80.0776 41.9238L82.4711 44.2866C81.0595 45.6675 79.6787 47.1404 78.2671 48.6133L75.9043 46.4347Z" fill="#28292B"/>
<path d="M71.7924 55.8544L69.3989 53.9212C70.7798 52.2641 72.13 50.6685 73.5108 49.1035L75.9043 51.1901C74.5235 52.7244 73.1733 54.2894 71.7924 55.8544Z" fill="#28292B"/>
<path d="M79.3716 49.6249C80.7524 48.1826 82.1333 46.7711 83.5142 45.4209L85.9077 47.9371C84.5268 49.2259 83.1153 50.5761 81.7344 51.957L79.3716 49.6249Z" fill="#28292B"/>
<path d="M75.2292 58.8921L72.8357 56.8054C74.2166 55.2405 75.5974 53.7369 76.9783 52.1719L79.3718 54.4119C77.9909 55.8542 76.6101 57.3578 75.2292 58.8921Z" fill="#28292B"/>
<path d="M85.0791 55.3934L82.7163 52.9079C84.0972 51.5577 85.4473 50.2382 86.8282 49.0107L89.2217 51.6804C87.8409 52.8465 86.552 54.1046 85.0791 55.3934Z" fill="#28292B"/>
<path d="M78.5739 61.9602L76.1804 59.7508C77.5613 58.2472 78.9421 56.6822 80.323 55.332C81.1208 56.0992 81.9187 56.8663 82.7165 57.6949C81.3356 59.045 79.9548 60.4873 78.5739 61.9602Z" fill="#28292B"/>
<path d="M85.3862 11.5752C86.7671 13.0788 88.1786 14.6438 89.5902 16.2701C88.7923 16.9145 87.9945 17.6203 87.2273 18.3261C85.8158 16.7611 84.4042 15.2575 82.9927 13.8459C83.7905 13.0481 84.5884 12.3117 85.3862 11.5752Z" fill="#28292B"/>
<path d="M76.4873 7.586C77.2851 6.72679 78.0523 5.86758 78.8501 5.03906C80.231 6.32787 81.6118 7.67804 82.9927 9.05891C82.1949 9.85674 81.397 10.6239 80.5992 11.4524C79.2183 10.1329 77.8682 8.96687 76.4873 7.586Z" fill="#28292B"/>
<path d="M72.989 11.4513L75.3825 8.75098C76.7634 9.97841 78.1442 11.2672 79.5251 12.5867C80.3229 13.3232 81.1208 14.121 81.9186 14.9189C83.2995 16.2997 84.711 17.7419 86.0919 19.2456L83.7291 21.4856C82.3175 20.0434 80.9367 18.6625 79.5251 17.343L77.1623 15.103C75.7814 13.8448 74.2778 12.6174 72.989 11.4513Z" fill="#28292B"/>
<path d="M76.2109 20.9024L78.6045 18.3555C79.9956 19.6443 81.3764 20.9945 82.7471 22.406L80.3842 24.7995C79.0034 23.4494 77.5918 22.1605 76.2109 20.9024Z" fill="#28292B"/>
<path d="M69.6445 15.3188L72.0074 12.5264C73.4189 13.6924 74.7998 14.9198 76.2113 16.1473L73.8178 18.817C72.437 17.6202 71.0254 16.4542 69.6445 15.3188Z" fill="#28292B"/>
<path d="M21.7434 55.21L24.1062 52.8164C25.4769 54.1461 26.8577 55.435 28.2488 56.6829L30.6116 58.8002C32.0232 59.9969 33.4348 61.1937 34.8463 62.3291L32.4835 65.1215L28.2488 61.4392C27.451 60.7436 26.6532 60.0072 25.8553 59.2298C24.4745 58.0637 23.0936 56.5908 21.7434 55.21Z" fill="#28292B"/>
<path d="M27.175 62.6055C28.5559 63.8943 29.9674 65.1217 31.3483 66.3185C30.5504 67.2084 29.7833 68.1289 28.9854 68.9881C27.5739 67.7607 26.193 66.4719 24.7815 65.1217L27.175 62.6055Z" fill="#28292B"/>
<path d="M18.2456 58.432C19.0434 57.7263 19.8413 56.9591 20.6084 56.2227C22.02 57.6649 23.4008 59.0458 24.7817 60.3653L22.4189 62.7894C21.0073 61.3779 19.6265 59.9357 18.2456 58.432Z" fill="#28292B"/>
<path d="M14.9006 61.3167L17.2634 59.2607C18.675 60.8257 20.0559 62.3294 21.4674 63.7409C22.2346 64.5387 23.0324 65.3365 23.8302 66.1037C25.2418 67.4846 26.6226 68.7734 28.0035 70.0315C27.2057 70.8907 26.4385 71.7499 25.6407 72.5784C24.2292 71.2589 22.8483 69.9087 21.4674 68.4972L19.0739 65.981C17.6931 64.4774 16.2815 62.943 14.9006 61.3167Z" fill="#28292B"/>
<path d="M70.7489 33.699C70.7489 43.672 62.6171 53.338 52.6135 56.3145C50.4943 57.1043 48.211 57.3504 45.9721 57.0303C43.7333 56.7101 41.6104 55.834 39.7975 54.4819C37.9845 53.1299 36.5394 51.345 35.5941 49.2904C34.6488 47.2359 34.2334 44.9771 34.3861 42.7207C34.3861 32.7785 42.5178 23.051 52.5521 20.0745C54.6723 19.2899 56.9552 19.049 59.1923 19.3737C61.4295 19.6984 63.5497 20.5784 65.3593 21.9333C67.1689 23.2882 68.6103 25.0749 69.5518 27.1302C70.4932 29.1854 70.9048 31.4438 70.7489 33.699Z" fill="#2E4593"/>
<path d="M70.6569 33.7296C70.6567 34.5921 70.5952 35.4535 70.4728 36.3072C69.9512 32.8397 67.9873 26.5184 60.5613 28.2982C58.5903 28.675 56.7598 29.583 55.2672 30.9242C53.7746 32.2654 52.6767 33.9887 52.0919 35.9083C50.4349 40.4498 50.2508 45.6051 42.8862 47.5383C42.0262 47.9336 41.0865 48.1246 40.1405 48.0964C39.1945 48.0683 38.2678 47.8218 37.4329 47.3761C36.5979 46.9304 35.8774 46.2976 35.3276 45.5273C34.7777 44.7569 34.4135 43.8698 34.2634 42.9354V42.7206C34.2905 39.6229 35.0142 36.571 36.3808 33.7909C37.9828 30.5336 40.2322 27.6373 42.9917 25.2788C45.7511 22.9204 48.9624 21.1495 52.4295 20.0744C54.5538 19.2818 56.8432 19.0357 59.0874 19.3587C61.3317 19.6817 63.4588 20.5634 65.2734 21.9228C67.088 23.2823 68.5319 25.0758 69.4726 27.1388C70.4133 29.2018 70.8205 31.4681 70.6569 33.7296Z" fill="#DB2E2E"/>
<path style="mix-blend-mode:multiply" d="M102.632 27.3775V48.8577V70.3378C68.6317 51.2205 34.6317 89.5472 0.662354 70.3378V6.23494C34.6317 25.4443 68.6317 -12.9131 102.632 6.23494V27.3775Z" fill="url(#paint0_linear_482_5871)"/>
<path style="mix-blend-mode:overlay" opacity="0.25" d="M102.632 27.3775V48.8577V70.3378C68.6317 51.2205 34.6317 89.5472 0.662354 70.3378V6.23494C34.6317 25.4443 68.6317 -12.9131 102.632 6.23494V27.3775Z" fill="url(#paint1_linear_482_5871)"/>
<defs>
<linearGradient id="paint0_linear_482_5871" x1="0.631668" y1="38.2404" x2="102.632" y2="38.2404" gradientUnits="userSpaceOnUse">
<stop stop-color="white"/>
<stop offset="0.13" stop-color="#F7F7F7"/>
<stop offset="0.34" stop-color="#E0E0E1"/>
<stop offset="0.54" stop-color="#C4C5C6"/>
<stop offset="0.57" stop-color="#C1C2C3"/>
<stop offset="0.69" stop-color="#BEBFC0"/>
<stop offset="0.91" stop-color="white"/>
</linearGradient>
<linearGradient id="paint1_linear_482_5871" x1="0.631668" y1="38.2404" x2="102.632" y2="38.2404" gradientUnits="userSpaceOnUse">
<stop stop-color="white"/>
<stop offset="0.13" stop-color="#F7F7F7"/>
<stop offset="0.34" stop-color="#E0E0E1"/>
<stop offset="0.54" stop-color="#C4C5C6"/>
<stop offset="0.57" stop-color="#C1C2C3"/>
<stop offset="0.69" stop-color="#BEBFC0"/>
<stop offset="0.91" stop-color="white"/>
</linearGradient>
</defs>
</svg>
