<svg width="44" height="44" viewBox="0 0 44 44" fill="none" xmlns="http://www.w3.org/2000/svg">
<rect width="44" height="44" transform="translate(0.5)" fill="#EB5A1E"/>
<path d="M11.5 19.25C10.7707 19.25 10.0712 19.5397 9.55546 20.0555C9.03973 20.5712 8.75 21.2707 8.75 22C8.75 22.7293 9.03973 23.4288 9.55546 23.9445C10.0712 24.4603 10.7707 24.75 11.5 24.75C12.2293 24.75 12.9288 24.4603 13.4445 23.9445C13.9603 23.4288 14.25 22.7293 14.25 22C14.25 21.2707 13.9603 20.5712 13.4445 20.0555C12.9288 19.5397 12.2293 19.25 11.5 19.25ZM19.75 22C19.75 21.2707 20.0397 20.5712 20.5555 20.0555C21.0712 19.5397 21.7707 19.25 22.5 19.25C23.2293 19.25 23.9288 19.5397 24.4445 20.0555C24.9603 20.5712 25.25 21.2707 25.25 22C25.25 22.7293 24.9603 23.4288 24.4445 23.9445C23.9288 24.4603 23.2293 24.75 22.5 24.75C21.7707 24.75 21.0712 24.4603 20.5555 23.9445C20.0397 23.4288 19.75 22.7293 19.75 22ZM30.75 22C30.75 21.2707 31.0397 20.5712 31.5555 20.0555C32.0712 19.5397 32.7707 19.25 33.5 19.25C34.2293 19.25 34.9288 19.5397 35.4445 20.0555C35.9603 20.5712 36.25 21.2707 36.25 22C36.25 22.7293 35.9603 23.4288 35.4445 23.9445C34.9288 24.4603 34.2293 24.75 33.5 24.75C32.7707 24.75 32.0712 24.4603 31.5555 23.9445C31.0397 23.4288 30.75 22.7293 30.75 22Z" fill="white"/>
</svg>
