<svg width="92" height="105" viewBox="0 0 92 105" fill="none" xmlns="http://www.w3.org/2000/svg">
<path d="M91.9999 0.763672H0.135742V96.2796H91.9999V0.763672Z" fill="#81D2F6"/>
<path d="M82.703 12.0872H44.2168C44.2168 12.0872 43.8818 6.66811 50.0798 8.41863C53.1788 2.01125 66.161 0.97267 68.523 8.09198C73.5484 6.02319 74.7042 10.5209 74.7042 10.5209C74.7042 10.5209 79.8636 7.67319 82.703 12.0872Z" fill="white"/>
<g style="mix-blend-mode:soft-light">
<path d="M24.8744 25.8393C29.4537 21.2601 29.4537 13.8356 24.8744 9.25638C20.2952 4.67712 12.8707 4.67712 8.29147 9.25638C3.71222 13.8356 3.71222 21.2601 8.29147 25.8393C12.8707 30.4186 20.2952 30.4186 24.8744 25.8393Z" fill="white"/>
</g>
<path d="M19.5442 24.684C23.4845 23.0518 25.3557 18.5345 23.7235 14.5942C22.0914 10.6539 17.5741 8.78278 13.6338 10.4149C9.6935 12.047 7.82236 16.5644 9.45448 20.5046C11.0866 24.4449 15.6039 26.3161 19.5442 24.684Z" fill="#FEB300"/>
<path d="M22.0466 17.5488C22.0466 18.6289 21.7263 19.6847 21.1263 20.5827C20.5262 21.4808 19.6733 22.1807 18.6755 22.5941C17.6776 23.0074 16.5796 23.1155 15.5203 22.9048C14.461 22.6941 13.488 22.174 12.7242 21.4103C11.9605 20.6466 11.4404 19.6735 11.2297 18.6142C11.019 17.5549 11.1271 16.4569 11.5405 15.459C11.9538 14.4612 12.6537 13.6083 13.5518 13.0082C14.4498 12.4082 15.5056 12.0879 16.5857 12.0879C18.034 12.0879 19.423 12.6632 20.4472 13.6874C21.4713 14.7115 22.0466 16.1005 22.0466 17.5488Z" fill="#FFCF0B"/>
<path d="M91.9999 72.6438H0.135742V44.7696L15.3543 34.1325L17.9926 36.2683L38.1612 21.2926L41.0592 23.2693L44.912 20.6142L52.9442 26.7954L64.846 15.2119L83.7666 35.6485L86.941 32.9432L91.9999 37.6754V72.6438Z" fill="#113F7A"/>
<g style="mix-blend-mode:multiply" opacity="0.3">
<path d="M52.6011 77.0068V60.8334L61.965 73.0786L60.9014 78.4223H71.9907L66.446 67.8857L63.7072 49.8613L84.4369 81.1863" fill="#333E63"/>
</g>
<g style="mix-blend-mode:multiply" opacity="0.3">
<path d="M86.9411 32.9434L83.7668 35.6487L81.2457 41.9053L83.9427 43.9238L80.2239 55.9764L87.4521 47.6175L90.5008 36.2685L86.9411 32.9434Z" fill="#333E63"/>
</g>
<g style="mix-blend-mode:multiply" opacity="0.3">
<path d="M2.9165 73.0791L12.9841 60.1219L26.1255 45.7158L14.0142 72.2666L17.9927 72.6435L22.0884 62.3918L26.0584 72.0991" fill="#333E63"/>
</g>
<path d="M91.9999 96.28H0.135742V65.9601C36.6452 72.6606 58.1036 63.1291 91.9999 66.6553V96.28Z" fill="#60A78E"/>
<path d="M91.9999 83.4482H0.135742V96.2797H91.9999V83.4482Z" fill="#589882"/>
<path d="M86.9327 89.8808C86.9327 89.8808 68.6403 72.4678 46.0679 72.4678C23.4956 72.4678 5.20312 89.8808 5.20312 89.8808C5.20312 97.8125 23.4956 104.237 46.0679 104.237C68.6403 104.237 86.9327 97.8125 86.9327 89.8808Z" fill="#589882"/>
<g style="mix-blend-mode:multiply" opacity="0.3">
<path d="M17.9928 36.2677L14.6676 40.3047L12.9841 53.1195L31.7958 30.6308L33.6804 34.1319L43.103 26.7194L41.0593 23.2686L38.1613 21.292L17.9928 36.2677Z" fill="#333E63"/>
</g>
<g style="mix-blend-mode:multiply" opacity="0.3">
<path d="M64.8461 15.2119L52.9443 26.7954L48.9072 39.6604L55.3397 31.4021L65.2984 34.7942V29.7018L60.8509 26.896L64.8461 15.2119Z" fill="#333E63"/>
</g>
<path d="M64.8461 15.2119L58.5979 21.2926L62.5261 22.0129L68.6989 26.6112L68.8413 22.1386L71.9906 22.9259L64.8461 15.2119Z" fill="white"/>
<path d="M38.1612 21.292L33.2615 24.927L36.5364 26.242L40.0206 22.5651L38.1612 21.292Z" fill="white"/>
<path d="M15.3545 34.1318L6.34229 40.4387L9.28215 41.9044L13.3611 38.973L14.6677 40.3047L17.9928 36.2676L15.3545 34.1318Z" fill="white"/>
<g style="mix-blend-mode:multiply" opacity="0.3">
<path d="M46.3275 78.9587C50.9023 78.9587 54.611 78.085 54.611 77.0072C54.611 75.9294 50.9023 75.0557 46.3275 75.0557C41.7526 75.0557 38.0439 75.9294 38.0439 77.0072C38.0439 78.085 41.7526 78.9587 46.3275 78.9587Z" fill="#333E63"/>
</g>
<path d="M56.6966 42.1142H55.926C55.926 42.1142 56.261 49.6523 48.0445 49.4178L47.7514 48.4713L48.3963 46.746L47.7514 45.6739L46.8552 47.282L44.9707 39.6602H44.2169V48.2955L42.0476 43.5632L41.21 44.1998L44.1499 50.4731C44.1499 50.4731 44.0493 53.212 43.8567 55.9759C43.2106 55.8761 42.5967 55.6264 42.0644 55.2468C41.5321 54.8672 41.0961 54.3683 40.7912 53.7899L41.2016 52.1734L40.8917 51.7378L40.3138 52.9691C40.0247 52.4138 39.7864 51.8335 39.6019 51.2353C39.6019 51.2353 40.3808 51.2353 38.7057 51.2353C38.4293 55.8922 43.5217 58.7734 43.5217 58.7734L43.2704 75.7173V76.7224C46.0763 78.2049 49.7867 76.8229 49.7867 76.8229L49.3176 67.7521L48.4801 51.7797C50.5154 51.5117 56.7217 50.3559 56.6966 42.1142Z" fill="#A43548"/>
<g style="mix-blend-mode:multiply" opacity="0.3">
<path d="M44.0241 66.6633C44.0022 66.9244 44.0364 67.1872 44.1246 67.4339C44.1699 67.5576 44.2503 67.6655 44.3559 67.7444C44.4615 67.8232 44.5877 67.8696 44.7193 67.8778C45.1129 67.8778 45.3474 67.4423 45.4647 67.0402C45.7781 65.9699 45.8637 64.8457 45.716 63.7402C45.6238 63.0283 44.9705 61.6128 44.334 62.9027C43.8566 63.8407 44.0241 65.6164 44.0241 66.6633Z" fill="#333E63"/>
</g>
<g style="mix-blend-mode:multiply" opacity="0.3">
<path d="M46.6123 60.8593C46.6163 61.1191 46.6885 61.3733 46.8217 61.5964C46.8945 61.7016 47.0058 61.7738 47.1316 61.7974C47.2192 61.7949 47.3042 61.7666 47.3757 61.7159C47.4473 61.6652 47.5022 61.5945 47.5336 61.5126C47.5866 61.345 47.6065 61.1686 47.5922 60.9933C47.5364 59.0837 47.4359 57.1796 47.2907 55.2811C47.3119 54.4623 47.1061 53.6535 46.696 52.9443C46.3207 53.9668 46.214 55.0684 46.3861 56.1438C46.4783 57.7017 46.4783 59.268 46.6123 60.8593Z" fill="#333E63"/>
</g>
<g style="mix-blend-mode:multiply" opacity="0.3">
<path d="M47.9023 63.3713C47.4081 62.5337 46.2941 64.5606 47.3327 64.8622C47.4362 64.8831 47.5438 64.871 47.64 64.8274C47.7362 64.7838 47.8163 64.7109 47.8687 64.6193C47.9742 64.4332 48.0264 64.2216 48.0195 64.0078C48.04 63.7889 47.9994 63.5685 47.9023 63.3713Z" fill="#333E63"/>
</g>
<g style="mix-blend-mode:multiply" opacity="0.3">
<path d="M49.7531 76.7144C49.7531 76.7144 46.051 78.0964 43.2368 76.6139V75.6088C43.5306 75.8871 43.881 76.0985 44.2641 76.2286C44.6472 76.3587 45.0539 76.4044 45.4564 76.3626C45.6942 76.3453 45.9215 76.2578 46.1097 76.1113C46.2535 75.9627 46.3598 75.7817 46.4196 75.5837C46.8359 74.6067 47.0904 73.5685 47.1734 72.5098C47.1541 71.598 47.2872 70.6893 47.567 69.8212C47.7799 69.3644 48.0624 68.9434 48.4046 68.5733C48.681 68.2466 48.9741 67.9367 49.2421 67.6436L49.7531 76.7144Z" fill="#333E63"/>
</g>
<path d="M39.1496 52.3656C39.1496 52.3656 36.4778 52.8598 36.8798 49.6436C37.2154 49.6513 37.5455 49.7308 37.8478 49.8767C38.1502 50.0226 38.4178 50.2314 38.6328 50.4892C38.8478 50.747 39.0051 51.0479 39.0943 51.3715C39.1834 51.6951 39.2023 52.0341 39.1496 52.3656Z" fill="#60A78E"/>
<path d="M39.6188 51.6453C39.6188 51.6453 38.1614 50.0707 40.4564 48.9902C41.4531 51.26 39.6188 51.6453 39.6188 51.6453Z" fill="#60A78E"/>
<path d="M44.8032 40.3722C44.8032 40.3722 42.1564 39.7524 43.8065 36.9717C44.111 37.1126 44.3819 37.317 44.601 37.5713C44.8201 37.8255 44.9823 38.1236 45.0767 38.4457C45.1711 38.7677 45.1955 39.1063 45.1484 39.4385C45.1012 39.7708 44.9835 40.0891 44.8032 40.3722Z" fill="#60A78E"/>
<path d="M55.5826 45.3137C55.5826 45.3137 52.9611 46.0341 53.07 42.8011C53.4057 42.7788 53.7423 42.8286 54.0572 42.947C54.3721 43.0655 54.6581 43.2498 54.896 43.4877C55.1339 43.7256 55.3183 44.0116 55.4367 44.3265C55.5551 44.6414 55.6049 44.978 55.5826 45.3137Z" fill="#60A78E"/>
<path d="M55.4067 46.7627C55.4067 46.7627 56.0014 44.1076 58.757 45.7325C58.6174 46.0319 58.4165 46.2986 58.1674 46.5155C57.9182 46.7324 57.6264 46.8946 57.3107 46.9917C56.995 47.0888 56.6624 47.1186 56.3344 47.0791C56.0065 47.0397 55.6904 46.9319 55.4067 46.7627Z" fill="#60A78E"/>
<path d="M45.1884 42.776C45.1884 42.776 44.4848 40.7574 47.0394 40.6904C46.9808 43.178 45.1884 42.776 45.1884 42.776Z" fill="#60A78E"/>
<path d="M56.3195 43.0694C56.3195 43.0694 54.5104 41.9135 56.4703 40.2803C57.9612 42.2653 56.3195 43.0694 56.3195 43.0694Z" fill="#60A78E"/>
<path d="M47.6509 46.7541C47.6509 46.7541 45.9758 45.4056 48.1199 44.0068C49.3847 46.151 47.6509 46.7541 47.6509 46.7541Z" fill="#60A78E"/>
<path d="M44.7446 43.2703C44.7446 43.2703 42.9355 44.4178 42.2905 41.9553C44.7278 41.4109 44.7446 43.2703 44.7446 43.2703Z" fill="#60A78E"/>
<path d="M7.1128 78.264C7.1128 78.264 6.36736 76.5889 7.1128 76.2371C7.85823 75.8853 8.12624 77.728 8.12624 77.728C8.12624 77.728 8.39426 75.0143 9.27371 75.0561C10.1531 75.098 9.60875 77.929 9.60875 77.929C9.60875 77.929 10.3458 76.2539 11.0242 76.6559C11.7027 77.0579 11.3593 78.666 11.3593 78.666" fill="#589882"/>
<path d="M66.672 70.7759C66.672 70.7759 65.7926 68.816 66.337 68.615C66.8814 68.414 67.6855 69.6955 67.6855 69.6955C67.6855 69.6955 67.2751 67.8863 68.2215 67.878C69.168 67.8696 69.0926 70.0724 69.0926 70.0724C69.0926 70.0724 69.6286 68.5815 70.2401 68.8579C70.8515 69.1343 70.5751 71.0775 70.5751 71.0775" fill="#589882"/>
<g style="mix-blend-mode:multiply" opacity="0.3">
<path d="M57.6095 84.73C57.6095 84.73 56.7301 82.7701 57.2745 82.5691C57.8189 82.3681 58.623 83.6496 58.623 83.6496C58.623 83.6496 58.2126 81.832 59.159 81.832C60.1055 81.832 60.0384 84.0516 60.0384 84.0516C60.0384 84.0516 60.5745 82.5691 61.1859 82.8371C61.7973 83.1051 61.5209 85.065 61.5209 85.065" fill="#333E63"/>
</g>
<path d="M81.656 78.9502C81.656 78.9502 80.9106 77.476 81.656 77.275C82.4014 77.074 82.7365 78.4392 82.7365 78.4392C82.7365 78.4392 82.7365 76.2783 83.4735 76.2783C84.2106 76.2783 84.0849 78.6402 84.0849 78.6402" fill="#589882"/>
<g style="mix-blend-mode:multiply" opacity="0.3">
<path d="M31.8962 81.3125C31.8962 81.3125 31.1591 79.8383 31.8962 79.6373C32.6332 79.4363 32.9767 80.8015 32.9767 80.8015C32.9767 80.8015 32.9766 78.6406 33.7221 78.6406C34.4675 78.6406 34.3251 81.0026 34.3251 81.0026" fill="#333E63"/>
</g>
</svg>
