<svg width="276" height="320" viewBox="0 0 276 320" fill="none" xmlns="http://www.w3.org/2000/svg">
<path d="M276 296.621C276 309.202 214.401 319.41 138.423 319.41C62.4448 319.41 0.845703 309.202 0.845703 296.621C0.845703 284.039 62.4448 273.854 138.423 273.854C214.401 273.854 276 284.039 276 296.621Z" fill="#051B2A"/>
<path d="M175.568 168.852C174.734 168.875 173.936 169.194 173.314 169.75C172.693 170.307 172.288 171.066 172.173 171.892L166.559 218.136C166.496 218.516 166.519 218.905 166.625 219.276C166.731 219.646 166.919 219.988 167.174 220.277C167.429 220.566 167.745 220.794 168.099 220.946C168.453 221.098 168.837 221.168 169.222 221.153C170.053 221.131 170.849 220.816 171.47 220.264C172.091 219.711 172.497 218.958 172.617 218.136L178.276 171.892C178.335 171.508 178.308 171.115 178.198 170.742C178.088 170.369 177.896 170.025 177.637 169.735C177.379 169.444 177.059 169.214 176.702 169.062C176.344 168.909 175.957 168.838 175.568 168.852Z" fill="#818487"/>
<path d="M203.905 168.852C203.071 168.876 202.272 169.194 201.651 169.75C201.029 170.307 200.625 171.066 200.51 171.892L194.852 218.136C194.793 218.515 194.818 218.903 194.926 219.272C195.034 219.64 195.222 219.981 195.476 220.269C195.73 220.557 196.044 220.785 196.397 220.938C196.749 221.091 197.131 221.165 197.514 221.154C198.345 221.131 199.141 220.816 199.762 220.264C200.383 219.712 200.789 218.958 200.909 218.136L206.501 171.892C206.559 171.517 206.535 171.134 206.431 170.769C206.327 170.404 206.146 170.066 205.899 169.778C205.653 169.489 205.347 169.257 205.003 169.098C204.659 168.938 204.284 168.854 203.905 168.852Z" fill="#818487"/>
<path d="M128.46 219.201C127.753 219.148 127.05 219.339 126.468 219.743C125.886 220.147 125.461 220.74 125.264 221.42L113.526 296.488C113.454 296.966 113.488 297.452 113.625 297.915C113.762 298.378 113.998 298.805 114.317 299.166C114.637 299.528 115.031 299.815 115.473 300.008C115.915 300.201 116.394 300.295 116.876 300.283C117.919 300.252 118.918 299.855 119.697 299.161C120.476 298.467 120.986 297.521 121.137 296.488L131.056 221.42C131.255 220.2 130.057 219.201 128.46 219.201Z" fill="#C2C7CC"/>
<path d="M146.122 219.202C145.428 219.131 144.733 219.318 144.168 219.727C143.604 220.137 143.209 220.739 143.06 221.421L136.603 289.255C136.566 289.746 136.632 290.239 136.796 290.703C136.961 291.167 137.221 291.591 137.56 291.949C137.898 292.306 138.308 292.589 138.762 292.778C139.216 292.968 139.705 293.06 140.198 293.049C141.225 293.041 142.211 292.646 142.959 291.942C143.708 291.239 144.164 290.28 144.236 289.255L148.918 221.421C148.985 220.2 147.72 219.202 146.122 219.202Z" fill="#818487"/>
<path d="M183.09 219.201C181.493 219.201 180.228 220.2 180.295 221.42L184.977 296.488C185.049 297.513 185.505 298.472 186.254 299.176C187.002 299.879 187.988 300.274 189.015 300.283C189.505 300.29 189.992 300.196 190.444 300.005C190.895 299.814 191.302 299.531 191.638 299.174C191.975 298.817 192.233 298.393 192.396 297.931C192.559 297.469 192.625 296.977 192.588 296.488L186.153 221.376C185.986 220.707 185.586 220.121 185.024 219.722C184.462 219.323 183.776 219.138 183.09 219.201Z" fill="#C2C7CC"/>
<path d="M200.754 219.201C199.157 219.201 197.936 220.199 198.07 221.42L208.077 289.254C208.227 290.283 208.734 291.226 209.508 291.92C210.283 292.613 211.276 293.013 212.315 293.049C212.799 293.064 213.281 292.972 213.726 292.781C214.17 292.589 214.568 292.303 214.89 291.941C215.211 291.579 215.45 291.15 215.588 290.686C215.726 290.222 215.76 289.733 215.688 289.254L203.928 221.42C203.735 220.741 203.314 220.149 202.736 219.745C202.158 219.341 201.458 219.149 200.754 219.201Z" fill="#818487"/>
<path d="M208.055 227.344H123.734C122.453 227.338 121.226 226.827 120.32 225.921C119.414 225.015 118.902 223.788 118.896 222.507C118.902 221.226 119.414 219.999 120.32 219.093C121.226 218.187 122.453 217.675 123.734 217.669H208.055C209.337 217.675 210.564 218.187 211.469 219.093C212.375 219.999 212.887 221.226 212.893 222.507C212.887 223.788 212.375 225.015 211.469 225.921C210.564 226.827 209.337 227.338 208.055 227.344Z" fill="#C97B27"/>
<path d="M205.259 190.775H170.155C168.549 190.793 166.958 190.462 165.492 189.804C164.027 189.147 162.721 188.179 161.666 186.968C160.611 185.757 159.832 184.331 159.382 182.79C158.932 181.248 158.822 179.627 159.06 178.038L165.717 123.296C166.213 119.828 167.92 116.647 170.535 114.316C173.15 111.985 176.505 110.654 180.007 110.559H215.111C216.717 110.541 218.308 110.872 219.774 111.53C221.239 112.187 222.545 113.154 223.6 114.366C224.655 115.577 225.434 117.002 225.884 118.544C226.334 120.086 226.444 121.707 226.206 123.296L219.549 178.038C219.049 181.504 217.341 184.682 214.727 187.013C212.113 189.343 208.76 190.675 205.259 190.775Z" fill="#C97B27"/>
<path d="M127.728 284.927C127.566 287.197 127.103 289.435 126.352 291.584C123.703 292.819 120.883 293.65 117.987 294.047L115.99 291.384L114.459 294.047C114.459 294.047 103.097 296.266 94.0883 292.915C93.7995 292.78 93.557 292.563 93.3912 292.29C93.2254 292.018 93.1437 291.703 93.1563 291.384C93.0231 289.276 93.1563 284.949 96.6623 282.885C100.767 280.445 107.757 280.666 113.127 279.246C114.692 278.619 116.368 278.317 118.053 278.359L123.445 278.98C124.785 279.235 125.976 279.993 126.772 281.1C127.569 282.206 127.911 283.576 127.728 284.927Z" fill="url(#paint0_linear_219_905)"/>
<path d="M93.1787 289.321C93.124 290.023 93.124 290.728 93.1787 291.429C93.1661 291.748 93.2479 292.063 93.4136 292.335C93.5794 292.608 93.8218 292.825 94.1106 292.96C103.12 296.4 114.481 294.092 114.481 294.092L116.012 291.429L118.009 294.092C120.905 293.695 123.725 292.864 126.375 291.629C126.582 291.008 126.759 290.409 126.907 289.832C124.446 290.928 121.808 291.574 119.119 291.74L116.101 288.434L112.817 291.829C106.164 292.778 99.379 291.912 93.1787 289.321Z" fill="#541C1C"/>
<path d="M96.1057 283.308C95.0051 284.33 94.1635 285.6 93.6504 287.012C93.1372 288.424 92.9672 289.938 93.1544 291.429C93.1418 291.748 93.2236 292.063 93.3894 292.335C93.5552 292.608 93.7977 292.825 94.0865 292.96C95.5264 293.504 97.0115 293.92 98.5245 294.203C98.5245 293.826 98.7462 293.448 98.835 293.071C99.2931 291.348 99.2815 289.534 98.8016 287.817C98.3216 286.1 97.3908 284.543 96.1057 283.308Z" fill="#541C1C"/>
<path d="M112.372 280.134C112.954 281.165 113.394 282.269 113.681 283.418C113.85 284.032 113.895 284.673 113.815 285.304C113.754 285.678 113.585 286.026 113.326 286.303C113.159 286.435 112.972 286.54 112.772 286.613H112.195C111.812 286.586 111.451 286.427 111.172 286.165C110.893 285.902 110.714 285.551 110.664 285.171C110.575 284.537 110.636 283.891 110.841 283.285C111.181 282.16 111.698 281.096 112.372 280.134ZM112.372 280.134C111.997 281.228 111.7 282.348 111.485 283.484C111.285 284.55 111.307 285.859 112.261 285.703C113.216 285.548 113.171 284.527 113.038 283.484C112.905 282.442 112.616 281.288 112.372 280.134Z" fill="#8A2E2E"/>
<path d="M112.372 280.134C111.8 280.595 111.279 281.115 110.819 281.687C110.331 282.227 109.879 282.798 109.465 283.396C108.533 284.527 107.756 285.77 106.758 286.924C106.956 286.159 107.231 285.415 107.579 284.705C107.928 284.031 108.328 283.386 108.777 282.774C109.238 282.169 109.767 281.618 110.353 281.132C110.935 280.642 111.628 280.299 112.372 280.134Z" fill="#8A2E2E"/>
<path d="M111.618 280.401C110.42 271.813 107.957 263.337 106.537 253.484C105.74 248.254 105.635 242.942 106.226 237.685C106.359 236.309 106.67 234.933 106.914 233.558C107.158 232.182 107.602 230.828 107.957 229.453C108.312 228.077 108.866 226.834 109.377 225.458C110.125 223.804 111.024 222.222 112.062 220.732C115.457 216.12 119.57 212.082 124.244 208.772C128.264 205.806 132.45 203.073 136.781 200.584C145.092 195.873 153.639 191.592 162.388 187.758L171.775 213.032C163.496 215.447 155.349 218.291 147.366 221.553C143.572 223.105 139.868 224.869 136.271 226.834C133.259 228.402 130.474 230.373 127.994 232.692C127.439 233.158 127.395 233.402 127.018 233.713L125.842 235.932C125.509 236.731 125.154 237.53 124.843 238.351C124.533 239.172 124.244 239.993 124.066 240.858C123.137 244.579 122.712 248.408 122.802 252.242C122.802 260.496 124.2 269.883 124.311 279.424L111.618 280.401Z" fill="#E8B78B"/>
<path d="M171.175 215.784C159.836 220.222 147.232 224.926 138.112 227.523C131.859 219.57 127.913 210.051 126.706 200.007C126.706 200.007 147.942 185.517 168.09 180.391L185.576 179.526C187.149 182.832 188.023 186.427 188.143 190.087C188.264 193.746 187.629 197.391 186.277 200.794C184.926 204.196 182.887 207.284 180.288 209.863C177.69 212.442 174.587 214.458 171.175 215.784Z" fill="#242133"/>
<path d="M154.4 191.863C154.267 205.753 160.413 223.084 175.436 223.084C190.459 223.084 202.508 211.723 202.397 197.809C202.286 183.896 190.214 172.979 175.436 172.979C160.658 172.979 154.533 178.105 154.4 191.863Z" fill="#2D2A40"/>
<path d="M146.722 293.271C146.563 295.543 146.093 297.783 145.324 299.928C142.688 301.178 139.873 302.009 136.98 302.391L134.983 299.75L133.452 302.413C133.452 302.413 122.069 304.632 113.082 301.259C112.791 301.125 112.545 300.908 112.376 300.636C112.206 300.364 112.12 300.048 112.128 299.728C112.017 297.642 112.128 293.293 115.656 291.251C119.739 288.788 126.751 289.032 132.098 287.59C133.664 286.966 135.34 286.664 137.025 286.702L142.417 287.324C143.76 287.573 144.956 288.33 145.758 289.437C146.559 290.544 146.904 291.916 146.722 293.271Z" fill="url(#paint1_linear_219_905)"/>
<path d="M112.172 297.664C112.119 298.366 112.119 299.07 112.172 299.772C112.164 300.092 112.25 300.408 112.42 300.68C112.589 300.952 112.835 301.169 113.126 301.303C122.113 304.743 133.496 302.457 133.496 302.457L135.027 299.794L137.024 302.435C139.917 302.053 142.732 301.222 145.368 299.972C145.59 299.35 145.745 298.751 145.923 298.197C143.45 299.278 140.806 299.916 138.112 300.083L135.116 296.776L131.81 300.194C125.156 301.133 118.371 300.259 112.172 297.664Z" fill="#541C1C"/>
<path d="M115.101 291.673C113.998 292.691 113.153 293.956 112.636 295.364C112.119 296.772 111.945 298.284 112.127 299.773C112.12 300.093 112.206 300.409 112.375 300.681C112.545 300.953 112.791 301.17 113.082 301.304C114.52 301.853 116.005 302.269 117.52 302.546C117.631 302.169 117.719 301.814 117.808 301.415C118.269 299.697 118.262 297.888 117.785 296.174C117.309 294.461 116.382 292.907 115.101 291.673Z" fill="#541C1C"/>
<path d="M131.344 288.478C131.946 289.51 132.395 290.623 132.675 291.784C132.8 292.399 132.8 293.033 132.675 293.648C132.634 294.028 132.461 294.381 132.187 294.647C132.032 294.784 131.851 294.889 131.655 294.957H131.078C130.693 294.931 130.329 294.773 130.046 294.511C129.764 294.248 129.579 293.897 129.524 293.515C129.458 292.888 129.518 292.254 129.702 291.651C130.083 290.515 130.637 289.445 131.344 288.478ZM131.344 288.478C130.986 289.576 130.697 290.695 130.479 291.829C130.257 292.916 130.279 294.203 131.255 294.048C132.232 293.892 132.165 292.849 132.01 291.829C131.848 290.701 131.626 289.582 131.344 288.478Z" fill="#8A2E2E"/>
<path d="M131.345 288.478C130.778 288.945 130.258 289.465 129.792 290.031C129.31 290.576 128.858 291.146 128.438 291.74C127.506 292.872 126.751 294.114 125.753 295.268C125.94 294.538 126.207 293.831 126.552 293.16C126.912 292.493 127.312 291.848 127.75 291.23C128.223 290.628 128.75 290.071 129.325 289.565C129.902 289.047 130.595 288.674 131.345 288.478Z" fill="#8A2E2E"/>
<path d="M130.612 288.744C129.414 280.156 126.951 271.68 125.509 261.828C124.73 256.596 124.633 251.285 125.22 246.028C125.353 244.653 125.664 243.277 125.908 241.901C126.152 240.525 126.596 239.172 126.951 237.818C127.306 236.465 127.838 235.2 128.371 233.802C129.112 232.148 130.004 230.566 131.034 229.075C134.435 224.475 138.547 220.445 143.216 217.137C147.238 214.174 151.424 211.441 155.753 208.949C164.058 204.2 172.605 199.889 181.36 196.035L190.769 221.331C182.492 223.743 174.345 226.58 166.36 229.83C162.568 231.393 158.864 233.164 155.265 235.133C152.252 236.701 149.461 238.663 146.966 240.969C146.411 241.457 146.367 241.701 146.012 241.99L144.814 244.209C144.503 245.03 144.126 245.807 143.837 246.628C143.549 247.449 143.238 248.27 143.039 249.157C142.119 252.872 141.693 256.692 141.774 260.518C141.774 268.773 143.194 278.27 143.283 287.701L130.612 288.744Z" fill="#FFC999"/>
<path d="M190.147 224.127C178.808 228.565 166.226 233.269 157.084 235.866C150.843 227.908 146.906 218.391 145.701 208.35C145.701 208.35 166.914 193.86 187.063 188.734L204.57 187.891C206.139 191.198 207.009 194.792 207.126 198.45C207.244 202.108 206.606 205.751 205.252 209.151C203.899 212.551 201.859 215.636 199.26 218.213C196.661 220.79 193.559 222.803 190.147 224.127Z" fill="#2D2A40"/>
<path d="M115.633 178.438C114.254 178.446 112.875 178.365 111.506 178.194C110.785 178.086 110.092 177.837 109.467 177.461C108.842 177.086 108.297 176.591 107.863 176.005C107.429 175.418 107.115 174.752 106.939 174.045C106.762 173.337 106.727 172.602 106.835 171.881C107.053 170.424 107.84 169.114 109.024 168.238C109.61 167.804 110.276 167.49 110.984 167.314C111.691 167.137 112.427 167.102 113.148 167.21C117.224 167.593 121.335 167.128 125.223 165.845C129.11 164.562 132.69 162.488 135.737 159.754C145.856 150.545 150.471 133.814 149.428 109.982C149.396 109.253 149.508 108.526 149.757 107.84C150.006 107.155 150.388 106.526 150.881 105.988C151.373 105.45 151.967 105.015 152.627 104.706C153.288 104.398 154.003 104.222 154.732 104.19C155.46 104.158 156.188 104.27 156.873 104.519C157.559 104.768 158.188 105.15 158.726 105.643C159.264 106.135 159.699 106.729 160.008 107.389C160.316 108.05 160.491 108.765 160.523 109.494C161.722 136.898 155.841 156.625 143.038 168.119C135.486 174.818 125.727 178.492 115.633 178.438Z" fill="#F0BD90"/>
<path d="M146.588 114.02C146.588 114.02 146.144 130.53 140.308 138.03C140.308 138.03 149.694 148.193 156.507 149.125C156.507 149.125 170.42 131.018 164.362 116.084C158.304 101.15 144.369 99.1754 146.588 114.02Z" fill="url(#paint2_linear_219_905)"/>
<path d="M98.0591 168.519C97.8405 167.962 97.7828 167.355 97.8926 166.766C98.0025 166.178 98.2754 165.632 98.6803 165.191C100.123 163.882 104.561 166.789 105.87 168.031L98.0591 168.519Z" fill="#F0BD90"/>
<path d="M111.506 178.173C113.37 178.638 115.234 174.667 115.146 172.758C115.146 170.539 114.613 167.699 112.927 167.277C112.927 167.277 107.845 167.277 101.987 166.967C96.1289 166.656 85.633 171.405 86.2321 174.511C86.8312 177.618 90.071 175.909 93.7767 173.823C95.6251 173.021 97.6402 172.679 99.6498 172.826C101.659 172.973 103.603 173.604 105.315 174.667C107.203 176.122 109.287 177.302 111.506 178.173Z" fill="#F0BD90"/>
<path d="M145.102 181.456C144.01 155.902 145.303 130.303 148.963 104.99C158.128 95.2482 177.588 96.1136 177.588 96.1136C177.588 96.1136 194.164 94.5603 206.169 104.99C208.904 130.411 209.69 156.004 208.521 181.545C208.472 184.1 207.506 186.553 205.8 188.455C204.093 190.358 201.759 191.583 199.223 191.907C184.324 193.484 169.299 193.484 154.4 191.907C151.85 191.581 149.504 190.343 147.795 188.422C146.086 186.501 145.13 184.027 145.102 181.456Z" fill="url(#paint3_linear_219_905)"/>
<path d="M187.063 97.9332C187.462 100.729 185.842 101.905 183.157 102.815C181.3 103.45 179.351 103.772 177.388 103.769C175.715 103.769 174.05 103.538 172.44 103.081C169.577 102.26 167.736 101.018 168.157 98.0663L169.222 90.5439H185.998L187.063 97.9332Z" fill="#FFC999"/>
<path d="M168.18 97.8666L169.223 90.5439H185.998L186.531 94.5603C180.645 96.6945 174.44 97.8125 168.18 97.8666Z" fill="#E6B58C"/>
<path d="M207.61 51.3787C207.61 51.3787 212.27 42.7024 218.572 46.9407C224.208 50.713 217.596 72.1706 208.143 65.4027L207.61 51.3787Z" fill="#FFC999"/>
<path d="M209.475 52.3998C209.475 52.3998 212.825 45.3878 217.263 48.7385C221.235 51.7563 216.398 67.4002 209.741 62.0524L209.475 52.3998Z" fill="#E6B58C"/>
<path d="M214.089 56.1053C214.152 56.6207 214.055 57.143 213.811 57.6014C213.567 58.0597 213.188 58.4318 212.725 58.6671C212.262 58.9025 211.738 58.9897 211.224 58.9169C210.71 58.8442 210.231 58.615 209.851 58.2604C209.472 57.9059 209.211 57.4432 209.103 56.9351C208.996 56.4271 209.048 55.8983 209.251 55.4206C209.455 54.9429 209.8 54.5394 210.241 54.2649C210.682 53.9905 211.197 53.8583 211.715 53.8863C212.019 53.865 212.325 53.9065 212.612 54.0085C212.899 54.1104 213.163 54.2704 213.386 54.4786C213.608 54.6869 213.786 54.9388 213.907 55.2187C214.028 55.4985 214.09 55.8003 214.089 56.1053Z" fill="#FFC999"/>
<path d="M216.353 49.2489C218.794 51.0907 218.217 57.792 215.71 61.4089C218.683 58.0583 219.859 50.6912 217.263 48.7163C216.583 48.1436 215.722 47.8296 214.833 47.8296C213.944 47.8296 213.083 48.1436 212.403 48.7163C213.041 48.4085 213.756 48.2948 214.458 48.3895C215.16 48.4842 215.819 48.783 216.353 49.2489Z" fill="#D1A57F"/>
<path d="M140.486 46.9191C146.765 42.703 151.447 51.3571 151.447 51.3571L150.915 65.3589C141.462 72.149 134.849 50.6914 140.486 46.9191Z" fill="#E6B58C"/>
<path d="M150.628 30.3867C148.654 37.1821 147.12 44.0974 146.035 51.0898C144.659 58.1684 140.554 81.6674 162.699 90.2771C184.845 98.8868 205.148 86.2385 209.298 70.9497C213.379 58.1452 212.829 44.3135 207.745 31.8734C202.419 17.1615 190.192 12.191 177.322 12.0578C165.007 11.9247 154.777 17.9825 150.628 30.3867Z" fill="#FFC999"/>
<path d="M174.659 78.1623C176.878 77.6519 179.097 76.8752 181.316 76.2983L187.973 74.5009C190.149 73.9726 192.29 73.3131 194.386 72.526C195.34 72.1805 196.131 71.4923 196.605 70.5955C196.996 69.5739 196.996 68.4439 196.605 67.4224C196.995 67.9039 197.274 68.4664 197.42 69.0691C197.566 69.6717 197.575 70.2993 197.448 70.9062C197.271 71.541 196.97 72.1345 196.563 72.6525C196.155 73.1704 195.649 73.6026 195.074 73.924C192.971 75.0572 190.735 75.922 188.417 76.498C186.173 77.1193 183.89 77.5864 181.582 77.896C179.298 78.3024 176.968 78.392 174.659 78.1623Z" fill="#DBB08A"/>
<path d="M157.683 25.1955C157.683 25.1955 153.023 28.8568 151.381 37.9103C149.739 46.9638 148.341 49.8484 146.211 49.8263C144.081 49.8041 143.171 30.5211 153.8 21.1348L157.683 25.1955Z" fill="#AD6A21"/>
<path d="M214.089 47.2295C214.089 47.2295 211.227 51.8672 206.789 49.9588C202.351 48.0505 201.485 24.6846 201.485 24.6846C201.485 24.6846 182.047 29.1225 165.693 28.0352L170.131 23.797C170.131 23.797 154.332 30.4539 143.17 19.2037C147.726 14.7494 153.374 11.5733 159.547 9.99487L153.622 8.92977C153.622 8.92977 154.82 5.37937 168.023 1.49615C181.226 -2.38708 200.354 0.963594 205.479 15.387C205.546 15.387 217.373 20.1578 214.089 47.2295Z" fill="#C97B27"/>
<path d="M174.459 55.4619C174.062 57.7037 173.022 59.7818 171.466 61.444C169.91 63.1062 167.905 64.2811 165.694 64.826C166.613 66.2689 167.929 67.4155 169.484 68.128C171.039 68.8406 172.767 69.0887 174.459 68.8424C173.17 68.0271 172.127 66.8766 171.442 65.5139C172.818 64.276 173.827 62.6836 174.359 60.9109C174.892 59.1381 174.926 57.2531 174.459 55.4619Z" fill="#DBB08A"/>
<path d="M180.361 38.7975C180.76 37.0801 181.683 35.5292 183.002 34.3596C184.37 33.1657 186.113 32.4903 187.928 32.4512C189.689 32.3916 191.425 32.872 192.905 33.828C194.384 34.7839 195.536 36.1696 196.205 37.799C195.171 36.6347 193.904 35.7011 192.485 35.0589C191.067 34.4166 189.53 34.08 187.973 34.0711C186.473 34.1063 185.012 34.5598 183.756 35.3803C182.424 36.3004 181.273 37.4589 180.361 38.7975Z" fill="#AD6A22"/>
<path d="M169.399 37.5766C167.103 36.7793 164.684 36.3962 162.254 36.4449C159.839 36.6143 157.491 37.3112 155.375 38.4864C156.153 37.3986 157.169 36.5032 158.346 35.8686C159.522 35.234 160.829 34.877 162.165 34.8251C163.495 34.7598 164.825 34.9706 166.07 35.4441C167.315 35.9176 168.448 36.6437 169.399 37.5766Z" fill="#AD6A22"/>
<path d="M180.162 55.6399C180.162 55.6399 181.249 43.7461 189.748 43.7461C198.247 43.7461 198.624 55.6399 198.624 55.6399C195.711 56.9067 192.569 57.5604 189.393 57.5604C186.217 57.5604 183.075 56.9067 180.162 55.6399Z" fill="#FCFFFF"/>
<path d="M180.162 55.6394C180.225 52.8123 180.987 50.0447 182.381 47.5844C183.116 46.3199 184.124 45.2357 185.332 44.4113C186.615 43.6402 188.075 43.2123 189.571 43.1686C191.071 43.1271 192.554 43.5036 193.853 44.2559C195.084 45.073 196.097 46.1773 196.805 47.4735C198.091 49.9961 198.695 52.8111 198.557 55.6394C198.241 52.9294 197.364 50.3148 195.983 47.9616C195.302 46.8549 194.366 45.9268 193.254 45.2545C192.136 44.6368 190.869 44.3375 189.593 44.3891C188.316 44.4158 187.065 44.7589 185.954 45.3876C184.851 46.0946 183.9 47.0151 183.158 48.0948C182.392 49.2088 181.773 50.417 181.316 51.6895C180.818 52.9703 180.432 54.2919 180.162 55.6394Z" fill="#AD6A22"/>
<path d="M186.131 49.9585C185.443 49.9585 184.821 50.6242 184.466 51.6227L185.31 52.7988L184.111 53.3313V53.8417C184.111 56.0607 185.021 57.7249 186.131 57.7249C187.24 57.7249 188.15 55.9941 188.15 53.8417C188.15 51.6893 187.24 49.9585 186.131 49.9585Z" fill="#633424"/>
<path d="M151.47 54.4192C151.47 54.4192 152.247 43.5239 160.058 43.5239C167.869 43.5239 168.09 54.397 168.09 54.397C165.469 55.5357 162.641 56.1251 159.783 56.1289C156.924 56.1328 154.095 55.5509 151.47 54.4192Z" fill="#FCFFFF"/>
<path d="M151.471 54.4187C151.448 51.8365 152.09 49.2918 153.335 47.0295C153.984 45.8476 154.904 44.8363 156.02 44.0782C157.191 43.3597 158.53 42.9618 159.903 42.9244C161.283 42.9016 162.643 43.2627 163.831 43.9673C164.967 44.7012 165.892 45.7183 166.515 46.9185C167.689 49.2292 168.233 51.8087 168.091 54.3965C167.773 51.9317 166.966 49.5553 165.717 47.4067C165.081 46.4116 164.232 45.5703 163.231 44.9436C162.219 44.3897 161.078 44.114 159.925 44.1448C158.764 44.166 157.627 44.4789 156.619 45.0546C155.628 45.6938 154.782 46.5327 154.134 47.5177C152.8 49.62 151.895 51.9653 151.471 54.4187Z" fill="#AD6A22"/>
<path d="M156.485 49.3594C155.864 49.3594 155.309 49.9585 154.976 50.8905L155.309 51.9556L154.644 52.4438V52.9098C154.644 54.8625 155.465 56.4601 156.485 56.4601C157.506 56.4601 158.349 54.8625 158.349 52.9098C158.349 50.9571 157.506 49.3594 156.485 49.3594Z" fill="#633424"/>
<path d="M151.382 176.93H149.407C147.935 176.906 146.534 176.299 145.51 175.242C144.486 174.185 143.924 172.765 143.948 171.294C143.972 169.822 144.579 168.421 145.636 167.397C146.693 166.373 148.113 165.811 149.584 165.835H149.762C157.683 166.057 179.918 164.526 187.484 154.873C194.252 145.997 198.002 131.774 199.955 121.322C200.226 119.874 201.061 118.594 202.276 117.761C203.491 116.929 204.987 116.613 206.435 116.884C207.882 117.155 209.163 117.99 209.996 119.205C210.828 120.42 211.143 121.916 210.873 123.364C208.654 135.013 204.393 151.123 196.25 161.663C185.221 175.82 159.215 176.93 151.382 176.93Z" fill="#FFC999"/>
<path d="M192.233 141.292C195.872 141.869 203.017 143.067 207.766 144.421C208.059 144.519 208.368 144.554 208.676 144.525C208.983 144.497 209.28 144.404 209.55 144.254C209.819 144.103 210.054 143.899 210.24 143.652C210.426 143.406 210.558 143.124 210.628 142.823C213.455 132.379 213.97 121.445 212.137 110.781C211.72 109.303 210.945 107.951 209.881 106.844C208.816 105.737 207.496 104.91 206.035 104.435C197.47 102.216 193.076 109.361 192.033 121.1C191.212 130.308 190.635 135.922 190.236 138.718C190.186 139.02 190.199 139.329 190.274 139.626C190.349 139.922 190.484 140.2 190.672 140.442C190.859 140.684 191.095 140.884 191.364 141.03C191.632 141.177 191.928 141.266 192.233 141.292Z" fill="url(#paint4_linear_219_905)"/>
<path d="M132.765 167.565C132.546 167.008 132.488 166.4 132.598 165.812C132.708 165.223 132.981 164.677 133.386 164.236C134.806 162.927 139.244 165.834 140.553 167.077L132.765 167.565Z" fill="#FFCA98"/>
<path d="M147.476 176.241C149.34 176.707 149.917 173.711 149.85 171.803C149.784 169.895 150.317 166.389 148.719 165.967C148.719 165.967 142.594 166.278 136.758 165.967C130.923 165.656 120.382 170.405 120.982 173.512C121.581 176.618 124.82 174.91 128.526 172.824C132.232 170.738 139.887 171.137 141.995 172.824C143.605 174.279 145.461 175.436 147.476 176.241Z" fill="#FFCA98"/>
<path d="M201.664 300.615C203.108 300.609 204.49 300.032 205.509 299.009C206.528 297.986 207.1 296.6 207.1 295.157V185.539H196.205V295.157C196.205 296.604 196.78 297.993 197.804 299.016C198.828 300.04 200.216 300.615 201.664 300.615Z" fill="#C2C7CC"/>
<path d="M255.074 300.615C256.522 300.615 257.911 300.04 258.934 299.016C259.958 297.993 260.533 296.604 260.533 295.157V185.539H249.616V295.157C249.616 296.604 250.191 297.993 251.215 299.016C252.238 300.04 253.627 300.615 255.074 300.615Z" fill="#818487"/>
<path d="M23.7235 185.473H34.5966V295.18C34.5966 296.628 34.0215 298.016 32.9978 299.04C31.974 300.063 30.5856 300.639 29.1378 300.639C27.6901 300.639 26.3017 300.063 25.278 299.04C24.2543 298.016 23.6792 296.628 23.6792 295.18V185.473H23.7235Z" fill="#C2C7CC"/>
<path d="M77.1345 185.473H88.0298V295.18C88.0298 296.628 87.4547 298.016 86.431 299.04C85.4073 300.063 84.0188 300.639 82.5711 300.639C81.1233 300.639 79.7348 300.063 78.7111 299.04C77.6874 298.016 77.1123 296.628 77.1123 295.18V185.473H77.1345Z" fill="#818487"/>
<path d="M269.498 178.283H14.7363V185.494H269.498V178.283Z" fill="#C97B27"/>
<path d="M260.534 185.516H23.7236V198.697H260.534V185.516Z" fill="#818487"/>
<path d="M99.1911 173.335H70.7881L69.0352 156.004H97.4382L99.1911 173.335Z" fill="#717D87"/>
<path d="M131.854 163.349H41.5194C40.3312 163.31 39.1985 162.837 38.3357 162.019C37.4729 161.201 36.9397 160.096 36.8372 158.911L32.3993 97.645C32.3504 97.0853 32.4176 96.5216 32.5966 95.989C32.7756 95.4564 33.0624 94.9665 33.4394 94.5499C33.8164 94.1334 34.2754 93.7991 34.7876 93.568C35.2997 93.337 35.8538 93.2141 36.4156 93.207H126.751C127.935 93.2513 129.062 93.7269 129.92 94.5442C130.779 95.3615 131.308 96.4643 131.41 97.645L135.848 158.911C135.894 159.468 135.825 160.029 135.646 160.559C135.467 161.088 135.182 161.576 134.808 161.991C134.434 162.407 133.979 162.742 133.471 162.975C132.963 163.209 132.413 163.336 131.854 163.349Z" fill="#A5B7C6"/>
<path d="M93.3323 130.197C93.5264 131.532 93.4312 132.893 93.0532 134.188C92.6751 135.482 92.023 136.681 91.1412 137.701C90.2594 138.722 89.1685 139.541 87.9423 140.103C86.7162 140.665 85.3836 140.957 84.0347 140.959C81.1518 140.854 78.4054 139.704 76.3072 137.724C74.2089 135.744 72.9017 133.069 72.6291 130.197C72.4351 128.862 72.5303 127.501 72.9084 126.207C73.2864 124.912 73.9384 123.713 74.8202 122.693C75.702 121.672 76.7929 120.853 78.0191 120.291C79.2452 119.729 80.5778 119.437 81.9267 119.435C84.8097 119.541 87.556 120.69 89.6543 122.67C91.7525 124.65 93.0597 127.325 93.3323 130.197Z" fill="#717D87"/>
<path d="M109.043 172.003H63.8647C62.1612 172.003 60.7803 173.384 60.7803 175.087V175.198C60.7803 176.902 62.1612 178.283 63.8647 178.283H109.043C110.747 178.283 112.128 176.902 112.128 175.198V175.087C112.128 173.384 110.747 172.003 109.043 172.003Z" fill="#A5B7C6"/>
<path d="M173.794 172.003H118.985C117.281 172.003 115.9 173.384 115.9 175.087V175.198C115.9 176.902 117.281 178.283 118.985 178.283H173.794C175.497 178.283 176.878 176.902 176.878 175.198V175.087C176.878 173.384 175.497 172.003 173.794 172.003Z" fill="#A5B7C6"/>
<defs>
<linearGradient id="paint0_linear_219_905" x1="110.45" y1="278.355" x2="110.45" y2="294.767" gradientUnits="userSpaceOnUse">
<stop stop-color="#84CCFA"/>
<stop offset="1" stop-color="#39ADF8"/>
</linearGradient>
<linearGradient id="paint1_linear_219_905" x1="129.436" y1="286.699" x2="129.436" y2="303.129" gradientUnits="userSpaceOnUse">
<stop stop-color="#84CCFA"/>
<stop offset="1" stop-color="#39ADF8"/>
</linearGradient>
<linearGradient id="paint2_linear_219_905" x1="153.099" y1="103.834" x2="153.099" y2="149.125" gradientUnits="userSpaceOnUse">
<stop stop-color="#84CCFA"/>
<stop offset="1" stop-color="#39ADF8"/>
</linearGradient>
<linearGradient id="paint3_linear_219_905" x1="176.886" y1="96.0317" x2="176.886" y2="193.089" gradientUnits="userSpaceOnUse">
<stop stop-color="#84CCFA"/>
<stop offset="1" stop-color="#39ADF8"/>
</linearGradient>
<linearGradient id="paint4_linear_219_905" x1="201.709" y1="104.032" x2="201.709" y2="144.535" gradientUnits="userSpaceOnUse">
<stop stop-color="#84CCFA"/>
<stop offset="1" stop-color="#39ADF8"/>
</linearGradient>
</defs>
</svg>
