<svg width="270" height="289" viewBox="0 0 270 289" fill="none" xmlns="http://www.w3.org/2000/svg">
<path d="M209.853 288.476C243.071 288.476 270 281.701 270 273.342C270 264.984 243.071 258.208 209.853 258.208C176.635 258.208 149.707 264.984 149.707 273.342C149.707 281.701 176.635 288.476 209.853 288.476Z" fill="#051B2A"/>
<path d="M177.027 273.325C177.027 280.076 140.49 285.547 95.422 285.547C50.354 285.547 13.8174 280.076 13.8174 273.325C13.8174 266.574 50.3725 261.121 95.422 261.121C140.471 261.121 177.027 266.592 177.027 273.325Z" fill="#051B2A"/>
<path d="M160.298 13.0244H7.19629C6.59195 13.0244 6.10205 13.5143 6.10205 14.1187V169.668C6.10205 170.273 6.59195 170.762 7.19629 170.762H160.298C160.902 170.762 161.392 170.273 161.392 169.668V14.1187C161.392 13.5143 160.902 13.0244 160.298 13.0244Z" fill="#C2C7CC"/>
<path d="M154.585 163.288H12.9453V20.498H154.585V163.288Z" fill="white"/>
<path d="M24.2217 150.676H142.548" stroke="#A5B7C6" stroke-width="0.389477" stroke-linecap="round" stroke-linejoin="round"/>
<path d="M24.2217 137.416H142.548" stroke="#A5B7C6" stroke-width="0.389477" stroke-linecap="round" stroke-linejoin="round"/>
<path d="M24.2217 124.155H142.548" stroke="#A5B7C6" stroke-width="0.389477" stroke-linecap="round" stroke-linejoin="round"/>
<path d="M24.2217 110.912H142.548" stroke="#A5B7C6" stroke-width="0.389477" stroke-linecap="round" stroke-linejoin="round"/>
<path d="M24.2217 97.6519H142.548" stroke="#A5B7C6" stroke-width="0.389477" stroke-linecap="round" stroke-linejoin="round"/>
<path d="M24.2217 84.3911H142.548" stroke="#A5B7C6" stroke-width="0.389477" stroke-linecap="round" stroke-linejoin="round"/>
<path d="M24.2217 71.1304H142.548" stroke="#A5B7C6" stroke-width="0.389477" stroke-linecap="round" stroke-linejoin="round"/>
<path d="M24.2217 57.8691H142.548" stroke="#A5B7C6" stroke-width="0.389477" stroke-linecap="round" stroke-linejoin="round"/>
<path d="M24.2217 44.6274H142.548" stroke="#A5B7C6" stroke-width="0.389477" stroke-linecap="round" stroke-linejoin="round"/>
<path d="M24.2217 31.3672H142.548" stroke="#A5B7C6" stroke-width="0.389477" stroke-linecap="round" stroke-linejoin="round"/>
<path d="M38.391 267.872C37.6864 267.589 37.1177 267.046 36.8034 266.355C36.489 265.664 36.4531 264.879 36.7033 264.162L72.0529 172.895C72.3311 172.188 72.8748 171.617 73.5678 171.305C74.2609 170.993 75.0484 170.965 75.7622 171.226C76.4665 171.508 77.034 172.052 77.3453 172.744C77.6566 173.435 77.6874 174.221 77.4314 174.935L42.1003 266.202C41.8184 266.907 41.2742 267.474 40.5825 267.785C39.8907 268.097 39.1051 268.128 38.391 267.872Z" fill="#818487"/>
<path d="M91.6562 171.096C90.9515 171.378 90.3829 171.921 90.0685 172.612C89.7541 173.303 89.7183 174.088 89.9684 174.805L125.318 266.072C125.596 266.78 126.14 267.35 126.833 267.662C127.526 267.974 128.314 268.002 129.027 267.742C129.732 267.46 130.299 266.915 130.61 266.224C130.922 265.532 130.953 264.746 130.697 264.032L95.3655 172.765C95.0835 172.061 94.5394 171.493 93.8476 171.182C93.1558 170.871 92.3703 170.84 91.6562 171.096Z" fill="#818487"/>
<path d="M150.467 167.238H17.0251C14.7614 167.238 12.9263 169.073 12.9263 171.337V174.787C12.9263 177.05 14.7614 178.885 17.0251 178.885H150.467C152.731 178.885 154.566 177.05 154.566 174.787V171.337C154.566 169.073 152.731 167.238 150.467 167.238Z" fill="#C2C7CC"/>
<path d="M162.764 170.892H4.76647C3.50232 170.892 2.28996 170.39 1.39608 169.496C0.502199 168.602 0 167.39 0 166.125C0.00490636 164.864 0.509295 163.657 1.40265 162.767C2.296 161.877 3.50553 161.377 4.76647 161.377H162.764C164.025 161.377 165.235 161.877 166.128 162.767C167.021 163.657 167.526 164.864 167.531 166.125C167.526 167.388 167.022 168.598 166.129 169.49C165.236 170.383 164.027 170.887 162.764 170.892Z" fill="#818487"/>
<path d="M83.7555 270.338C82.9848 270.333 82.247 270.025 81.702 269.48C81.1569 268.935 80.8486 268.197 80.8438 267.427V176.883C80.8437 176.109 81.1499 175.366 81.6955 174.817C82.241 174.268 82.9815 173.957 83.7555 173.952C84.5327 173.952 85.2781 174.261 85.8276 174.81C86.3772 175.36 86.6859 176.105 86.6859 176.883V267.427C86.681 268.201 86.3701 268.941 85.821 269.487C85.272 270.032 84.5295 270.338 83.7555 270.338Z" fill="#818487"/>
<path d="M83.7559 145.65C113.071 145.65 136.836 121.886 136.836 92.5703C136.836 63.255 113.071 39.4902 83.7559 39.4902C54.4405 39.4902 30.6758 63.255 30.6758 92.5703C30.6758 121.886 54.4405 145.65 83.7559 145.65Z" fill="#E66E82"/>
<path d="M83.7557 92.5703L35.1083 71.3716C31.5902 79.4477 30.1373 88.2726 30.8808 97.0503C31.6243 105.828 34.5407 114.283 39.3672 121.652C44.1936 129.021 50.7782 135.074 58.5274 139.263C66.2765 143.453 74.9466 145.648 83.7557 145.65C84.3678 145.65 84.9613 145.65 85.6104 145.65L83.7557 92.5703Z" fill="url(#paint0_linear_143_474)"/>
<path d="M82.272 145.613H83.7557C92.2258 145.606 100.571 143.573 108.095 139.683C115.619 135.792 122.103 130.158 127.004 123.25C131.906 116.343 135.083 108.362 136.271 99.9759C137.459 91.5894 136.622 83.0406 133.831 75.0435L83.7557 92.5328L82.272 145.613Z" fill="#AEE4F7"/>
<path d="M202.491 158.707H235.8C241.762 158.707 246.594 153.874 246.594 147.912V102.9C246.594 96.9387 241.762 92.106 235.8 92.106H202.491C196.529 92.106 191.697 96.9387 191.697 102.9V147.912C191.697 153.874 196.529 158.707 202.491 158.707Z" fill="#2D2A40"/>
<path d="M201.155 98.6162H237.136C242.359 98.6162 246.594 94.3814 246.594 89.1575V82.4622C246.594 77.2383 242.359 73.0035 237.136 73.0035H201.155C195.931 73.0035 191.697 77.2383 191.697 82.4622V89.1575C191.697 94.3814 195.931 98.6162 201.155 98.6162Z" fill="#2D2A40"/>
<path d="M215.529 266.388C215.293 268.142 215.293 269.92 215.529 271.674C217.32 273.032 219.309 274.108 221.426 274.864L223.281 273.176L224.023 275.42C224.023 275.42 232.22 278.963 239.565 277.794C239.805 277.741 240.023 277.618 240.192 277.439C240.361 277.26 240.472 277.035 240.511 276.793C240.937 275.235 241.475 271.933 239.213 269.838C236.523 267.334 231.293 266.351 227.38 264.459C226.296 263.742 225.078 263.25 223.8 263.013L219.646 262.623C218.612 262.619 217.615 263.004 216.852 263.702C216.09 264.399 215.617 265.358 215.529 266.388Z" fill="url(#paint1_linear_143_474)"/>
<path d="M240.901 275.29C240.843 275.83 240.737 276.364 240.586 276.885C240.547 277.128 240.436 277.353 240.267 277.532C240.098 277.71 239.88 277.834 239.64 277.887C232.221 279.055 224.098 275.513 224.098 275.513L223.356 273.269L221.501 274.956C219.384 274.201 217.395 273.125 215.603 271.766C215.534 271.287 215.491 270.804 215.474 270.32C217.152 271.543 219.036 272.454 221.038 273.009L223.838 270.987L225.693 274.085C230.563 275.842 235.815 276.258 240.901 275.29Z" fill="#541C1C"/>
<path d="M239.639 270.208C240.311 271.151 240.747 272.24 240.912 273.386C241.076 274.531 240.964 275.699 240.585 276.792C240.546 277.035 240.435 277.26 240.267 277.439C240.098 277.618 239.879 277.741 239.639 277.794C238.474 277.976 237.295 278.057 236.115 278.035C236.097 277.739 236.097 277.441 236.115 277.145C236.032 275.78 236.314 274.417 236.934 273.197C237.553 271.978 238.487 270.946 239.639 270.208Z" fill="#541C1C"/>
<path d="M227.881 265.22C227.51 266.054 227.12 266.852 226.842 267.686C226.564 268.521 226.36 269.541 227.065 269.541C227.77 269.541 228.011 268.762 228.029 267.928C228.045 267.023 227.996 266.118 227.881 265.22ZM227.881 265.22C228.238 266.063 228.457 266.959 228.53 267.872C228.585 268.36 228.527 268.855 228.363 269.318C228.267 269.6 228.075 269.84 227.821 269.996C227.567 270.151 227.267 270.214 226.972 270.172L226.564 270.042C226.421 269.962 226.295 269.855 226.193 269.727C226.035 269.478 225.963 269.185 225.989 268.892C226.026 268.407 226.159 267.935 226.378 267.501C226.772 266.675 227.277 265.907 227.881 265.22Z" fill="#8A2E2E"/>
<path d="M227.881 265.22C228.912 265.829 229.714 266.761 230.162 267.872C230.404 268.405 230.602 268.957 230.756 269.523C230.913 270.085 231.006 270.664 231.034 271.247C230.459 270.227 230.088 269.152 229.569 268.15C229.351 267.641 229.104 267.146 228.827 266.666C228.565 266.151 228.248 265.666 227.881 265.22Z" fill="#8A2E2E"/>
<path d="M207.016 266.388C207.253 268.142 207.253 269.92 207.016 271.674C205.217 273.031 203.222 274.106 201.1 274.864L199.245 273.176L198.522 275.42C198.522 275.42 190.306 278.963 182.961 277.794C182.724 277.737 182.508 277.612 182.34 277.434C182.172 277.256 182.059 277.033 182.016 276.793C181.589 275.235 181.07 271.933 183.314 269.838C186.022 267.334 191.252 266.351 195.146 264.459C196.232 263.745 197.449 263.253 198.726 263.013L202.899 262.623C203.934 262.615 204.933 262.999 205.697 263.697C206.461 264.395 206.932 265.357 207.016 266.388Z" fill="url(#paint2_linear_143_474)"/>
<path d="M181.645 275.29C181.712 275.829 181.817 276.362 181.96 276.885C182.003 277.126 182.116 277.349 182.284 277.527C182.452 277.704 182.668 277.83 182.906 277.887C190.324 279.055 198.466 275.513 198.466 275.513L199.19 273.269L201.044 274.956C203.166 274.199 205.161 273.123 206.961 271.766C206.961 271.266 207.053 270.783 207.09 270.32C205.41 271.54 203.526 272.451 201.526 273.009L198.726 270.987L196.778 274.085C191.931 275.828 186.706 276.245 181.645 275.29Z" fill="#541C1C"/>
<path d="M182.905 270.208C182.234 271.151 181.797 272.24 181.633 273.386C181.468 274.531 181.58 275.699 181.959 276.792C182.003 277.033 182.115 277.256 182.283 277.434C182.451 277.612 182.667 277.737 182.905 277.794C184.077 277.976 185.262 278.057 186.447 278.035C186.447 277.738 186.447 277.442 186.447 277.145C186.529 275.778 186.244 274.414 185.621 273.194C184.998 271.975 184.061 270.944 182.905 270.208Z" fill="#541C1C"/>
<path d="M194.664 265.22C195.273 265.907 195.785 266.674 196.185 267.501C196.404 267.935 196.537 268.407 196.574 268.892C196.602 269.188 196.523 269.484 196.352 269.727C196.257 269.855 196.137 269.962 195.999 270.042L195.573 270.172C195.278 270.214 194.977 270.151 194.724 269.996C194.47 269.84 194.278 269.6 194.182 269.318C194.017 268.855 193.96 268.36 194.015 267.872C194.088 266.959 194.307 266.063 194.664 265.22ZM194.664 265.22C194.566 266.106 194.523 266.998 194.534 267.89C194.534 268.725 194.775 269.745 195.48 269.504C196.185 269.263 195.981 268.465 195.702 267.649C195.424 266.833 195.035 266.017 194.664 265.22Z" fill="#8A2E2E"/>
<path d="M194.664 265.22C194.304 265.661 193.993 266.14 193.736 266.648C193.477 267.13 193.198 267.612 192.976 268.132C192.457 269.133 192.086 270.209 191.511 271.229C191.539 270.645 191.632 270.067 191.789 269.504C191.933 268.949 192.113 268.404 192.327 267.872C192.797 266.757 193.617 265.826 194.664 265.22Z" fill="#8A2E2E"/>
<path d="M218.385 262.994C219.127 244.652 218.793 226.124 218.274 207.652C217.755 189.179 216.92 170.559 215.863 152.216L231.59 151.882C231.238 170.559 230.663 189.124 229.736 207.744C228.808 226.365 227.77 244.967 225.618 263.607L218.385 262.994Z" fill="#FFC999"/>
<path d="M197.186 263.588C195.109 244.949 194.089 226.347 193.218 207.744C192.346 189.142 191.827 170.559 191.493 151.882L206.886 152.216C205.866 170.633 205.032 189.179 204.512 207.652C203.993 226.124 203.659 244.745 204.345 263.013L197.186 263.588Z" fill="#FFC999"/>
<path d="M189.267 161.452C189.155 172.784 199.003 182.057 211.263 182.057C223.522 182.057 233.37 172.784 233.277 161.452C233.185 150.12 223.336 141.181 211.281 141.181C199.226 141.181 189.378 150.213 189.267 161.452Z" fill="#2D2A40"/>
<path d="M232.907 161.452C234.224 178.366 233.167 208.374 233.167 208.374C219.071 211.101 214.62 208.374 214.62 208.374C215.012 195.629 214.646 182.871 213.526 170.169H208.611C207.492 182.871 207.132 195.629 207.535 208.374C207.535 208.374 203.084 211.101 188.989 208.374C188.989 208.374 187.932 178.366 189.248 161.452" fill="#2D2A40"/>
<path d="M157.312 118.962C145.572 118.962 133.999 113.732 122.797 103.383C121.858 102.407 121.327 101.11 121.314 99.7555C121.301 98.4015 121.806 97.0938 122.726 96.1003C123.646 95.1068 124.911 94.5027 126.262 94.4119C127.613 94.321 128.948 94.7503 129.993 95.6118C140.546 105.367 151.154 109.54 161.522 108.056C181.181 105.237 194.627 83.1485 194.757 82.926C195.475 81.7209 196.643 80.8504 198.003 80.5061C199.363 80.1617 200.804 80.3717 202.009 81.0899C203.214 81.808 204.084 82.9755 204.429 84.3355C204.773 85.6954 204.563 87.1365 203.845 88.3416C203.214 89.4358 187.784 114.956 163.043 118.535C161.145 118.814 159.23 118.957 157.312 118.962Z" fill="#FFC999"/>
<path d="M208.315 83.2784C208.315 83.2784 204.364 102.159 191.029 111.265C191.029 111.265 180.346 105.701 176.563 97.5593C180.535 95.8277 183.877 92.9133 186.133 89.2133C190.714 82.4995 208.185 75.5816 208.315 83.2784Z" fill="url(#paint3_linear_143_474)"/>
<path d="M127.415 104.44C126.773 105.048 125.965 105.451 125.093 105.6C124.222 105.748 123.326 105.635 122.518 105.274C120.23 104.291 118.209 102.778 116.621 100.86C113.394 96.706 117.418 94.8884 119.421 91.5871C121.424 88.2859 124.169 86.969 127.563 90.4001C130.679 93.553 132.497 97.0583 132.237 99.3766C132.168 99.7579 131.972 100.105 131.68 100.36L127.415 104.44Z" fill="#FFC999"/>
<path d="M130.029 98.0038C130.248 98.2347 130.523 98.4053 130.827 98.4993C131.131 98.5932 131.454 98.6074 131.766 98.5403C132.077 98.4732 132.365 98.3272 132.604 98.1164C132.842 97.9055 133.022 97.6368 133.127 97.3361C133.826 95.2676 134.06 93.0701 133.813 90.9005C133.108 86.4864 133.98 84.7616 131.513 85.3365C130.307 85.5776 128.824 88.6935 129.473 91.1787C129.75 92.4548 129.51 93.7887 128.805 94.888C128.626 95.2244 128.555 95.6079 128.601 95.9862C128.648 96.3645 128.81 96.7193 129.065 97.0023L130.029 98.0038Z" fill="#FFC999"/>
<path d="M124.002 92.1619C124.346 92.1848 124.691 92.1108 124.996 91.9484C125.301 91.7859 125.555 91.5415 125.728 91.2426C125.902 90.9436 125.989 90.6021 125.978 90.2566C125.968 89.9111 125.862 89.5753 125.671 89.2871C124.206 87.1914 122.388 84.5763 121.368 83.037C119.513 80.2179 117.51 77.0279 116.249 78.456C115.285 79.5688 120.626 88.3227 122.629 91.3458C122.783 91.5755 122.986 91.7679 123.223 91.9091C123.461 92.0503 123.726 92.1366 124.002 92.1619Z" fill="#FFC999"/>
<path d="M186.504 156.185C185.841 132.647 186.901 109.091 189.675 85.7079C197.094 77.77 213.025 78.4748 213.025 78.4748C213.025 78.4748 226.564 77.2136 236.375 85.7079C238.426 109.178 239.045 132.751 238.23 156.296C238.185 158.385 237.394 160.388 235.999 161.943C234.604 163.498 232.697 164.502 230.626 164.772C218.462 166.061 206.197 166.061 194.034 164.772C191.957 164.482 190.053 163.456 188.671 161.879C187.289 160.303 186.519 158.281 186.504 156.185Z" fill="url(#paint4_linear_143_474)"/>
<path d="M224.024 79.4576C225.308 79.159 226.652 79.2441 227.888 79.7024C229.124 80.1607 230.199 80.972 230.979 82.0356C230.979 82.0356 223.356 113.806 238.638 140.587C238.638 140.587 240.252 146.151 238.638 149.619C238.694 149.619 214.379 135.171 224.024 79.4576Z" fill="#2D2A40"/>
<path d="M200.061 79.8472C198.918 79.5722 197.717 79.6664 196.631 80.1162C195.545 80.566 194.629 81.3484 194.015 82.351C194.015 82.351 197.594 113.268 186.596 139.419C186.596 139.419 184.612 144.983 186.281 148.914C186.281 148.914 206.126 136.804 200.061 79.8472Z" fill="#2D2A40"/>
<path d="M220.759 79.9026C221.092 82.1838 219.757 83.1482 217.569 83.8901C216.052 84.4065 214.46 84.6697 212.858 84.669C211.497 84.6662 210.143 84.4791 208.833 84.1127C206.496 83.4264 204.976 82.4249 205.328 80.0138L206.2 73.8564H219.906L220.759 79.9026Z" fill="#FFC999"/>
<path d="M205.31 79.8469L206.163 73.8564H219.869L220.333 77.1577C215.514 78.8995 210.434 79.8089 205.31 79.8469Z" fill="#E6B58C"/>
<path d="M237.544 41.9007C237.544 41.9007 241.346 34.816 246.483 38.1914C251.083 41.2701 245.686 58.778 237.97 53.2697L237.544 41.9007Z" fill="#FFC999"/>
<path d="M239.064 42.6984C239.064 42.6984 241.791 36.9861 245.407 39.731C248.653 42.1791 244.702 54.9576 239.268 50.5621L239.064 42.6984Z" fill="#E6B58C"/>
<path d="M242.829 45.7585C242.871 46.1766 242.783 46.5972 242.578 46.964C242.373 47.3307 242.061 47.626 241.683 47.8102C241.306 47.9944 240.881 48.0587 240.466 47.9945C240.051 47.9302 239.665 47.7405 239.361 47.4508C239.057 47.1611 238.848 46.7852 238.764 46.3737C238.679 45.9622 238.723 45.5347 238.889 45.1486C239.054 44.7625 239.334 44.4364 239.69 44.2139C240.047 43.9914 240.462 43.8832 240.882 43.9039C241.133 43.8913 241.384 43.93 241.62 44.0175C241.856 44.1051 242.072 44.2397 242.254 44.4132C242.436 44.5867 242.581 44.7954 242.68 45.0267C242.779 45.258 242.83 45.507 242.829 45.7585Z" fill="#FFC999"/>
<path d="M244.684 40.1577C246.668 41.6599 246.205 47.1497 244.146 50.0986C246.576 47.3537 247.54 41.3261 245.407 39.7311C244.858 39.2573 244.157 38.9966 243.432 38.9966C242.707 38.9966 242.006 39.2573 241.457 39.7311C241.979 39.4846 242.561 39.3938 243.133 39.4695C243.705 39.5451 244.244 39.7841 244.684 40.1577Z" fill="#D1A57F"/>
<path d="M182.739 38.2663C187.876 34.8166 191.678 41.9756 191.678 41.9756L191.252 53.4188C183.536 58.8529 178.139 41.345 182.739 38.2663Z" fill="#E6B58C"/>
<path d="M191.029 24.7643C189.429 30.3102 188.19 35.954 187.32 41.6602C186.207 47.4467 182.85 66.6238 200.914 73.6529C218.979 80.682 235.578 70.3516 239.046 57.8698C242.387 47.4172 241.933 36.1213 237.766 25.9699C233.426 13.9703 223.43 9.92708 212.933 9.81581C202.751 9.70453 194.423 14.6379 191.029 24.7643Z" fill="#FFC999"/>
<path d="M196.835 20.5352C196.835 20.5352 193.033 23.5026 191.679 30.9027C190.325 38.3027 189.212 40.6581 187.469 40.6396C185.725 40.621 184.983 24.875 193.663 17.2153L196.835 20.5352Z" fill="#AD6A21"/>
<path d="M242.829 38.5069C242.829 38.5069 240.492 42.2162 236.876 40.7325C233.259 39.2488 232.536 20.1088 232.536 20.1088C232.536 20.1088 216.678 23.6883 203.325 22.8537L207.034 19.3855C207.034 19.3855 194.052 24.9494 185.02 15.6762C188.751 12.0466 193.368 9.45706 198.41 8.16485L193.551 7.29316C193.551 7.29316 194.534 4.41847 205.309 1.22847C216.085 -1.96153 231.701 0.801893 235.893 12.5789C235.855 12.5233 245.5 16.3995 242.829 38.5069Z" fill="#C97B27"/>
<path d="M226.564 57.2017C225.897 59.8724 224.339 67.6062 213.897 68.6634C202.343 69.8318 197.595 59.52 197.595 59.52C207.311 60.5714 217.139 59.7849 226.564 57.2017Z" fill="#FCFFFF"/>
<path d="M210.484 45.313C210.159 47.1411 209.309 48.8351 208.038 50.1886C206.767 51.542 205.129 52.4965 203.325 52.9356C204.065 54.1244 205.138 55.0695 206.411 55.6532C207.684 56.2369 209.1 56.4334 210.484 56.2183C209.418 55.5668 208.557 54.6285 207.999 53.5106C209.125 52.5037 209.953 51.2062 210.391 49.7603C210.83 48.3145 210.862 46.7759 210.484 45.313Z" fill="#DBB08A"/>
<path d="M216.809 30.0685C218.954 29.0431 221.349 28.6568 223.708 28.9557C224.906 29.1141 226.071 29.4648 227.158 29.9943C228.219 30.5534 229.129 31.3617 229.81 32.3497C228.843 31.7762 227.817 31.3098 226.749 30.9587C225.702 30.6379 224.628 30.4083 223.541 30.2725C221.305 30.0445 219.055 29.9763 216.809 30.0685Z" fill="#AD6A22"/>
<path d="M204.215 31.2364C202.245 30.9403 200.25 30.8532 198.262 30.9767C197.291 31.0314 196.328 31.1805 195.387 31.4219C194.413 31.6866 193.453 32.0023 192.512 32.3677C193.209 31.5741 194.069 30.9413 195.035 30.513C196.014 30.0554 197.071 29.785 198.15 29.7156C200.287 29.5051 202.43 30.0427 204.215 31.2364Z" fill="#AD6A22"/>
<path d="M214.249 45.1652C214.249 45.1652 215.139 35.4839 222.076 35.4839C229.012 35.4839 229.253 45.1652 229.253 45.1652C226.886 46.1949 224.332 46.7263 221.751 46.7263C219.17 46.7263 216.616 46.1949 214.249 45.1652Z" fill="#FCFFFF"/>
<path d="M214.249 45.1646C214.311 42.8559 214.949 40.5991 216.104 38.5992C216.7 37.5667 217.524 36.6847 218.515 36.0212C219.555 35.3829 220.745 35.031 221.964 35.0011C223.186 34.9788 224.39 35.2864 225.451 35.8914C226.455 36.5547 227.282 37.4521 227.862 38.5064C228.915 40.5619 229.407 42.8583 229.29 45.1646C229.03 42.9532 228.317 40.8191 227.194 38.8959C226.633 38.0034 225.871 37.2541 224.969 36.7074C224.058 36.2225 223.033 35.9919 222.001 36.0397C220.958 36.0618 219.936 36.3491 219.034 36.8744C218.131 37.4465 217.354 38.1976 216.753 39.0814C216.125 39.981 215.62 40.9601 215.25 41.9931C214.835 43.0228 214.5 44.0832 214.249 45.1646Z" fill="#AD6A22"/>
<path d="M218.441 38.8037C217.884 38.8037 217.384 39.3416 217.087 40.1576L217.773 41.122L216.809 41.5486C216.809 41.697 216.809 41.8268 216.809 41.9566C216.809 43.7186 217.55 45.1281 218.459 45.1281C219.368 45.1281 220.128 43.7186 220.128 41.9566C220.128 40.1947 219.368 38.8037 218.441 38.8037Z" fill="#633424"/>
<path d="M193.05 44.813C193.05 44.813 193.866 35.9292 200.246 35.9292C206.626 35.9292 206.83 44.813 206.83 44.813C204.656 45.7568 202.311 46.2439 199.94 46.2439C197.57 46.2439 195.225 45.7568 193.05 44.813Z" fill="#FCFFFF"/>
<path d="M193.05 44.8133C193.107 42.6981 193.68 40.6288 194.719 38.7857C195.275 37.8431 196.035 37.0379 196.945 36.4302C197.898 35.8508 198.983 35.5252 200.098 35.4844C201.217 35.4702 202.319 35.7585 203.288 36.3189C204.224 36.9104 204.991 37.7348 205.513 38.7115C206.478 40.5954 206.932 42.6992 206.83 44.8133C206.613 42.7899 205.982 40.8329 204.976 39.0638C204.462 38.2408 203.763 37.5486 202.936 37.0423C202.097 36.5786 201.148 36.3541 200.191 36.3931C199.228 36.4043 198.283 36.6596 197.446 37.135C196.632 37.6731 195.933 38.3663 195.387 39.1751C194.246 40.8832 193.452 42.7989 193.05 44.8133Z" fill="#AD6A22"/>
<path d="M196.63 38.9702C196.111 38.9702 195.666 39.471 195.388 40.2129L196.018 41.1031L195.128 41.4926C195.128 41.6224 195.128 41.7522 195.128 41.882C195.128 43.477 195.814 44.7753 196.649 44.7753C197.483 44.7753 198.17 43.477 198.17 41.882C198.17 40.287 197.465 38.9702 196.63 38.9702Z" fill="#633424"/>
<path d="M199.261 136.669L187.205 153.287C185.358 155.833 185.925 159.393 188.47 161.24L220.371 184.383C222.916 186.229 226.476 185.663 228.323 183.117L240.379 166.499C242.226 163.954 241.659 160.393 239.114 158.547L207.213 135.404C204.668 133.557 201.108 134.124 199.261 136.669Z" fill="#464361"/>
<path d="M226.749 180.387L237.265 165.903C238.029 164.818 238.334 163.476 238.116 162.167C237.897 160.858 237.172 159.688 236.096 158.911L207.887 138.509C206.817 137.729 205.483 137.403 204.174 137.6C202.865 137.798 201.686 138.505 200.895 139.567L190.472 153.996C189.702 155.074 189.391 156.413 189.607 157.72C189.822 159.027 190.547 160.195 191.622 160.969L219.85 181.37C220.902 182.135 222.211 182.459 223.498 182.276C224.786 182.093 225.952 181.415 226.749 180.387Z" fill="#565278"/>
<path d="M241.735 101.342C241.635 100.631 241.39 99.9472 241.017 99.333C240.644 98.7188 240.15 98.1868 239.565 97.7693C238.98 97.3517 238.317 97.0574 237.614 96.9042C236.912 96.751 236.186 96.742 235.481 96.8779C234.775 97.0137 234.104 97.2915 233.509 97.6945C232.914 98.0974 232.407 98.6171 232.019 99.2219C231.631 99.8268 231.37 100.504 231.252 101.213C231.133 101.922 231.16 102.647 231.331 103.345C233.352 113.861 230.941 125.267 224.153 137.248C221.647 141.408 218.826 145.37 215.715 149.1C213.229 152.215 209.817 156.518 204.086 164.067L212.525 170.447C218.181 163.028 221.538 158.781 223.986 155.721C227.405 151.637 230.505 147.296 233.26 142.738C233.26 142.738 233.26 142.645 233.371 142.59C241.42 128.272 244.258 114.418 241.735 101.342Z" fill="#FFC999"/>
<path d="M236.375 85.6525C236.375 85.6525 247.225 96.4651 242.718 119.314C240.289 120.345 237.671 120.856 235.033 120.814C232.394 120.773 229.794 120.18 227.398 119.073C228.524 112.468 229.095 105.78 229.105 99.0801C229.142 90.9568 231.608 81.2199 236.375 85.6525Z" fill="url(#paint5_linear_143_474)"/>
<path d="M216.437 162.398C216.829 165.781 216.182 169.202 214.583 172.209C212.005 176.586 209.019 173.637 205.309 172.969C201.6 172.302 199.504 170.354 201.377 166.107C203.251 161.86 206.033 158.818 208.332 158.688L216.437 162.398Z" fill="#FFC999"/>
<path d="M208.574 158.688C205.491 158.422 202.395 158.999 199.616 160.357C195.906 162.564 194.052 162.379 195.387 164.4C196.036 165.402 199.356 165.625 201.34 164.159C202.052 163.744 202.847 163.492 203.668 163.421C204.49 163.351 205.316 163.463 206.088 163.751L208.574 158.688Z" fill="#FFC999"/>
<path d="M213.656 170.224C213.89 170.353 214.096 170.528 214.26 170.739C214.425 170.95 214.545 171.192 214.612 171.45C214.68 171.709 214.694 171.979 214.654 172.243C214.614 172.508 214.52 172.761 214.379 172.988C212.524 176.493 210.8 179.609 209.334 178.385C208.203 177.402 209.334 174.193 210.725 171.504C210.956 170.955 211.389 170.516 211.935 170.278C212.48 170.04 213.096 170.021 213.656 170.224Z" fill="#FFC999"/>
<path d="M210.021 169.668C210.255 169.797 210.461 169.972 210.625 170.183C210.79 170.394 210.91 170.636 210.977 170.894C211.045 171.153 211.059 171.423 211.019 171.687C210.979 171.951 210.885 172.205 210.744 172.432C208.889 175.937 207.146 179.053 205.699 177.829C204.549 176.846 205.699 173.637 207.072 170.948C207.31 170.401 207.747 169.964 208.294 169.727C208.841 169.489 209.459 169.468 210.021 169.668Z" fill="#FFC999"/>
<path d="M206.887 168.184C207.118 168.316 207.32 168.494 207.481 168.705C207.642 168.917 207.759 169.159 207.825 169.417C207.89 169.675 207.904 169.943 207.864 170.206C207.823 170.469 207.731 170.721 207.591 170.948C205.737 174.453 204.012 177.569 202.547 176.345C201.415 175.362 202.547 172.153 203.938 169.464C204.172 168.914 204.609 168.475 205.157 168.237C205.706 167.999 206.325 167.98 206.887 168.184Z" fill="#FFC999"/>
<path d="M203.697 167.238C203.929 167.367 204.132 167.541 204.295 167.751C204.458 167.96 204.577 168.2 204.644 168.457C204.712 168.713 204.727 168.98 204.688 169.243C204.65 169.505 204.559 169.757 204.42 169.983C202.566 173.489 200.822 176.623 199.376 175.38C198.226 174.416 199.728 169.909 201.026 167.22C201.601 166.051 202.658 166.756 203.697 167.22V167.238Z" fill="#FFC999"/>
<defs>
<linearGradient id="paint0_linear_143_474" x1="58.1509" y1="71.3716" x2="58.1509" y2="145.65" gradientUnits="userSpaceOnUse">
<stop stop-color="#84CCFA"/>
<stop offset="1" stop-color="#39ADF8"/>
</linearGradient>
<linearGradient id="paint1_linear_143_474" x1="228.122" y1="262.623" x2="228.122" y2="278.031" gradientUnits="userSpaceOnUse">
<stop stop-color="#84CCFA"/>
<stop offset="1" stop-color="#39ADF8"/>
</linearGradient>
<linearGradient id="paint2_linear_143_474" x1="194.417" y1="262.623" x2="194.417" y2="278.031" gradientUnits="userSpaceOnUse">
<stop stop-color="#84CCFA"/>
<stop offset="1" stop-color="#39ADF8"/>
</linearGradient>
<linearGradient id="paint3_linear_143_474" x1="192.439" y1="79.8921" x2="192.439" y2="111.265" gradientUnits="userSpaceOnUse">
<stop stop-color="#84CCFA"/>
<stop offset="1" stop-color="#39ADF8"/>
</linearGradient>
<linearGradient id="paint4_linear_143_474" x1="212.445" y1="78.4087" x2="212.445" y2="165.738" gradientUnits="userSpaceOnUse">
<stop stop-color="#84CCFA"/>
<stop offset="1" stop-color="#39ADF8"/>
</linearGradient>
<linearGradient id="paint5_linear_143_474" x1="235.606" y1="84.5425" x2="235.606" y2="120.817" gradientUnits="userSpaceOnUse">
<stop stop-color="#84CCFA"/>
<stop offset="1" stop-color="#39ADF8"/>
</linearGradient>
</defs>
</svg>
