<svg width="104" height="77" viewBox="0 0 104 77" fill="none" xmlns="http://www.w3.org/2000/svg">
<path d="M103.292 71.1109C69.2915 51.9936 35.3223 90.351 1.32227 71.1109V7.16141C35.3223 26.3401 69.2915 -12.0173 103.292 7.16141V71.1109Z" fill="#FDFFFF"/>
<path d="M103.292 71.1117C69.2915 51.9944 35.3223 90.3518 1.32227 71.1117V38.0937C35.3223 57.2724 69.2915 18.9456 103.292 38.0937V71.1117Z" fill="#DB2E2E"/>
<path d="M1.32227 49.724C35.3223 68.9334 69.3223 30.5453 103.353 49.724V28.2438C69.3223 9.03444 35.3223 47.4225 1.32227 28.2438V49.724Z" fill="#3C5EBF"/>
<path style="mix-blend-mode:multiply" d="M102.616 26.985V48.4651V69.9453C68.6165 50.8279 34.6165 89.1546 0.647217 69.9453V5.84237C34.6165 25.0518 68.6165 -13.3056 102.616 5.84237V26.985Z" fill="url(#paint0_linear_482_5639)"/>
<path style="mix-blend-mode:overlay" opacity="0.25" d="M102.616 26.985V48.4651V69.9453C68.6165 50.8279 34.6165 89.1546 0.647217 69.9453V5.84237C34.6165 25.0518 68.6165 -13.3056 102.616 5.84237V26.985Z" fill="url(#paint1_linear_482_5639)"/>
<defs>
<linearGradient id="paint0_linear_482_5639" x1="0.616531" y1="37.8478" x2="102.616" y2="37.8478" gradientUnits="userSpaceOnUse">
<stop stop-color="white"/>
<stop offset="0.13" stop-color="#F7F7F7"/>
<stop offset="0.34" stop-color="#E0E0E1"/>
<stop offset="0.54" stop-color="#C4C5C6"/>
<stop offset="0.57" stop-color="#C1C2C3"/>
<stop offset="0.69" stop-color="#BEBFC0"/>
<stop offset="0.91" stop-color="white"/>
</linearGradient>
<linearGradient id="paint1_linear_482_5639" x1="0.616531" y1="37.8478" x2="102.616" y2="37.8478" gradientUnits="userSpaceOnUse">
<stop stop-color="white"/>
<stop offset="0.13" stop-color="#F7F7F7"/>
<stop offset="0.34" stop-color="#E0E0E1"/>
<stop offset="0.54" stop-color="#C4C5C6"/>
<stop offset="0.57" stop-color="#C1C2C3"/>
<stop offset="0.69" stop-color="#BEBFC0"/>
<stop offset="0.91" stop-color="white"/>
</linearGradient>
</defs>
</svg>
