<svg width="94" height="105" viewBox="0 0 94 105" fill="none" xmlns="http://www.w3.org/2000/svg">
<g clip-path="url(#clip0_482_5385)">
<path d="M92.798 0.571289H0.933838V96.0872H92.798V0.571289Z" fill="#FEB300"/>
<path d="M14.2092 26.1587C14.2092 26.1587 15.8844 24.8102 17.9364 28.8222C20.8511 24.1988 24.5113 26.0331 24.5113 26.0331C24.5113 26.0331 20.5328 23.4199 18.129 26.5775C15.5242 23.847 14.2092 26.1587 14.2092 26.1587Z" fill="white"/>
<path d="M21.7893 17.2555C21.7893 17.2555 22.7776 15.3626 26.2787 18.2103C26.9236 14.0225 30.1482 14.6256 30.1482 14.6256C30.1482 14.6256 26.4964 12.2301 25.5584 16.0829C22.0741 14.6088 21.7893 17.2555 21.7893 17.2555Z" fill="white"/>
<path d="M5.59082 4.9597C5.59082 4.9597 6.98955 4.12213 8.10352 7.36351C10.1974 4.85082 12.0484 6.57621 12.0484 6.57621C12.0484 6.57621 10.633 3.56935 8.48879 5.69677C6.83041 3.35158 5.59082 4.9597 5.59082 4.9597Z" fill="white"/>
<path d="M92.798 72.4514H0.933838V44.5772L16.144 33.9401L18.7907 36.0759L38.9509 21.1003L40.3832 22.4236L44.236 19.7685L53.734 26.6031L65.6441 15.0195L84.5648 35.4561L87.7307 32.7592L92.798 37.483V72.4514Z" fill="#113F7A"/>
<g style="mix-blend-mode:multiply" opacity="0.3">
<path d="M34.0596 69.1515L52.1091 59.6367L53.399 70.8098" fill="#333E63"/>
</g>
<g style="mix-blend-mode:multiply" opacity="0.3">
<path d="M53.3989 76.8149L58.9017 61.588L71.1386 70.5499L61.6992 78.2304H72.7886L68.383 69.9637L65.0746 49.7783L85.2348 80.9944" fill="#333E63"/>
</g>
<g style="mix-blend-mode:multiply" opacity="0.3">
<path d="M3.7063 72.8869L15.315 53.916V61.5881L14.804 72.0744L18.7909 72.4513L21.1947 62.2079L26.8482 71.9069" fill="#333E63"/>
</g>
<path d="M92.798 96.0876H0.933838V65.7677C37.4349 72.4683 58.9017 62.9367 92.798 66.4629V96.0876Z" fill="#8DCC93"/>
<path d="M92.798 83.2559H0.933838V96.0874H92.798V83.2559Z" fill="#63B96B"/>
<path d="M87.7306 89.6884C87.7306 89.6884 69.4382 72.2754 46.8658 72.2754C24.2934 72.2754 6.00098 89.6884 6.00098 89.6884C6.00098 97.6201 24.2934 104.044 46.8658 104.044C69.4382 104.044 87.7306 97.6201 87.7306 89.6884Z" fill="#63B96B"/>
<g style="mix-blend-mode:multiply" opacity="0.3">
<path d="M18.8997 73.8498C18.8997 73.8498 18.1542 72.1746 18.8997 71.8312C19.6451 71.4878 19.9047 73.3137 19.9047 73.3137C19.9047 73.3137 20.1811 70.6084 21.0522 70.6419C21.9233 70.6754 21.3956 73.5148 21.3956 73.5148C21.3956 73.5148 22.1327 71.8396 22.8111 72.25C23.4895 72.6604 23.1461 74.2602 23.1461 74.2602" fill="#333E63"/>
</g>
<g style="mix-blend-mode:multiply" opacity="0.3">
<path d="M33.3811 82.1499C33.3811 82.1499 32.5435 80.19 33.0461 79.989C33.5486 79.788 34.3946 81.0695 34.3946 81.0695C34.3946 81.0695 33.9925 79.252 34.939 79.252C35.8854 79.252 35.7765 81.4715 35.7765 81.4715C35.7765 81.4715 36.321 79.989 36.924 80.257C37.527 80.525 37.2674 82.4849 37.2674 82.4849" fill="#333E63"/>
</g>
<g style="mix-blend-mode:multiply" opacity="0.3">
<path d="M7.64283 80.3324C7.64283 80.3324 6.89739 78.8583 7.64283 78.6573C8.38826 78.4563 8.72328 79.8299 8.72328 79.8299C8.72328 79.8299 8.72328 77.6689 9.46871 77.6689C10.2141 77.6689 10.0718 80.0309 10.0718 80.0309" fill="#333E63"/>
</g>
<g style="mix-blend-mode:multiply" opacity="0.3">
<path d="M18.7909 36.0753L9.38501 46.1931L19.084 41.4943L17.3503 49.7778L28.7746 32.3314L40.8188 27.7917L41.8574 23.0763L38.9511 21.0996L18.7909 36.0753Z" fill="#333E63"/>
</g>
<g style="mix-blend-mode:multiply" opacity="0.3">
<path d="M65.6442 15.0195L53.734 26.6031L49.7053 39.4681L56.1378 34.3003L78.0988 46.9475L70.2006 26.5779L65.1668 23.4454L65.6442 15.0195Z" fill="#333E63"/>
</g>
<g style="mix-blend-mode:multiply" opacity="0.3">
<path d="M47.1256 78.7663C51.7004 78.7663 55.4091 77.8926 55.4091 76.8148C55.4091 75.737 51.7004 74.8633 47.1256 74.8633C42.5507 74.8633 38.842 75.737 38.842 76.8148C38.842 77.8926 42.5507 78.7663 47.1256 78.7663Z" fill="#333E63"/>
</g>
<path d="M57.4946 41.9218H56.7241C56.7241 41.9218 57.0591 49.4599 48.8342 49.2254L48.5495 48.279L49.1944 46.5536L48.5495 45.4815L47.6533 47.0896L45.7687 39.4678H45.0149V48.0696L42.8456 43.3373L42.0081 43.9739L44.9479 50.2472C44.9479 50.2472 44.8558 52.9861 44.6548 55.75C44.0101 55.649 43.398 55.3988 42.8672 55.0192C42.3364 54.6397 41.9017 54.1414 41.5977 53.564L42.0081 51.9475L41.6898 51.512L41.1203 52.7432C40.8307 52.1871 40.5897 51.607 40.3999 51.0094C40.3999 51.0094 41.1789 51.0094 39.5038 51.0094C39.2274 55.6663 44.3281 58.5475 44.3281 58.5475L44.0685 75.4915V76.4965C46.8827 77.979 50.5931 76.597 50.5931 76.597L50.1157 67.5262L49.2781 51.5538C51.3134 51.3193 57.5114 50.1635 57.4946 41.9218Z" fill="#A43548"/>
<g style="mix-blend-mode:multiply" opacity="0.3">
<path d="M44.7803 66.4958C44.7611 66.7574 44.7982 67.0202 44.8892 67.2663C44.9339 67.3889 45.013 67.4959 45.117 67.5746C45.221 67.6533 45.3454 67.7004 45.4755 67.7102C45.8775 67.7102 46.1121 67.2747 46.2293 66.8727C46.5399 65.8017 46.6226 64.6776 46.4722 63.5727C46.3884 62.8607 45.7268 61.4452 45.0986 62.6932C44.6463 63.648 44.8222 65.4237 44.7803 66.4958Z" fill="#333E63"/>
</g>
<g style="mix-blend-mode:multiply" opacity="0.3">
<path d="M47.4104 60.6328C47.4144 60.8926 47.4866 61.1467 47.6198 61.3698C47.6906 61.4732 47.7986 61.5452 47.9213 61.5708C48.0089 61.5684 48.0939 61.54 48.1655 61.4893C48.237 61.4387 48.2919 61.3679 48.3233 61.2861C48.3803 61.1193 48.4003 60.9421 48.382 60.7668C48.3261 58.8571 48.2284 56.9531 48.0888 55.0546C48.11 54.2357 47.9042 53.4269 47.4941 52.7178C47.1147 53.7393 47.0079 54.842 47.1842 55.9173C47.2931 57.5086 47.2931 59.0749 47.4104 60.6328Z" fill="#333E63"/>
</g>
<g style="mix-blend-mode:multiply" opacity="0.3">
<path d="M48.7001 63.1457C48.2059 62.3081 47.092 64.335 48.1305 64.6366C48.234 64.6563 48.3411 64.6435 48.437 64.6C48.533 64.5566 48.6132 64.4845 48.6666 64.3937C48.7657 64.2054 48.8148 63.9949 48.809 63.7823C48.8325 63.5641 48.7948 63.3436 48.7001 63.1457Z" fill="#333E63"/>
</g>
<g style="mix-blend-mode:multiply" opacity="0.3">
<path d="M50.5513 76.5464C50.5513 76.5464 46.8408 77.9284 44.0266 76.4459V75.4408C44.3203 75.7191 44.6708 75.9305 45.0539 76.0606C45.437 76.1907 45.8437 76.2364 46.2462 76.1946C46.484 76.1773 46.7113 76.0899 46.8995 75.9434C47.043 75.793 47.1517 75.6128 47.2177 75.4157C47.6269 74.4368 47.8785 73.3994 47.9632 72.3418C47.9481 71.4302 48.081 70.5222 48.3568 69.6532C48.5697 69.1964 48.8522 68.7754 49.1944 68.4053C49.4708 68.0786 49.7639 67.7687 50.0319 67.4756L50.5513 76.5464Z" fill="#333E63"/>
</g>
<path d="M70.3011 32.0554C70.3011 35.6569 67.3863 35.5564 63.7764 35.5564C60.1665 35.5564 57.2686 35.6569 57.2686 32.0554C57.2683 31.7384 57.2936 31.4219 57.3439 31.1089C57.5246 29.8223 58.0862 28.6192 58.9565 27.6545C59.8268 26.6898 60.9659 26.0077 62.2272 25.6959C63.4885 25.3842 64.8143 25.4572 66.0338 25.9054C67.2532 26.3536 68.3107 27.1566 69.0698 28.211C69.8843 29.326 70.3162 30.6746 70.3011 32.0554Z" fill="#72BC54"/>
<g style="mix-blend-mode:multiply" opacity="0.3">
<path d="M70.3011 32.0554C70.3011 35.6569 67.3863 35.5564 63.7764 35.5564C60.1665 35.5564 57.2686 35.6569 57.2686 32.0554C57.2683 31.7384 57.2936 31.4219 57.3439 31.1089C58.2384 31.4751 59.2006 31.6464 60.1665 31.6115C61.6257 31.5413 63.0621 31.2212 64.413 30.665C66.0482 30.0438 67.5987 29.2193 69.028 28.2109C69.8574 29.3208 70.3041 30.6699 70.3011 32.0554Z" fill="#333E63"/>
</g>
<path d="M65.3761 39.2083C65.3761 48.7063 57.6705 48.4215 48.1725 48.4215C38.6745 48.4215 30.9605 48.6979 30.9605 39.2083C30.9534 36.6509 31.5261 34.1251 32.6356 31.821C34.2295 28.423 36.8913 25.6397 40.2149 23.8961C43.5385 22.1524 47.3413 21.544 51.043 22.1638C54.7447 22.7836 58.1419 24.5975 60.7163 27.3287C63.2906 30.0599 64.9007 33.5584 65.3007 37.2903C65.3641 37.9275 65.3892 38.568 65.3761 39.2083Z" fill="#72BC54"/>
<g style="mix-blend-mode:multiply" opacity="0.3">
<path d="M65.3761 39.2086C65.3761 48.7066 57.6705 48.4218 48.1725 48.4218C38.6745 48.4218 30.9605 48.6982 30.9605 39.2086C30.9534 36.6512 31.5261 34.1255 32.6356 31.8213C33.3996 34.8898 35.262 37.5717 37.8704 39.3594C42.0164 42.1987 47.4103 42.7096 52.3687 41.8721C56.8664 41.0764 61.0961 39.2589 65.2672 37.3408C65.3398 37.9608 65.3761 38.5844 65.3761 39.2086Z" fill="#333E63"/>
</g>
<path d="M45.2244 48.4301V48.5306C45.2244 52.308 42.1421 52.2075 38.3647 52.2075C34.5873 52.2075 31.5218 52.308 31.5218 48.5306C31.5126 48.4499 31.5126 48.3684 31.5218 48.2877C31.5407 46.4729 32.2797 44.7398 33.5764 43.4699C34.873 42.1999 36.621 41.4971 38.4359 41.516C40.2507 41.5349 41.9837 42.2739 43.2537 43.5706C44.5236 44.8672 45.2265 46.6152 45.2076 48.4301H45.2244Z" fill="#72BC54"/>
<g style="mix-blend-mode:multiply" opacity="0.3">
<path d="M48.4574 25.9577C49.2336 26.2961 50.0732 26.4646 50.9198 26.4519C51.0454 26.4577 51.1708 26.4377 51.2883 26.3933C51.4587 26.3092 51.5954 26.1698 51.6761 25.9978C51.7568 25.8258 51.7765 25.6315 51.7323 25.4468C51.5145 24.425 49.7556 23.7717 48.8175 23.8387C48.6031 23.8457 48.395 23.913 48.2172 24.033C48.0394 24.1531 47.8991 24.3209 47.8125 24.5171C47.4523 25.2123 47.7873 25.6981 48.4574 25.9577Z" fill="#333E63"/>
</g>
<g style="mix-blend-mode:multiply" opacity="0.3">
<path d="M52.9383 29.6435C54.2317 30.3502 55.7383 30.5616 57.1763 30.2382C57.4292 30.1958 57.6678 30.0923 57.8715 29.9367C58.0063 29.8113 58.1088 29.6552 58.17 29.4816C58.2313 29.308 58.2496 29.1222 58.2233 28.94C58.1685 28.5752 58.0182 28.2313 57.7878 27.9433C56.5733 26.2681 52.9885 25.1374 52.017 27.6501C51.8807 28.0369 51.9007 28.4617 52.0728 28.8339C52.2448 29.2062 52.5553 29.4967 52.9383 29.6435Z" fill="#333E63"/>
</g>
<g style="mix-blend-mode:multiply" opacity="0.3">
<path d="M45.2244 48.4295V48.53C45.2244 52.3074 42.1421 52.2069 38.3647 52.2069C34.5873 52.2069 31.5218 52.3074 31.5218 48.53C31.5126 48.4493 31.5126 48.3678 31.5218 48.2871C32.66 49.0536 33.9573 49.5519 35.316 49.7445C38.5893 50.1951 41.9235 49.7733 44.9815 48.5216L45.2244 48.4295Z" fill="#333E63"/>
</g>
<path d="M14.1925 77.9628C14.1925 78.2643 13.7905 78.5072 13.2963 78.5072C12.8022 78.5072 12.4001 78.2643 12.4001 77.9628C12.4001 77.6613 12.8022 77.4268 13.2963 77.4268C13.7905 77.4268 14.1925 77.6697 14.1925 77.9628Z" fill="#FFCF0B"/>
<path d="M25.6085 70.5497C25.6085 70.8512 25.2065 71.0858 24.7124 71.0858C24.2182 71.0858 23.8162 70.8512 23.8162 70.5497C23.8162 70.2482 24.2182 70.0137 24.7124 70.0137C25.2065 70.0137 25.6085 70.2566 25.6085 70.5497Z" fill="#FFCF0B"/>
<path d="M11.9479 75.3241C12.1977 75.3241 12.4002 75.2041 12.4002 75.0561C12.4002 74.9081 12.1977 74.7881 11.9479 74.7881C11.6981 74.7881 11.4956 74.9081 11.4956 75.0561C11.4956 75.2041 11.6981 75.3241 11.9479 75.3241Z" fill="#FFCF0B"/>
<path d="M8.84049 75.3241C8.84049 75.6257 8.43846 75.8686 7.9443 75.8686C7.45013 75.8686 7.0481 75.6257 7.0481 75.3241C7.0481 75.0226 7.45013 74.7881 7.9443 74.7881C8.43846 74.7881 8.84049 75.031 8.84049 75.3241Z" fill="#FFCF0B"/>
</g>
<g clip-path="url(#clip1_482_5385)">
<path d="M92.798 0.571289H0.933838V96.0873H92.798V0.571289Z" fill="#113F7A"/>
<path d="M92.798 72.4514H0.933838V44.5772L16.144 33.9402L18.7907 36.0759L38.9509 21.1003L40.3831 22.4236L44.236 19.7685L53.7339 26.6031L65.6441 15.0195L84.5647 35.4561L87.7307 32.7592L92.798 37.483V72.4514Z" fill="#5F7DA5"/>
<g style="mix-blend-mode:multiply" opacity="0.3">
<path d="M53.3989 76.8146L58.9017 61.5877L71.1386 70.5496L61.6992 78.2301H72.7886L68.383 69.9633L64.0276 50.5234L85.2348 80.9941" fill="#333E63"/>
</g>
<g style="mix-blend-mode:multiply" opacity="0.3">
<path d="M87.7307 32.7588L84.5647 35.4558L82.0353 41.7124L84.7406 43.7393L79.9163 57.9276L85.4023 56.1939L91.2904 36.0755L87.7307 32.7588Z" fill="#333E63"/>
</g>
<path d="M92.798 96.0876H0.933838V65.7677C37.4349 72.4683 58.9017 62.9367 92.798 66.4629V96.0876Z" fill="#11285D"/>
<path d="M92.798 83.2559H0.933838V96.0874H92.798V83.2559Z" fill="#113F7A"/>
<path d="M87.7307 89.6884C87.7307 89.6884 69.3964 72.2754 46.8659 72.2754C24.3354 72.2754 5.99268 89.6884 5.99268 89.6884C5.99268 97.6201 24.2935 104.044 46.8659 104.044C69.4383 104.044 87.7307 97.6201 87.7307 89.6884Z" fill="#113F7A"/>
<g style="mix-blend-mode:multiply" opacity="0.3">
<path d="M65.6442 15.0195L53.734 26.6031L49.5127 35.4561L57.8632 30.8747L68.7432 50.7585L70.2005 26.5779L65.1668 23.4455L65.6442 15.0195Z" fill="#333E63"/>
</g>
<path d="M62.4112 80.8691C62.4112 80.8691 59.7728 81.2125 60.9873 84.0937C64.2287 82.762 62.4112 80.8691 62.4112 80.8691Z" fill="#C4434D"/>
<path d="M64.0277 78.1879C64.0277 78.1879 63.7429 80.8263 66.8251 80.3237C66.2975 76.8897 64.0277 78.1879 64.0277 78.1879Z" fill="#C4434D"/>
<path d="M58.2066 77.7109C58.2066 77.7109 56.5315 78.0125 57.369 79.8132C59.4295 78.8668 58.2066 77.7109 58.2066 77.7109Z" fill="#C4434D"/>
<path d="M57.8714 75.0983C57.8714 75.0983 57.5867 77.7366 60.6689 77.234C60.1831 73.7749 57.8714 75.0983 57.8714 75.0983Z" fill="#C4434D"/>
<path d="M64.4883 29.8525H84.4726C84.4726 29.8525 84.4726 25.0951 79.799 25.6144C81.1977 20.0195 74.0114 17.2388 72.2609 25.6898C64.4883 23.1687 64.4883 29.8525 64.4883 29.8525Z" fill="white"/>
<path d="M83.6351 11.5688H51.1208C51.1208 11.5688 53.0808 8.13475 60.2671 9.15658C60.2671 3.369 75.1422 1.19971 75.2679 9.15658C78.2915 7.78297 78.928 9.80152 78.928 9.80152C78.928 9.80152 82.4542 8.15988 83.6351 11.5688Z" fill="white"/>
</g>
<g clip-path="url(#clip2_482_5385)">
<path d="M27.7359 0.571289H0.936279V96.4429H27.7359V0.571289Z" fill="#81D2F6"/>
<path d="M27.7359 72.7189H0.933838V44.741L5.37357 34.0643L6.14325 36.208L12.0271 21.1766L12.8725 23.1606L13.9965 20.4957L16.3397 26.6999L19.8143 15.0732L25.3316 35.5859L26.2577 32.8789L27.7359 37.6204V72.7189Z" fill="#113F7A"/>
<g style="mix-blend-mode:multiply" opacity="0.3">
<path d="M10.6001 69.4066L15.8657 59.8564L16.2396 71.0712" fill="#333E63"/>
</g>
<g style="mix-blend-mode:multiply" opacity="0.3">
<path d="M16.2395 77.0989L17.8473 61.8152L21.4172 70.8106L18.661 78.5196H21.8961L20.6133 70.2221L21.1924 59.8564L25.5295 81.2939" fill="#333E63"/>
</g>
<g style="mix-blend-mode:multiply" opacity="0.3">
<path d="M26.2577 32.8789L25.3317 35.5859L24.5962 41.8658L25.3854 43.8919L24.9114 49.1714L26.5094 47.4311L27.2962 36.208L26.2577 32.8789Z" fill="#333E63"/>
</g>
<g style="mix-blend-mode:multiply" opacity="0.3">
<path d="M1.74512 73.1558L5.13173 54.1143V61.8149L4.98268 72.3403L6.14331 72.7186L6.84702 62.437L8.49634 72.1722" fill="#333E63"/>
</g>
<path d="M27.7359 96.4431H0.933838V66.0103C11.5848 72.7358 17.8473 63.1688 27.7359 66.7081V96.4431Z" fill="#8DCC93"/>
<path d="M6.38023 75.14C6.61234 75.14 6.8005 74.8916 6.8005 74.5851C6.8005 74.2787 6.61234 74.0303 6.38023 74.0303C6.14812 74.0303 5.95996 74.2787 5.95996 74.5851C5.95996 74.8916 6.14812 75.14 6.38023 75.14Z" fill="#FFCF0B"/>
<path d="M5.6693 78.3259C5.6693 78.4772 5.574 78.6033 5.45916 78.6033C5.34432 78.6033 5.24902 78.4772 5.24902 78.3259C5.24902 78.1745 5.34187 78.04 5.45916 78.04C5.57644 78.04 5.6693 78.1661 5.6693 78.3259Z" fill="#FFCF0B"/>
<path d="M5.3297 70.5753C5.3297 70.7266 5.23684 70.8527 5.11956 70.8527C5.00227 70.8527 4.90942 70.7266 4.90942 70.5753C4.90942 70.4239 5.00472 70.2979 5.11956 70.2979C5.2344 70.2979 5.3297 70.4155 5.3297 70.5753Z" fill="#FFCF0B"/>
<path d="M7.06187 73.131C7.06187 73.2823 6.96658 73.4084 6.85174 73.4084C6.73689 73.4084 6.6416 73.2823 6.6416 73.131C6.6416 72.9796 6.73445 72.8535 6.85174 72.8535C6.96902 72.8535 7.06187 72.9712 7.06187 73.131Z" fill="#FFCF0B"/>
<path d="M9.73033 70.2975C9.73033 70.4489 9.63504 70.575 9.52019 70.575C9.40535 70.575 9.31006 70.4489 9.31006 70.2975C9.31006 70.1462 9.40291 70.0117 9.52019 70.0117C9.63748 70.0117 9.73033 70.1042 9.73033 70.2975Z" fill="#FFCF0B"/>
<path d="M4.30587 72.2902C4.30587 72.6013 4.11773 72.8534 3.8856 72.8534C3.65347 72.8534 3.47021 72.6265 3.47021 72.2902C3.47021 71.9539 3.6608 71.7354 3.89293 71.7354C4.12506 71.7354 4.30587 71.9876 4.30587 72.2902Z" fill="#FFCF0B"/>
<path d="M1.9918 71.1302C2.22391 71.1302 2.41208 70.8818 2.41208 70.5754C2.41208 70.2689 2.22391 70.0205 1.9918 70.0205C1.7597 70.0205 1.57153 70.2689 1.57153 70.5754C1.57153 70.8818 1.7597 71.1302 1.9918 71.1302Z" fill="#FFCF0B"/>
<path d="M2.41208 79.301C2.41208 79.612 2.22393 79.8558 1.99181 79.8558C1.75968 79.8558 1.57153 79.612 1.57153 79.301C1.57153 78.9899 1.75968 78.7461 1.99181 78.7461C2.22393 78.7461 2.41208 78.9899 2.41208 79.301Z" fill="#FFCF0B"/>
<path d="M22.4801 74.2318C22.7122 74.2318 22.9004 73.9834 22.9004 73.6769C22.9004 73.3705 22.7122 73.1221 22.4801 73.1221C22.248 73.1221 22.0598 73.3705 22.0598 73.6769C22.0598 73.9834 22.248 74.2318 22.4801 74.2318Z" fill="#FFCF0B"/>
<path d="M22.48 77.9649C22.48 78.1247 22.5728 78.2508 22.6901 78.2508C22.8074 78.2508 22.9003 78.1247 22.9003 77.9649C22.9003 77.8052 22.8074 77.6875 22.6901 77.6875C22.5728 77.6875 22.48 77.8136 22.48 77.9649Z" fill="#FFCF0B"/>
<path d="M26.634 81.1681C26.634 81.3194 26.7269 81.4455 26.8442 81.4455C26.9615 81.4455 27.0543 81.3194 27.0543 81.1681C27.0543 81.0167 26.9615 80.8906 26.8442 80.8906C26.7269 80.8906 26.634 81.0336 26.634 81.1681Z" fill="#FFCF0B"/>
<path d="M23.4111 68.4737C23.4111 68.625 23.504 68.7511 23.6213 68.7511C23.7386 68.7511 23.8314 68.625 23.8314 68.4737C23.8314 68.3224 23.7386 68.1963 23.6213 68.1963C23.504 68.1963 23.4111 68.3224 23.4111 68.4737Z" fill="#FFCF0B"/>
<path d="M20.865 74.2321C20.865 74.3834 20.9603 74.5095 21.0751 74.5095C21.19 74.5095 21.2853 74.3834 21.2853 74.2321C21.2853 74.0808 21.1924 73.9463 21.0751 73.9463C20.9578 73.9463 20.865 74.0724 20.865 74.2321Z" fill="#FFCF0B"/>
<path d="M18.407 69.9356C18.407 70.0953 18.5023 70.2215 18.6171 70.2215C18.732 70.2215 18.8273 70.0953 18.8273 69.9356C18.8273 69.7759 18.7344 69.6582 18.6171 69.6582C18.4998 69.6582 18.407 69.7843 18.407 69.9356Z" fill="#FFCF0B"/>
<path d="M24.2516 75.3421C24.4837 75.3421 24.6718 75.0937 24.6718 74.7873C24.6718 74.4808 24.4837 74.2324 24.2516 74.2324C24.0195 74.2324 23.8313 74.4808 23.8313 74.7873C23.8313 75.0937 24.0195 75.3421 24.2516 75.3421Z" fill="#FFCF0B"/>
<path d="M25.3048 70.5755C25.5369 70.5755 25.7251 70.3271 25.7251 70.0207C25.7251 69.7142 25.5369 69.4658 25.3048 69.4658C25.0727 69.4658 24.8845 69.7142 24.8845 70.0207C24.8845 70.3271 25.0727 70.5755 25.3048 70.5755Z" fill="#FFCF0B"/>
<path d="M25.9497 74.1229C25.9497 74.3751 26.1036 74.5853 26.2942 74.5853C26.4848 74.5853 26.6388 74.3751 26.6388 74.1229C26.6388 73.8707 26.4848 73.6689 26.2942 73.6689C26.1036 73.6689 25.9497 73.8707 25.9497 74.1229Z" fill="#FFCF0B"/>
<path d="M27.7335 83.5635H0.933838V96.4427H27.7335V83.5635Z" fill="#63B96B"/>
<path d="M26.2576 90.0198C26.2576 90.0198 20.9187 72.542 14.3337 72.542C7.74858 72.542 2.41211 90.0198 2.41211 90.0198C2.41211 97.9811 7.75103 104.429 14.3337 104.429C20.9163 104.429 26.2576 97.9811 26.2576 90.0198Z" fill="#63B96B"/>
<g style="mix-blend-mode:multiply" opacity="0.3">
<path d="M3.41393 78.898C3.41393 78.898 3.1989 77.2167 3.41393 76.8636C3.62895 76.5105 3.71447 78.3516 3.71447 78.3516C3.71447 78.3516 3.79266 75.6362 4.04922 75.6782C4.30578 75.7203 4.14696 78.5533 4.14696 78.5533C4.14696 78.5533 4.36442 76.872 4.56234 77.2839C4.76026 77.6959 4.66008 79.3016 4.66008 79.3016" fill="#333E63"/>
</g>
<g style="mix-blend-mode:multiply" opacity="0.3">
<path d="M20.7917 71.3824C20.7917 71.3824 20.5474 69.4152 20.6915 69.2134C20.8357 69.0117 21.0849 70.2979 21.0849 70.2979C21.0849 70.2979 20.9676 68.4736 21.2437 68.4736C21.5198 68.4736 21.4881 70.7014 21.4881 70.7014C21.4881 70.7014 21.6445 69.2134 21.8204 69.4825C21.9963 69.7515 21.9206 71.7187 21.9206 71.7187" fill="#333E63"/>
</g>
<g style="mix-blend-mode:multiply" opacity="0.3">
<path d="M18.1479 85.3795C18.1479 85.3795 17.9036 83.4207 18.0477 83.2189C18.1919 83.0172 18.4411 84.295 18.4411 84.295C18.4411 84.295 18.3238 82.4791 18.5999 82.4707C18.876 82.4623 18.8443 84.707 18.8443 84.707C18.8443 84.707 19.0031 83.219 19.179 83.488C19.355 83.757 19.2792 85.7242 19.2792 85.7242" fill="#333E63"/>
</g>
<g style="mix-blend-mode:multiply" opacity="0.3">
<path d="M25.1581 79.5874C25.1581 79.5874 24.943 78.1078 25.1581 77.9061C25.3731 77.7043 25.4733 79.083 25.4733 79.083C25.4733 79.083 25.4733 76.9141 25.6907 76.9141C25.9082 76.9141 25.8667 79.2848 25.8667 79.2848" fill="#333E63"/>
</g>
<g style="mix-blend-mode:multiply" opacity="0.3">
<path d="M10.6465 81.9575C10.6465 81.9575 10.429 80.4779 10.6465 80.2762C10.8639 80.0744 10.9617 81.4531 10.9617 81.4531C10.9617 81.4531 10.9617 79.2842 11.1767 79.2842C11.3917 79.2842 11.3551 81.6549 11.3551 81.6549" fill="#333E63"/>
</g>
<g style="mix-blend-mode:multiply" opacity="0.3">
<path d="M6.14315 36.2082L3.40161 46.3636L6.22867 41.6474L5.72532 49.9618L9.05818 32.4503L12.5694 27.8938L12.8724 23.1608L12.027 21.1768L6.14315 36.2082Z" fill="#333E63"/>
</g>
<g style="mix-blend-mode:multiply" opacity="0.3">
<path d="M19.8142 15.0732L16.3396 26.6999L15.1643 39.6128L17.0384 34.4258L20.6278 56.107L21.1434 26.6747L19.6749 23.5305L19.8142 15.0732Z" fill="#333E63"/>
</g>
<g style="mix-blend-mode:multiply" opacity="0.3">
<path d="M14.4119 79.0572C15.7466 79.0572 16.8285 78.1803 16.8285 77.0984C16.8285 76.0166 15.7466 75.1396 14.4119 75.1396C13.0773 75.1396 11.9954 76.0166 11.9954 77.0984C11.9954 78.1803 13.0773 79.0572 14.4119 79.0572Z" fill="#333E63"/>
</g>
<path d="M17.4343 42.0755H17.2095C17.2095 42.0755 17.3072 49.6417 14.9102 49.4063L14.8247 48.4563L15.0128 46.7245L14.8247 45.6484L14.5657 47.2625L14.0135 39.6123H13.7936V48.2461L13.1607 43.4963L12.9164 44.1352L13.774 50.4319C13.774 50.4319 13.7471 53.1809 13.6885 55.9552C13.5 55.855 13.3209 55.6044 13.1656 55.2234C13.0103 54.8424 12.8831 54.3415 12.7942 53.761L12.9139 52.1385L12.8235 51.7013L12.6549 52.9371C12.5718 52.3778 12.5024 51.7957 12.4472 51.1969C12.4472 51.1969 12.6745 51.1969 12.1858 51.1969C12.1051 55.8711 13.5932 58.7631 13.5932 58.7631L13.5175 75.7701V76.7789C14.3385 78.267 15.4209 76.8798 15.4209 76.8798L15.2816 67.7752L15.0373 51.7434C15.631 51.508 17.4416 50.3478 17.4343 42.0755Z" fill="#A43548"/>
<g style="mix-blend-mode:multiply" opacity="0.3">
<path d="M13.7325 66.7413C13.7273 67.0032 13.7372 67.2661 13.7618 67.5147C13.7755 67.6378 13.7991 67.7449 13.8298 67.8238C13.8605 67.9026 13.8971 67.95 13.9353 67.9603C14.0501 67.9603 14.1185 67.5231 14.1527 67.1196C14.2442 66.0452 14.2691 64.9169 14.226 63.8073C14.1992 63.0927 14.0086 61.6719 13.8229 62.9245C13.6885 63.8829 13.7325 65.6652 13.7325 66.7413Z" fill="#333E63"/>
</g>
<g style="mix-blend-mode:multiply" opacity="0.3">
<path d="M14.4924 60.8566C14.4932 61.1187 14.5152 61.3748 14.5559 61.5964C14.5656 61.6494 14.5785 61.6948 14.5936 61.7296C14.6088 61.7643 14.6259 61.7877 14.6439 61.7981C14.6694 61.7957 14.6942 61.7672 14.7151 61.7163C14.736 61.6655 14.752 61.5945 14.7612 61.5123C14.7766 61.344 14.7824 61.167 14.7783 60.9911C14.7603 59.0743 14.731 57.1632 14.6903 55.2576C14.6965 54.4357 14.6364 53.6239 14.5168 52.9121C14.4073 53.9383 14.3762 55.0441 14.4264 56.1235C14.4508 57.7208 14.4484 59.2929 14.4924 60.8566Z" fill="#333E63"/>
</g>
<g style="mix-blend-mode:multiply" opacity="0.3">
<path d="M14.8688 63.3789C14.7246 62.5382 14.3996 64.5726 14.7026 64.8753C14.7328 64.8964 14.7642 64.8842 14.7923 64.8404C14.8203 64.7966 14.8437 64.7235 14.859 64.6315C14.8898 64.4447 14.905 64.2324 14.903 64.0178C14.909 63.798 14.8971 63.5769 14.8688 63.3789Z" fill="#333E63"/>
</g>
<g style="mix-blend-mode:multiply" opacity="0.3">
<path d="M15.4113 76.8302C15.4113 76.8302 14.3288 78.2173 13.5078 76.7293V75.7205C13.5935 75.9998 13.6957 76.212 13.8075 76.3426C13.9193 76.4732 14.0379 76.519 14.1553 76.4771C14.2247 76.4597 14.291 76.3719 14.3459 76.2249C14.3878 76.0739 14.4195 75.8931 14.4388 75.6953C14.5581 74.7128 14.6315 73.6714 14.6562 72.61C14.6518 71.695 14.6906 70.7836 14.7711 69.9113C14.8332 69.4528 14.9156 69.0302 15.0154 68.6587C15.096 68.3309 15.1816 68.0198 15.2598 67.7256L15.4113 76.8302Z" fill="#333E63"/>
</g>
<path d="M18.7588 35.3588C18.7588 37.5866 18.2335 37.5277 17.5835 37.5277C16.9335 37.5277 16.4106 37.5866 16.4106 35.3588C16.4105 35.1615 16.4154 34.9646 16.4253 34.7703C16.4585 33.9781 16.5596 33.2379 16.7157 32.6442C16.8717 32.0505 17.0756 31.6303 17.3014 31.4373C17.5272 31.2442 17.7646 31.287 17.9832 31.5602C18.2019 31.8335 18.392 32.3247 18.5291 32.9712C18.6789 33.6603 18.7595 34.4983 18.7588 35.3588Z" fill="#63B96B"/>
<g style="mix-blend-mode:multiply" opacity="0.3">
<path d="M18.7588 35.3592C18.7588 37.587 18.2335 37.5282 17.5835 37.5282C16.9335 37.5282 16.4106 37.587 16.4106 35.3592C16.4105 35.162 16.4154 34.965 16.4253 34.7707C16.5863 34.9978 16.7596 35.1038 16.9335 35.0818C17.1964 35.0383 17.4551 34.8392 17.6983 34.4933C17.9931 34.111 18.2723 33.5996 18.5291 32.9717C18.6789 33.6608 18.7595 34.4987 18.7588 35.3592Z" fill="#333E63"/>
</g>
<path d="M18.5046 42.5217C18.5046 50.029 16.7356 49.8104 14.5536 49.8104C12.3716 49.8104 10.6001 50.029 10.6001 42.5217C10.5991 40.5025 10.7302 38.5084 10.9837 36.6874C11.3521 34.0156 11.9637 31.8299 12.7257 30.4619C13.4877 29.0939 14.3586 28.6182 15.2063 29.1068C16.054 29.5954 16.8323 31.0218 17.4231 33.1696C18.0139 35.3174 18.385 38.0695 18.4802 41.0085C18.497 41.5108 18.5052 42.0161 18.5046 42.5217Z" fill="#63B96B"/>
<g style="mix-blend-mode:multiply" opacity="0.3">
<path d="M18.5046 42.5218C18.5046 50.0292 16.7356 49.8106 14.5536 49.8106C12.3716 49.8106 10.6001 50.0292 10.6001 42.5218C10.5991 40.5027 10.7302 38.5086 10.9837 36.6875C11.1609 39.106 11.5883 41.2193 12.1859 42.6311C13.1388 44.8758 14.385 45.2793 15.5163 44.5899C16.5445 43.8347 17.5405 42.6312 18.4802 41.0086C18.497 41.5109 18.5052 42.0162 18.5046 42.5218Z" fill="#333E63"/>
</g>
<path d="M13.4883 50.0453V50.1042C13.4883 52.332 12.9605 52.2731 12.313 52.2731C11.6655 52.2731 11.1401 52.332 11.1401 50.1042C11.1388 50.0566 11.1388 50.0088 11.1401 49.9612C11.1434 48.891 11.27 47.8691 11.4923 47.1202C11.7145 46.3713 12.0141 45.9568 12.3252 45.968C12.6363 45.9791 12.9333 46.415 13.151 47.1796C13.3686 47.9443 13.4891 48.9751 13.4858 50.0453H13.4883Z" fill="#63B96B"/>
<g style="mix-blend-mode:multiply" opacity="0.3">
<path d="M14.6172 32.0546C14.7964 32.3163 14.9894 32.448 15.184 32.4413C15.2133 32.4451 15.2424 32.428 15.2696 32.3909C15.3089 32.3256 15.3404 32.2152 15.3587 32.0787C15.377 31.9421 15.3809 31.788 15.3697 31.6427C15.3184 30.802 14.9177 30.348 14.7002 30.3816C14.6513 30.3852 14.6036 30.437 14.5629 30.5309C14.5222 30.6247 14.4901 30.7567 14.4706 30.9113C14.3875 31.4325 14.4657 31.8444 14.6172 32.0546Z" fill="#333E63"/>
</g>
<g style="mix-blend-mode:multiply" opacity="0.3">
<path d="M15.6483 34.9474C15.9459 35.5156 16.2942 35.6834 16.6257 35.4182C16.6843 35.3878 16.7398 35.3068 16.7869 35.1828C16.8172 35.0818 16.8401 34.9575 16.8537 34.8201C16.8673 34.6827 16.8712 34.5362 16.8651 34.3926C16.8522 34.1052 16.8186 33.8335 16.7674 33.6023C16.4864 32.2656 15.6629 31.3829 15.4406 33.3753C15.4087 33.6788 15.4126 34.0131 15.4514 34.3069C15.4902 34.6007 15.5609 34.8305 15.6483 34.9474Z" fill="#333E63"/>
</g>
<g style="mix-blend-mode:multiply" opacity="0.3">
<path d="M13.4883 50.046V50.1048C13.4883 52.3327 12.9605 52.2738 12.313 52.2738C11.6655 52.2738 11.1401 52.3327 11.1401 50.1048C11.1388 50.0573 11.1388 50.0094 11.1401 49.9619C11.3348 50.4063 11.5562 50.6937 11.7876 50.8026C12.3487 51.0686 12.9203 50.8191 13.4443 50.0796L13.4883 50.046Z" fill="#333E63"/>
</g>
</g>
<g clip-path="url(#clip3_482_5385)">
<path d="M92.9337 0.571289H1.06958V96.0872H92.9337V0.571289Z" fill="#81D2F6"/>
<g style="mix-blend-mode:soft-light">
<path d="M25.8083 25.6469C30.3875 21.0677 30.3875 13.6432 25.8083 9.06399C21.229 4.48474 13.8046 4.48474 9.22531 9.06399C4.64606 13.6432 4.64606 21.0677 9.22531 25.6469C13.8046 30.2262 21.229 30.2262 25.8083 25.6469Z" fill="white"/>
</g>
<path d="M20.4781 24.4916C24.4184 22.8594 26.2895 18.3421 24.6574 14.4018C23.0253 10.4615 18.5079 8.5904 14.5676 10.2225C10.6273 11.8546 8.7562 16.372 10.3883 20.3123C12.0204 24.2525 16.5378 26.1237 20.4781 24.4916Z" fill="#FEB300"/>
<path d="M22.9804 17.3564C22.9804 18.4365 22.6602 19.4923 22.0601 20.3904C21.46 21.2884 20.6072 21.9883 19.6093 22.4017C18.6115 22.815 17.5135 22.9231 16.4542 22.7124C15.3948 22.5017 14.4218 21.9816 13.6581 21.2179C12.8943 20.4542 12.3742 19.4811 12.1635 18.4218C11.9528 17.3625 12.061 16.2645 12.4743 15.2666C12.8876 14.2688 13.5875 13.4159 14.4856 12.8158C15.3836 12.2158 16.4394 11.8955 17.5195 11.8955C18.9678 11.8955 20.3569 12.4709 21.381 13.495C22.4051 14.5191 22.9804 15.9081 22.9804 17.3564Z" fill="#FFCF0B"/>
<path d="M92.9337 72.4514H1.06958V44.5772L16.2881 33.9401L18.9265 36.0759L39.095 21.1003L41.993 23.0769L45.8458 20.4218L53.8781 26.6031L65.7799 15.0195L84.7005 35.4561L87.8748 32.7508L92.9337 37.483V72.4514Z" fill="#113F7A"/>
<g style="mix-blend-mode:multiply" opacity="0.3">
<path d="M3.85034 72.8867L13.9179 59.9296L27.0593 45.5234L14.9481 72.0743L18.9265 72.4512L23.0222 62.1994L26.9923 71.9067" fill="#333E63"/>
</g>
<path d="M92.9337 96.0876H1.06958V65.7677C37.5791 72.4682 59.0374 62.9367 92.9337 66.4629V96.0876Z" fill="#60A78E"/>
<path d="M92.9337 83.2559H1.06958V96.0874H92.9337V83.2559Z" fill="#589882"/>
<path d="M87.8666 89.6884C87.8666 89.6884 69.5742 72.2754 47.0018 72.2754C24.4294 72.2754 6.13696 89.6884 6.13696 89.6884C6.13696 97.6201 24.4294 104.044 47.0018 104.044C69.5742 104.044 87.8666 97.6201 87.8666 89.6884Z" fill="#589882"/>
<g style="mix-blend-mode:multiply" opacity="0.3">
<path d="M18.9266 36.0753L15.6015 40.1123L13.918 52.9271L32.7297 30.4385L34.6142 33.9395L44.0368 26.527L41.9932 23.0763L39.0952 21.0996L18.9266 36.0753Z" fill="#333E63"/>
</g>
<path d="M16.2883 33.9395L7.27612 40.2463L10.216 41.7121L14.2949 38.7806L15.6015 40.1123L18.9267 36.0752L16.2883 33.9395Z" fill="white"/>
<path d="M8.04664 78.0716C8.04664 78.0716 7.3012 76.3965 8.04664 76.0447C8.79207 75.693 9.06008 77.5356 9.06008 77.5356C9.06008 77.5356 9.3281 74.8219 10.2075 74.8638C11.087 74.9056 10.5426 77.7366 10.5426 77.7366C10.5426 77.7366 11.2796 76.0615 11.9581 76.4635C12.6365 76.8655 12.2931 78.4737 12.2931 78.4737" fill="#589882"/>
<g style="mix-blend-mode:multiply" opacity="0.3">
<path d="M32.83 81.1201C32.83 81.1201 32.093 79.646 32.83 79.4449C33.5671 79.2439 33.9105 80.6092 33.9105 80.6092C33.9105 80.6092 33.9105 78.4482 34.6559 78.4482C35.4013 78.4482 35.259 80.8102 35.259 80.8102" fill="#333E63"/>
</g>
</g>
<defs>
<clipPath id="clip0_482_5385">
<rect width="61.1423" height="103.858" fill="white" transform="translate(0.933838 0.571289)"/>
</clipPath>
<clipPath id="clip1_482_5385">
<rect width="34.3402" height="103.858" fill="white" transform="translate(58.7258 0.571289)"/>
</clipPath>
<clipPath id="clip2_482_5385">
<rect width="26.8021" height="103.858" fill="white" transform="translate(0.933838 0.571289)"/>
</clipPath>
<clipPath id="clip3_482_5385">
<rect width="31.8275" height="103.858" fill="white" transform="translate(0.933838 0.571289)"/>
</clipPath>
</defs>
</svg>
