<svg width="92" height="105" viewBox="0 0 92 105" fill="none" xmlns="http://www.w3.org/2000/svg">
<path d="M91.9362 0.763672H0.0720215V96.2796H91.9362V0.763672Z" fill="#81D2F6"/>
<path d="M91.9363 72.6438H0.0637207V44.7696L15.2823 34.1325L17.9206 36.2683L38.0892 21.2926L40.9872 23.2693L44.84 20.6142L52.8722 26.7954L64.7824 15.2119L83.6946 35.6485L86.869 32.9516L91.9363 37.6754V72.6438Z" fill="#113F7A"/>
<g style="mix-blend-mode:multiply" opacity="0.3">
<path d="M33.1978 69.3438L51.2473 59.8291L52.5288 71.0022" fill="#333E63"/>
</g>
<g style="mix-blend-mode:multiply" opacity="0.3">
<path d="M52.5288 77.0076L58.04 61.7806L70.2768 70.7426L60.8291 78.4231H71.9184L67.5212 70.1563L69.5063 59.8291L84.373 81.187" fill="#333E63"/>
</g>
<g style="mix-blend-mode:multiply" opacity="0.3">
<path d="M86.869 32.9512L83.6947 35.6481L81.1736 41.9047L83.8789 43.9233L82.254 49.1832L87.7317 47.4494L90.4287 36.2679L86.869 32.9512Z" fill="#333E63"/>
</g>
<g style="mix-blend-mode:multiply" opacity="0.3">
<path d="M2.84448 73.0793L14.4531 54.1084V61.7805L13.9422 72.2668L17.9207 72.6437L20.3328 62.4003L25.9864 72.0993" fill="#333E63"/>
</g>
<path d="M91.9363 96.28H0.0637207V65.9601C36.5732 72.6606 58.04 63.1291 91.9363 66.6553V96.28Z" fill="#8DCC93"/>
<path d="M18.7331 75.0558C19.5287 75.0558 20.1737 74.8083 20.1737 74.503C20.1737 74.1977 19.5287 73.9502 18.7331 73.9502C17.9375 73.9502 17.2925 74.1977 17.2925 74.503C17.2925 74.8083 17.9375 75.0558 18.7331 75.0558Z" fill="#FFCF0B"/>
<path d="M16.2956 78.2301C16.2956 78.3808 15.9689 78.5065 15.5753 78.5065C15.1816 78.5065 14.855 78.3808 14.855 78.2301C14.855 78.0793 15.1733 77.9453 15.5753 77.9453C15.9773 77.9453 16.2956 78.0709 16.2956 78.2301Z" fill="#FFCF0B"/>
<path d="M15.1315 70.5078C15.1315 70.6586 14.8133 70.7842 14.4112 70.7842C14.0092 70.7842 13.6909 70.6586 13.6909 70.5078C13.6909 70.3571 14.0176 70.2314 14.4112 70.2314C14.8049 70.2314 15.1315 70.3487 15.1315 70.5078Z" fill="#FFCF0B"/>
<path d="M21.0698 73.0538C21.0698 73.2045 20.7431 73.3301 20.3495 73.3301C19.9558 73.3301 19.6292 73.2045 19.6292 73.0538C19.6292 72.903 19.9474 72.7773 20.3495 72.7773C20.7515 72.7773 21.0698 72.8946 21.0698 73.0538Z" fill="#FFCF0B"/>
<path d="M30.216 70.2311C30.216 70.3818 29.8894 70.5074 29.4957 70.5074C29.102 70.5074 28.7754 70.3818 28.7754 70.2311C28.7754 70.0803 29.0937 69.9463 29.4957 69.9463C29.8977 69.9463 30.216 70.0384 30.216 70.2311Z" fill="#FFCF0B"/>
<path d="M11.622 72.2169C11.622 72.5268 10.9771 72.778 10.1814 72.778C9.38574 72.778 8.75757 72.5519 8.75757 72.2169C8.75757 71.8818 9.41087 71.6641 10.2066 71.6641C11.0022 71.6641 11.622 71.9153 11.622 72.2169Z" fill="#FFCF0B"/>
<path d="M3.69037 71.0607C4.486 71.0607 5.13098 70.8132 5.13098 70.5079C5.13098 70.2026 4.486 69.9551 3.69037 69.9551C2.89474 69.9551 2.24976 70.2026 2.24976 70.5079C2.24976 70.8132 2.89474 71.0607 3.69037 71.0607Z" fill="#FFCF0B"/>
<path d="M5.13098 79.2012C5.13098 79.5111 4.48606 79.754 3.69037 79.754C2.89468 79.754 2.24976 79.5111 2.24976 79.2012C2.24976 78.8913 2.89468 78.6484 3.69037 78.6484C4.48606 78.6484 5.13098 78.8913 5.13098 79.2012Z" fill="#FFCF0B"/>
<path d="M73.9201 74.1515C74.7157 74.1515 75.3607 73.904 75.3607 73.5987C75.3607 73.2934 74.7157 73.0459 73.9201 73.0459C73.1245 73.0459 72.4795 73.2934 72.4795 73.5987C72.4795 73.904 73.1245 74.1515 73.9201 74.1515Z" fill="#FFCF0B"/>
<path d="M73.9202 77.8702C73.9202 78.0293 74.2384 78.1549 74.6405 78.1549C75.0425 78.1549 75.3608 78.0293 75.3608 77.8702C75.3608 77.711 75.0425 77.5938 74.6405 77.5938C74.2384 77.5938 73.9202 77.7194 73.9202 77.8702Z" fill="#FFCF0B"/>
<path d="M88.1587 81.0616C88.1587 81.2123 88.477 81.338 88.879 81.338C89.281 81.338 89.5993 81.2123 89.5993 81.0616C89.5993 80.9108 89.281 80.7852 88.879 80.7852C88.477 80.7852 88.1587 80.9276 88.1587 81.0616Z" fill="#FFCF0B"/>
<path d="M77.1113 68.4141C77.1113 68.5648 77.4296 68.6905 77.8316 68.6905C78.2337 68.6905 78.5519 68.5648 78.5519 68.4141C78.5519 68.2633 78.2337 68.1377 77.8316 68.1377C77.4296 68.1377 77.1113 68.2633 77.1113 68.4141Z" fill="#FFCF0B"/>
<path d="M68.384 74.151C68.384 74.3017 68.7107 74.4274 69.1043 74.4274C69.498 74.4274 69.8246 74.3017 69.8246 74.151C69.8246 74.0002 69.5064 73.8662 69.1043 73.8662C68.7023 73.8662 68.384 73.9918 68.384 74.151Z" fill="#FFCF0B"/>
<path d="M59.958 69.8711C59.958 70.0302 60.2847 70.1559 60.6783 70.1559C61.072 70.1559 61.3986 70.0302 61.3986 69.8711C61.3986 69.712 61.0803 69.5947 60.6783 69.5947C60.2763 69.5947 59.958 69.7204 59.958 69.8711Z" fill="#FFCF0B"/>
<path d="M79.9926 75.2569C80.7882 75.2569 81.4332 75.0095 81.4332 74.7042C81.4332 74.3989 80.7882 74.1514 79.9926 74.1514C79.197 74.1514 78.552 74.3989 78.552 74.7042C78.552 75.0095 79.197 75.2569 79.9926 75.2569Z" fill="#FFCF0B"/>
<path d="M83.6025 70.5079C84.3981 70.5079 85.0431 70.2604 85.0431 69.9551C85.0431 69.6498 84.3981 69.4023 83.6025 69.4023C82.8069 69.4023 82.1619 69.6498 82.1619 69.9551C82.1619 70.2604 82.8069 70.5079 83.6025 70.5079Z" fill="#FFCF0B"/>
<path d="M85.8135 74.0421C85.8135 74.2934 86.3411 74.5028 86.9944 74.5028C87.6477 74.5028 88.1754 74.2934 88.1754 74.0421C88.1754 73.7909 87.6477 73.5898 86.9944 73.5898C86.3411 73.5898 85.8135 73.7909 85.8135 74.0421Z" fill="#FFCF0B"/>
<path d="M91.9279 83.4482H0.0637207V96.2797H91.9279V83.4482Z" fill="#63B96B"/>
<path d="M86.8691 89.8808C86.8691 89.8808 68.5683 72.4678 45.9959 72.4678C23.4235 72.4678 5.1311 89.8808 5.1311 89.8808C5.1311 97.8125 23.4319 104.237 45.9959 104.237C68.5599 104.237 86.8691 97.8125 86.8691 89.8808Z" fill="#63B96B"/>
<g style="mix-blend-mode:multiply" opacity="0.3">
<path d="M8.56489 78.8001C8.56489 78.8001 7.82783 77.125 8.56489 76.7732C9.30194 76.4215 9.59509 78.2557 9.59509 78.2557C9.59509 78.2557 9.86312 75.5504 10.7426 75.5923C11.622 75.6342 11.0776 78.4567 11.0776 78.4567C11.0776 78.4567 11.823 76.7816 12.5014 77.192C13.1799 77.6024 12.8365 79.2022 12.8365 79.2022" fill="#333E63"/>
</g>
<g style="mix-blend-mode:multiply" opacity="0.3">
<path d="M68.1325 71.312C68.1325 71.312 67.2949 69.3521 67.7891 69.1511C68.2833 68.9501 69.1376 70.2316 69.1376 70.2316C69.1376 70.2316 68.7355 68.4141 69.682 68.4141C70.6284 68.4141 70.5196 70.6336 70.5196 70.6336C70.5196 70.6336 71.0556 69.1511 71.6587 69.4192C72.2617 69.6872 72.002 71.6471 72.002 71.6471" fill="#333E63"/>
</g>
<g style="mix-blend-mode:multiply" opacity="0.3">
<path d="M59.0702 85.2574C59.0702 85.2574 58.2327 83.3059 58.7268 83.1048C59.221 82.9038 60.0753 84.1769 60.0753 84.1769C60.0753 84.1769 59.6733 82.3678 60.6197 82.3594C61.5662 82.351 61.4573 84.5873 61.4573 84.5873C61.4573 84.5873 62.0017 83.1049 62.6048 83.3729C63.2078 83.6409 62.9482 85.6008 62.9482 85.6008" fill="#333E63"/>
</g>
<g style="mix-blend-mode:multiply" opacity="0.3">
<path d="M83.0998 79.4867C83.0998 79.4867 82.3627 78.0126 83.0998 77.8116C83.8369 77.6105 84.1803 78.9841 84.1803 78.9841C84.1803 78.9841 84.1803 76.8232 84.9257 76.8232C85.6711 76.8232 85.5287 79.1852 85.5287 79.1852" fill="#333E63"/>
</g>
<g style="mix-blend-mode:multiply" opacity="0.3">
<path d="M33.3569 81.848C33.3569 81.848 32.6115 80.3739 33.3569 80.1729C34.1024 79.9719 34.4374 81.3455 34.4374 81.3455C34.4374 81.3455 34.4374 79.1846 35.1745 79.1846C35.9115 79.1846 35.7859 81.5465 35.7859 81.5465" fill="#333E63"/>
</g>
<g style="mix-blend-mode:multiply" opacity="0.3">
<path d="M17.9207 36.2677L8.52319 46.3854L18.2138 41.6867L16.4884 49.9702L27.9128 32.5237L39.9487 27.9841L40.9872 23.2686L38.0893 21.292L17.9207 36.2677Z" fill="#333E63"/>
</g>
<g style="mix-blend-mode:multiply" opacity="0.3">
<path d="M64.7824 15.2119L52.8722 26.7954L48.8435 39.6604L55.2676 34.4927L67.5715 56.0935L69.3387 26.7703L64.305 23.6378L64.7824 15.2119Z" fill="#333E63"/>
</g>
<g style="mix-blend-mode:multiply" opacity="0.3">
<path d="M46.2637 78.9587C50.8386 78.9587 54.5473 78.085 54.5473 77.0072C54.5473 75.9294 50.8386 75.0557 46.2637 75.0557C41.6889 75.0557 37.9802 75.9294 37.9802 77.0072C37.9802 78.085 41.6889 78.9587 46.2637 78.9587Z" fill="#333E63"/>
</g>
<path d="M56.6246 42.1142H55.854C55.854 42.1142 56.189 49.6523 47.9725 49.4178L47.6794 48.4713L48.3243 46.746L47.6794 45.6739L46.7915 47.282L44.8986 39.6602H44.1448V48.262L41.9755 43.5297L41.138 44.1663L44.0778 50.4396C44.0778 50.4396 43.9857 53.1785 43.7847 55.9424C43.1385 55.8426 42.5247 55.5929 41.9924 55.2133C41.4601 54.8337 41.024 54.3348 40.7192 53.7564L41.1296 52.1399L40.8197 51.7044L40.2418 52.9356C39.957 52.3783 39.7189 51.7984 39.5298 51.2018C39.5298 51.2018 40.3088 51.2018 38.6336 51.2018C38.3572 55.8587 43.458 58.7399 43.458 58.7399L43.1984 75.6838V76.6889C46.0126 78.1714 49.723 76.7894 49.723 76.7894L49.2456 67.7186L48.408 51.7462C50.4433 51.5117 56.6497 50.3559 56.6246 42.1142Z" fill="#A43548"/>
<g style="mix-blend-mode:multiply" opacity="0.3">
<path d="M43.9355 66.6881C43.9176 66.9491 43.9518 67.211 44.036 67.4587C44.083 67.5813 44.1639 67.6881 44.2691 67.7666C44.3744 67.8452 44.4997 67.8924 44.6306 67.9026C45.0243 67.9026 45.2588 67.4671 45.3761 67.0651C45.6895 65.9947 45.7751 64.8705 45.6273 63.7651C45.5352 63.0531 44.8819 61.6376 44.2454 62.8856C43.7847 63.8404 43.9355 65.6161 43.9355 66.6881Z" fill="#333E63"/>
</g>
<g style="mix-blend-mode:multiply" opacity="0.3">
<path d="M46.5403 60.8251C46.5431 61.0863 46.6185 61.3415 46.758 61.5622C46.7913 61.615 46.8354 61.6603 46.8873 61.6949C46.9393 61.7295 46.998 61.7528 47.0596 61.7632C47.1472 61.7608 47.2322 61.7324 47.3037 61.6817C47.3753 61.631 47.4302 61.5603 47.4616 61.4784C47.5146 61.3108 47.5345 61.1344 47.5202 60.9592C47.4588 59.0495 47.3583 57.1454 47.2187 55.247C47.2399 54.4281 47.0341 53.6193 46.624 52.9102C46.2487 53.9326 46.142 55.0342 46.3141 56.1096C46.3979 57.701 46.3895 59.2673 46.5403 60.8251Z" fill="#333E63"/>
</g>
<g style="mix-blend-mode:multiply" opacity="0.3">
<path d="M47.83 63.3381C47.3358 62.5005 46.2218 64.5274 47.2604 64.8289C47.364 64.8499 47.4715 64.8378 47.5677 64.7942C47.664 64.7506 47.744 64.6777 47.7965 64.586C47.9019 64.4 47.9541 64.1884 47.9472 63.9746C47.9677 63.7557 47.9272 63.5353 47.83 63.3381Z" fill="#333E63"/>
</g>
<g style="mix-blend-mode:multiply" opacity="0.3">
<path d="M49.6894 76.7388C49.6894 76.7388 45.979 78.1208 43.1648 76.6383V75.6332C43.4585 75.9114 43.809 76.1229 44.1921 76.253C44.5752 76.3831 44.9819 76.4288 45.3843 76.387C45.6222 76.3697 45.8495 76.2822 46.0376 76.1357C46.1812 75.9854 46.2899 75.8052 46.3559 75.6081C46.7651 74.6292 47.0167 73.5918 47.1013 72.5342C47.0862 71.6226 47.2192 70.7146 47.495 69.8456C47.7079 69.3888 47.9904 68.9678 48.3326 68.5977C48.609 68.271 48.9021 67.9611 49.1701 67.668L49.6894 76.7388Z" fill="#333E63"/>
</g>
<path d="M61.164 35.4219C61.164 37.6415 59.3632 37.5828 57.1353 37.5828C54.9074 37.5828 53.115 37.6415 53.115 35.4219C53.1145 35.2254 53.1313 35.0292 53.1653 34.8356C53.2791 34.0463 53.6256 33.3089 54.1605 32.7174C54.6954 32.1259 55.3945 31.7073 56.1684 31.5149C56.9423 31.3226 57.756 31.3652 58.5055 31.6375C59.2551 31.9097 59.9066 32.3991 60.3767 33.0432C60.8901 33.7298 61.1664 34.5646 61.164 35.4219Z" fill="#63B96B"/>
<g style="mix-blend-mode:multiply" opacity="0.3">
<path d="M61.164 35.4226C61.164 37.6422 59.3632 37.5835 57.1353 37.5835C54.9074 37.5835 53.115 37.6422 53.115 35.4226C53.1145 35.2261 53.1313 35.0299 53.1653 34.8363C53.7173 35.0625 54.3112 35.1682 54.9074 35.1462C55.8085 35.1029 56.6953 34.9046 57.529 34.5599C58.5394 34.1791 59.4966 33.6696 60.3767 33.0439C60.8901 33.7305 61.1664 34.5653 61.164 35.4226Z" fill="#333E63"/>
</g>
<path d="M60.293 42.5582C60.293 50.0376 54.229 49.8199 46.7496 49.8199C39.2701 49.8199 33.1978 50.0376 33.1978 42.5582C33.1943 40.5465 33.6437 38.5598 34.5128 36.7455C35.7755 34.0836 37.8719 31.906 40.4839 30.5431C43.096 29.1802 46.0812 28.7062 48.9869 29.193C51.8927 29.6798 54.5604 31.1009 56.5856 33.2407C58.6108 35.3806 59.883 38.1224 60.2093 41.0506C60.2668 41.551 60.2948 42.0544 60.293 42.5582Z" fill="#63B96B"/>
<g style="mix-blend-mode:multiply" opacity="0.3">
<path d="M60.293 42.5578C60.293 50.0373 54.229 49.8195 46.7496 49.8195C39.2701 49.8195 33.1978 50.0373 33.1978 42.5578C33.1943 40.5461 33.6437 38.5594 34.5128 36.7451C35.12 39.1547 36.5851 41.2601 38.6336 42.6667C41.9001 44.903 46.1717 45.305 50.0496 44.6182C53.5741 43.8658 56.9882 42.6668 60.2093 41.0502C60.2668 41.5507 60.2948 42.0541 60.293 42.5578Z" fill="#333E63"/>
</g>
<path d="M43.0977 50.0546V50.1132C43.0977 52.3328 41.2886 52.2741 39.0691 52.2741C36.8495 52.2741 35.0487 52.3328 35.0487 50.1132C35.0443 50.0659 35.0443 50.0182 35.0487 49.9708C35.0598 48.9046 35.4941 47.8864 36.2559 47.1403C37.0177 46.3942 38.0447 45.9813 39.1109 45.9924C40.1772 46.0035 41.1954 46.4377 41.9415 47.1996C42.6876 47.9614 43.1005 48.9883 43.0894 50.0546H43.0977Z" fill="#63B96B"/>
<g style="mix-blend-mode:multiply" opacity="0.3">
<path d="M46.9675 32.1304C47.5818 32.3912 48.2433 32.5223 48.9106 32.5157C49.0108 32.5195 49.1106 32.5024 49.2038 32.4654C49.3387 32.4004 49.4467 32.2904 49.5094 32.1544C49.572 32.0184 49.5854 31.8648 49.5472 31.72C49.3713 30.8824 47.9977 30.4301 47.2522 30.4637C47.0843 30.4672 46.9209 30.5188 46.7814 30.6123C46.6419 30.7059 46.5321 30.8374 46.4649 30.9913C46.1802 31.5106 46.4482 31.921 46.9675 32.1304Z" fill="#333E63"/>
</g>
<g style="mix-blend-mode:multiply" opacity="0.3">
<path d="M50.5018 35.0115C51.5219 35.5776 52.7158 35.7447 53.8521 35.4805C54.0532 35.4502 54.2433 35.3695 54.4049 35.246C54.5087 35.1454 54.5872 35.0215 54.6338 34.8846C54.6804 34.7477 54.6938 34.6018 54.6729 34.4587C54.6288 34.1724 54.5136 33.9017 54.3379 33.6714C53.3747 32.3396 50.5521 31.4602 49.7899 33.4452C49.6806 33.7476 49.6939 34.0807 49.8269 34.3733C49.9599 34.666 50.2022 34.895 50.5018 35.0115Z" fill="#333E63"/>
</g>
<g style="mix-blend-mode:multiply" opacity="0.3">
<path d="M43.0977 50.0545V50.1131C43.0977 52.3326 41.2886 52.274 39.0691 52.274C36.8495 52.274 35.0487 52.3326 35.0487 50.1131C35.0443 50.0657 35.0443 50.0181 35.0487 49.9707C35.7161 50.4134 36.4748 50.6997 37.2683 50.8083C39.1916 51.0732 41.1508 50.8247 42.947 50.088L43.0977 50.0545Z" fill="#333E63"/>
</g>
</svg>
