<svg width="92" height="105" viewBox="0 0 92 105" fill="none" xmlns="http://www.w3.org/2000/svg">
<path d="M91.932 0.763672H0.0678711V96.2796H91.932V0.763672Z" fill="#FEB300"/>
<path d="M13.3433 26.3511C13.3433 26.3511 15.0184 25.0026 17.0704 29.0145C19.9852 24.3912 23.6453 26.2255 23.6453 26.2255C23.6453 26.2255 19.6669 23.6122 17.2631 26.7699C14.6582 24.0394 13.3433 26.3511 13.3433 26.3511Z" fill="white"/>
<path d="M20.9233 17.4479C20.9233 17.4479 21.9117 15.555 25.4127 18.4027C26.0576 14.2149 29.2823 14.8179 29.2823 14.8179C29.2823 14.8179 25.6305 12.4225 24.6924 16.2753C21.2081 14.8012 20.9233 17.4479 20.9233 17.4479Z" fill="white"/>
<path d="M4.72485 5.15209C4.72485 5.15209 6.12359 4.31452 7.23755 7.5559C9.33146 5.0432 11.1825 6.76859 11.1825 6.76859C11.1825 6.76859 9.76699 3.76173 7.62282 5.88915C5.96444 3.54397 4.72485 5.15209 4.72485 5.15209Z" fill="white"/>
<g style="mix-blend-mode:soft-light">
<path d="M75.8927 37.8093C82.2207 37.8093 87.3506 32.6795 87.3506 26.3514C87.3506 20.0234 82.2207 14.8936 75.8927 14.8936C69.5647 14.8936 64.4348 20.0234 64.4348 26.3514C64.4348 32.6795 69.5647 37.8093 75.8927 37.8093Z" fill="white"/>
</g>
<path d="M75.8927 33.6043C79.8986 33.6043 83.146 30.3569 83.146 26.351C83.146 22.3451 79.8986 19.0977 75.8927 19.0977C71.8868 19.0977 68.6394 22.3451 68.6394 26.351C68.6394 30.3569 71.8868 33.6043 75.8927 33.6043Z" fill="#FEB300"/>
<path d="M81.0185 26.3516C81.0202 25.3355 80.7203 24.3417 80.1568 23.496C79.5932 22.6504 78.7915 21.991 77.8529 21.6014C76.9144 21.2118 75.8814 21.1094 74.8847 21.3072C73.888 21.5051 72.9723 21.9942 72.2538 22.7128C71.5352 23.4313 71.0461 24.3469 70.8482 25.3437C70.6504 26.3404 70.7528 27.3734 71.1424 28.3119C71.5321 29.2504 72.1914 30.0522 73.037 30.6157C73.8827 31.1793 74.8765 31.4792 75.8926 31.4775C77.2514 31.4753 78.5539 30.9346 79.5148 29.9737C80.4756 29.0129 81.0163 27.7104 81.0185 26.3516Z" fill="#FFCF0B"/>
<path d="M91.932 72.6438H0.0678711V44.7696L15.2781 34.1325L17.9248 36.2683L38.085 21.2926L39.5172 22.616L43.37 19.9609L52.868 26.7954L64.7782 15.2119L83.6988 35.6485L86.8648 32.9516L91.932 37.6754V72.6438Z" fill="#113F7A"/>
<g style="mix-blend-mode:multiply" opacity="0.3">
<path d="M33.1936 69.3438L51.2431 59.8291L52.533 71.0022" fill="#333E63"/>
</g>
<g style="mix-blend-mode:multiply" opacity="0.3">
<path d="M52.533 77.0073L58.0358 61.7804L70.2726 70.7423L60.8332 78.4228H71.9226L67.517 70.156L64.2086 49.9707L84.3688 81.1868" fill="#333E63"/>
</g>
<g style="mix-blend-mode:multiply" opacity="0.3">
<path d="M86.8647 32.9512L83.6987 35.6481L81.1692 41.9047L83.8746 43.9233L79.1172 59.0832L84.5949 57.3495L90.4243 36.2679L86.8647 32.9512Z" fill="#333E63"/>
</g>
<g style="mix-blend-mode:multiply" opacity="0.3">
<path d="M2.84033 73.0793L14.449 54.1084V61.7805L13.9381 72.2668L17.9249 72.6437L20.3287 62.4003L25.9823 72.0993" fill="#333E63"/>
</g>
<path d="M91.932 96.28H0.0678711V65.9601C36.569 72.6606 58.0358 63.1291 91.932 66.6553V96.28Z" fill="#8DCC93"/>
<path d="M91.932 83.4482H0.0678711V96.2797H91.932V83.4482Z" fill="#63B96B"/>
<path d="M86.8649 89.8808C86.8649 89.8808 68.5725 72.4678 46.0001 72.4678C23.4277 72.4678 5.13525 89.8808 5.13525 89.8808C5.13525 97.8125 23.4277 104.237 46.0001 104.237C68.5725 104.237 86.8649 97.8125 86.8649 89.8808Z" fill="#63B96B"/>
<g style="mix-blend-mode:multiply" opacity="0.3">
<path d="M18.0337 74.0422C18.0337 74.0422 17.2883 72.367 18.0337 72.0236C18.7791 71.6802 19.0388 73.5061 19.0388 73.5061C19.0388 73.5061 19.3152 70.8008 20.1862 70.8343C21.0573 70.8678 20.5296 73.7071 20.5296 73.7071C20.5296 73.7071 21.2667 72.032 21.9451 72.4424C22.6235 72.8528 22.2802 74.4526 22.2802 74.4526" fill="#333E63"/>
</g>
<g style="mix-blend-mode:multiply" opacity="0.3">
<path d="M32.5151 82.3423C32.5151 82.3423 31.6776 80.3824 32.1801 80.1814C32.6826 79.9804 33.5286 81.2618 33.5286 81.2618C33.5286 81.2618 33.1266 79.4443 34.073 79.4443C35.0195 79.4443 34.9106 81.6639 34.9106 81.6639C34.9106 81.6639 35.455 80.1814 36.058 80.4494C36.6611 80.7174 36.4014 82.6773 36.4014 82.6773" fill="#333E63"/>
</g>
<g style="mix-blend-mode:multiply" opacity="0.3">
<path d="M83.3638 78.6744C83.3638 78.6744 82.5262 76.7145 83.0287 76.5135C83.5313 76.3124 84.3772 77.5939 84.3772 77.5939C84.3772 77.5939 83.9752 75.7848 84.9216 75.7764C85.8681 75.768 85.7592 77.9959 85.7592 77.9959C85.7592 77.9959 86.3036 76.5134 86.9066 76.7815C87.5097 77.0495 87.2501 79.0094 87.2501 79.0094" fill="#333E63"/>
</g>
<g style="mix-blend-mode:multiply" opacity="0.3">
<path d="M65.1132 70.5248C65.1132 70.5248 64.3762 69.0507 65.1132 68.8496C65.8503 68.6486 66.1937 70.0223 66.1937 70.0223C66.1937 70.0223 66.1937 67.8613 66.9391 67.8613C67.6845 67.8613 67.5422 70.2233 67.5422 70.2233" fill="#333E63"/>
</g>
<g style="mix-blend-mode:multiply" opacity="0.3">
<path d="M6.77686 80.5248C6.77686 80.5248 6.03143 79.0507 6.77686 78.8496C7.52229 78.6486 7.85731 80.0223 7.85731 80.0223C7.85731 80.0223 7.85731 77.8613 8.60275 77.8613C9.34818 77.8613 9.20579 80.2233 9.20579 80.2233" fill="#333E63"/>
</g>
<g style="mix-blend-mode:multiply" opacity="0.3">
<path d="M17.9249 36.2677L8.51904 46.3854L18.218 41.6867L16.4843 49.9702L27.9087 32.5237L39.9529 27.9841L40.9914 23.2686L38.0851 21.292L17.9249 36.2677Z" fill="#333E63"/>
</g>
<g style="mix-blend-mode:multiply" opacity="0.3">
<path d="M64.7782 15.2119L52.868 26.7954L48.8394 39.6604L55.2719 34.4927L77.2328 47.1399L69.3346 26.7703L64.3008 23.6378L64.7782 15.2119Z" fill="#333E63"/>
</g>
<g style="mix-blend-mode:multiply" opacity="0.3">
<path d="M46.2596 78.9587C50.8345 78.9587 54.5431 78.085 54.5431 77.0072C54.5431 75.9294 50.8345 75.0557 46.2596 75.0557C41.6847 75.0557 37.9761 75.9294 37.9761 77.0072C37.9761 78.085 41.6847 78.9587 46.2596 78.9587Z" fill="#333E63"/>
</g>
<path d="M56.6287 42.1142H55.8581C55.8581 42.1142 56.1931 49.6523 47.9683 49.4178L47.6835 48.4713L48.3284 46.746L47.6835 45.6739L46.7873 47.282L44.9028 39.6602H44.149V48.262L41.9797 43.5297L41.1421 44.1663L44.082 50.4396C44.082 50.4396 43.9898 53.1785 43.7888 55.9424C43.1442 55.8414 42.532 55.5911 42.0012 55.2116C41.4705 54.8321 41.0357 54.3337 40.7317 53.7564L41.1421 52.1399L40.8238 51.7044L40.2543 52.9356C39.9647 52.3795 39.7237 51.7994 39.534 51.2018C39.534 51.2018 40.3129 51.2018 38.6378 51.2018C38.3614 55.8587 43.4622 58.7399 43.4622 58.7399L43.2025 75.6838V76.6889C46.0167 78.1714 49.7271 76.7894 49.7271 76.7894L49.2497 67.7186L48.4122 51.7462C50.4475 51.5117 56.6454 50.3559 56.6287 42.1142Z" fill="#A43548"/>
<g style="mix-blend-mode:multiply" opacity="0.3">
<path d="M43.9144 66.6881C43.8951 66.9498 43.9323 67.2126 44.0232 67.4587C44.068 67.5812 44.147 67.6883 44.251 67.767C44.355 67.8457 44.4795 67.8928 44.6095 67.9026C45.0116 67.9026 45.2461 67.4671 45.3634 67.0651C45.6739 65.9941 45.7567 64.8699 45.6062 63.7651C45.5225 63.0531 44.8608 61.6376 44.2326 62.8856C43.7804 63.8404 43.9562 65.6161 43.9144 66.6881Z" fill="#333E63"/>
</g>
<g style="mix-blend-mode:multiply" opacity="0.3">
<path d="M46.5444 60.8251C46.5484 61.0849 46.6206 61.3391 46.7538 61.5622C46.8246 61.6656 46.9327 61.7376 47.0553 61.7632C47.143 61.7608 47.2279 61.7324 47.2995 61.6817C47.371 61.631 47.426 61.5603 47.4574 61.4784C47.5144 61.3117 47.5344 61.1345 47.516 60.9592C47.4602 59.0495 47.3625 57.1454 47.2229 55.247C47.244 54.4281 47.0382 53.6193 46.6282 52.9102C46.2488 53.9316 46.1419 55.0343 46.3183 56.1096C46.4272 57.701 46.4272 59.2673 46.5444 60.8251Z" fill="#333E63"/>
</g>
<g style="mix-blend-mode:multiply" opacity="0.3">
<path d="M47.8341 63.3381C47.34 62.5005 46.226 64.5274 47.2646 64.8289C47.3681 64.8487 47.4751 64.8359 47.5711 64.7924C47.667 64.7489 47.7472 64.6769 47.8006 64.586C47.8998 64.3978 47.9488 64.1873 47.943 63.9746C47.9666 63.7565 47.9288 63.536 47.8341 63.3381Z" fill="#333E63"/>
</g>
<g style="mix-blend-mode:multiply" opacity="0.3">
<path d="M49.6853 76.7388C49.6853 76.7388 45.9749 78.1208 43.1606 76.6383V75.6332C43.4544 75.9114 43.8048 76.1229 44.1879 76.253C44.571 76.3831 44.9778 76.4288 45.3802 76.387C45.618 76.3697 45.8453 76.2822 46.0335 76.1357C46.177 75.9854 46.2857 75.8052 46.3518 75.6081C46.7609 74.6292 47.0125 73.5918 47.0972 72.5342C47.0821 71.6226 47.215 70.7146 47.4908 69.8456C47.7037 69.3888 47.9863 68.9678 48.3284 68.5977C48.6048 68.271 48.898 67.9611 49.166 67.668L49.6853 76.7388Z" fill="#333E63"/>
</g>
<path d="M69.4351 32.2478C69.4351 35.8493 66.5204 35.7488 62.9105 35.7488C59.3006 35.7488 56.4026 35.8493 56.4026 32.2478C56.4024 31.9308 56.4276 31.6143 56.478 31.3013C56.6586 30.0147 57.2202 28.8116 58.0905 27.8469C58.9608 26.8822 60.0999 26.2 61.3612 25.8883C62.6225 25.5766 63.9483 25.6496 65.1678 26.0978C66.3873 26.546 67.4447 27.349 68.2039 28.4033C69.0183 29.5184 69.4502 30.867 69.4351 32.2478Z" fill="#72BC54"/>
<g style="mix-blend-mode:multiply" opacity="0.3">
<path d="M69.4351 32.2478C69.4351 35.8493 66.5204 35.7488 62.9105 35.7488C59.3006 35.7488 56.4026 35.8493 56.4026 32.2478C56.4024 31.9308 56.4276 31.6143 56.478 31.3013C57.3724 31.6675 58.3347 31.8388 59.3006 31.8038C60.7598 31.7337 62.1961 31.4136 63.547 30.8574C65.1822 30.2362 66.7327 29.4117 68.162 28.4033C68.9914 29.5132 69.4381 30.8622 69.4351 32.2478Z" fill="#333E63"/>
</g>
<path d="M64.5101 39.4007C64.5101 48.8986 56.8045 48.6139 47.3065 48.6139C37.8085 48.6139 30.0945 48.8903 30.0945 39.4007C30.0874 36.8433 30.6602 34.3175 31.7697 32.0133C33.3635 28.6153 36.0253 25.8321 39.3489 24.0885C42.6725 22.3448 46.4753 21.7364 50.177 22.3562C53.8787 22.976 57.276 24.7899 59.8503 27.5211C62.4247 30.2523 64.0347 33.7508 64.4347 37.4826C64.4981 38.1199 64.5233 38.7604 64.5101 39.4007Z" fill="#72BC54"/>
<g style="mix-blend-mode:multiply" opacity="0.3">
<path d="M64.5101 39.401C64.5101 48.899 56.8045 48.6142 47.3065 48.6142C37.8085 48.6142 30.0945 48.8906 30.0945 39.401C30.0874 36.8436 30.6602 34.3179 31.7697 32.0137C32.5336 35.0822 34.3961 37.7641 37.0045 39.5518C41.1504 42.3911 46.5443 42.902 51.5027 42.0645C56.0004 41.2688 60.2301 39.4512 64.4012 37.5332C64.4738 38.1532 64.5102 38.7768 64.5101 39.401Z" fill="#333E63"/>
</g>
<path d="M44.3584 48.6225V48.723C44.3584 52.5004 41.2761 52.3999 37.4987 52.3999C33.7213 52.3999 30.6558 52.5004 30.6558 48.723C30.6466 48.6423 30.6466 48.5608 30.6558 48.4801C30.6747 46.6652 31.4138 44.9322 32.7104 43.6623C34.007 42.3923 35.7551 41.6895 37.5699 41.7084C39.3848 41.7273 41.1178 42.4663 42.3877 43.763C43.6577 45.0596 44.3605 46.8076 44.3416 48.6225H44.3584Z" fill="#72BC54"/>
<g style="mix-blend-mode:multiply" opacity="0.3">
<path d="M47.5914 26.1501C48.3676 26.4885 49.2072 26.657 50.0538 26.6443C50.1794 26.6501 50.3048 26.6301 50.4224 26.5856C50.5927 26.5016 50.7295 26.3622 50.8101 26.1902C50.8908 26.0182 50.9106 25.8239 50.8663 25.6392C50.6485 24.6174 48.8896 23.9641 47.9516 24.0311C47.7372 24.038 47.5291 24.1054 47.3513 24.2254C47.1735 24.3454 47.0331 24.5133 46.9465 24.7095C46.5863 25.4047 46.9214 25.8905 47.5914 26.1501Z" fill="#333E63"/>
</g>
<g style="mix-blend-mode:multiply" opacity="0.3">
<path d="M52.0723 29.8359C53.3658 30.5426 54.8724 30.754 56.3104 30.4306C56.5632 30.3882 56.8018 30.2847 57.0056 30.1291C57.1404 30.0037 57.2428 29.8476 57.3041 29.674C57.3653 29.5004 57.3836 29.3146 57.3573 29.1324C57.3025 28.7676 57.1522 28.4237 56.9218 28.1357C55.7073 26.4605 52.1226 25.3298 51.151 27.8425C51.0147 28.2293 51.0347 28.654 51.2068 29.0263C51.3789 29.3986 51.6894 29.6891 52.0723 29.8359Z" fill="#333E63"/>
</g>
<g style="mix-blend-mode:multiply" opacity="0.3">
<path d="M44.3584 48.6219V48.7224C44.3584 52.4998 41.2761 52.3993 37.4987 52.3993C33.7213 52.3993 30.6558 52.4998 30.6558 48.7224C30.6466 48.6417 30.6466 48.5602 30.6558 48.4795C31.794 49.246 33.0913 49.7443 34.45 49.9369C37.7233 50.3875 41.0575 49.9656 44.1155 48.714L44.3584 48.6219Z" fill="#333E63"/>
</g>
<path d="M13.3266 78.1552C13.3266 78.4567 12.9245 78.6996 12.4304 78.6996C11.9362 78.6996 11.5342 78.4567 11.5342 78.1552C11.5342 77.8537 11.9362 77.6191 12.4304 77.6191C12.9245 77.6191 13.3266 77.862 13.3266 78.1552Z" fill="#FFCF0B"/>
<path d="M70.2306 73.6151C70.2306 73.9167 69.8286 74.1512 69.3344 74.1512C68.8403 74.1512 68.4382 73.9167 68.4382 73.6151C68.4382 73.3136 68.8403 73.0791 69.3344 73.0791C69.8286 73.0791 70.2306 73.322 70.2306 73.6151Z" fill="#FFCF0B"/>
<path d="M24.7426 70.7421C24.7426 71.0436 24.3406 71.2781 23.8464 71.2781C23.3522 71.2781 22.9502 71.0436 22.9502 70.7421C22.9502 70.4406 23.3522 70.2061 23.8464 70.2061C24.3406 70.2061 24.7426 70.4489 24.7426 70.7421Z" fill="#FFCF0B"/>
<path d="M81.1694 79.4443C81.1694 79.7374 80.7673 79.9803 80.2732 79.9803C79.779 79.9803 79.377 79.7374 79.377 79.4443C79.377 79.1511 79.779 78.9082 80.2732 78.9082C80.7673 78.9082 81.1694 79.1427 81.1694 79.4443Z" fill="#FFCF0B"/>
<path d="M76.7888 71.0438C77.2837 71.0438 77.685 70.8038 77.685 70.5077C77.685 70.2117 77.2837 69.9717 76.7888 69.9717C76.2938 69.9717 75.8926 70.2117 75.8926 70.5077C75.8926 70.8038 76.2938 71.0438 76.7888 71.0438Z" fill="#FFCF0B"/>
<path d="M11.0819 75.5165C11.3317 75.5165 11.5342 75.3965 11.5342 75.2485C11.5342 75.1005 11.3317 74.9805 11.0819 74.9805C10.8321 74.9805 10.6296 75.1005 10.6296 75.2485C10.6296 75.3965 10.8321 75.5165 11.0819 75.5165Z" fill="#FFCF0B"/>
<path d="M85.5415 71.5463C85.5415 71.6971 85.3488 71.8227 85.0976 71.8227C84.8463 71.8227 84.6453 71.6971 84.6453 71.5463C84.6453 71.3956 84.8463 71.2783 85.0976 71.2783C85.3488 71.2783 85.5415 71.4039 85.5415 71.5463Z" fill="#FFCF0B"/>
<path d="M77.2329 75.2485C77.2329 75.3993 77.0319 75.5165 76.789 75.5165C76.5461 75.5165 76.3367 75.3993 76.3367 75.2485C76.3367 75.0977 76.5377 74.9805 76.789 74.9805C77.0402 74.9805 77.2329 75.0642 77.2329 75.2485Z" fill="#FFCF0B"/>
<path d="M7.97452 75.5165C7.97452 75.818 7.57249 76.0609 7.07833 76.0609C6.58417 76.0609 6.18213 75.818 6.18213 75.5165C6.18213 75.215 6.58417 74.9805 7.07833 74.9805C7.57249 74.9805 7.97452 75.2234 7.97452 75.5165Z" fill="#FFCF0B"/>
</svg>
